G04 ================== begin FILE IDENTIFICATION RECORD ==================*
G04 Layout Name:  C:/Users/user/Desktop/ex/EXXX/allegro/AVRUSB500_2.brd*
G04 Film Name:    BOTTOM*
G04 File Format:  Gerber RS274X*
G04 File Origin:  Cadence Allegro 17.2-P019*
G04 Origin Date:  Mon Jul 29 16:04:26 2019*
G04 *
G04 Layer:  ETCH/BOTTOM*
G04 Layer:  PIN/BOTTOM*
G04 Layer:  VIA CLASS/BOTTOM*
G04 *
G04 Offset:    (0.0000 0.0000)*
G04 Mirror:    No*
G04 Mode:      Positive*
G04 Rotation:  0*
G04 FullContactRelief:  No*
G04 UndefLineWidth:     0.0000*
G04 ================== end FILE IDENTIFICATION RECORD ====================*
%FSLAX55Y55*MOMM*%
%IR0*IPPOS*OFA0.00000B0.00000*MIA0B0*SFA1.00000B1.00000*%
%ADD14O,1.8999X1.1999*%
%ADD13C,.61*%
%ADD10C,.635*%
%ADD12C,1.3211*%
%ADD11R,1.3211X1.3211*%
%ADD16C,1.5751*%
%ADD15R,1.5751X1.5751*%
%ADD17C,.254*%
%ADD18C,.381*%
%ADD23C,.8104*%
%ADD22C,1.5216*%
%ADD21R,5.0804X5.0804*%
%ADD24C,1.5756*%
%ADD20C,1.8296*%
%ADD19C,1.7756*%
G75*
%LPD*%
G75*
G36*
G01X54578490Y29599990D02*
Y25700010D01*
X44178510D01*
Y29599990D01*
X54578490D01*
G37*
%LPC*%
G75*
G36*
G01X50102050Y25867440D02*
X49986540Y25751930D01*
X49073460D01*
X49021450Y25803940D01*
X49019530Y25804060D01*
G02X49062440Y25846970I2470J40440D01*
G01X49062560Y25845050D01*
X49097540Y25810070D01*
X49962460D01*
X50060940Y25908550D01*
X50061060Y25910470D01*
G02X50103970Y25867560I40440J-2470D01*
G01X50102050Y25867440D01*
G37*
G36*
G01X49351220Y28041240D02*
Y28198760D01*
G02X49361240Y28208780I10025J-5D01*
G01X49518760D01*
G02X49528780Y28198760I-5J-10025D01*
G01Y28041240D01*
G02X49518760Y28031220I-10025J5D01*
G01X49361240D01*
G02X49351220Y28041240I5J10025D01*
G37*
G36*
G01X46196080Y26153940D02*
G02X46186060Y26143920I-10025J5D01*
G01X46053940D01*
G02X46043920Y26153940I5J10025D01*
G01Y26254960D01*
X45627430Y26671460D01*
Y28165770D01*
G02X45685570I29070J28230D01*
G01Y26695540D01*
X46085040Y26296080D01*
X46186060D01*
G02X46196080Y26286060I-5J-10025D01*
G01Y26153940D01*
G37*
G36*
G01X51203720Y27080950D02*
Y26894050D01*
G02X51158280I-22720J-33550D01*
G01Y27080950D01*
G02X51203720I22720J33550D01*
G37*
G36*
G01X45560720Y27897950D02*
Y27272700D01*
X45564060Y27271480D01*
G02X45511940I-26060J-71480D01*
G01X45515280Y27272700D01*
Y27897950D01*
G02X45560720I22720J33550D01*
G37*
G36*
G01X46923410Y28026220D02*
X47522160Y27427470D01*
X47525380Y27428970D01*
G02X47488530Y27392120I32120J-68970D01*
G01X47490030Y27395340D01*
X46904590Y27980780D01*
X45837590D01*
X45760780Y28057590D01*
Y29176450D01*
G02X45806220I22720J33550D01*
G01Y28076410D01*
X45856410Y28026220D01*
X46923410D01*
G37*
G36*
G01X49877450Y27599780D02*
X49754050D01*
G02Y27645220I-33550J22720D01*
G01X49877450D01*
G02Y27599780I33550J-22720D01*
G37*
G36*
G01X44881920Y26667440D02*
Y26799560D01*
G02X44891940Y26809580I10025J-5D01*
G01X45024060D01*
G02X45034080Y26799560I-5J-10025D01*
G01Y26667440D01*
G02X45024060Y26657420I-10025J5D01*
G01X44891940D01*
G02X44881920Y26667440I5J10025D01*
G37*
G36*
G01X45263920Y26093940D02*
Y26226060D01*
G02X45273940Y26236080I10025J-5D01*
G01X45406060D01*
G02X45416080Y26226060I-5J-10025D01*
G01Y26093940D01*
G02X45406060Y26083920I-10025J5D01*
G01X45273940D01*
G02X45263920Y26093940I5J10025D01*
G37*
G36*
G01X47163920Y27293940D02*
Y27426060D01*
G02X47173940Y27436080I10025J-5D01*
G01X47306060D01*
G02X47316080Y27426060I-5J-10025D01*
G01Y27293940D01*
G02X47306060Y27283920I-10025J5D01*
G01X47173940D01*
G02X47163920Y27293940I5J10025D01*
G37*
G36*
G01X48105000Y26437480D02*
G02Y26577520I0J70020D01*
G01X48175000D01*
G02Y26437480I0J-70020D01*
G01X48105000D01*
G37*
G36*
G01X48475000D02*
G02Y26577520I0J70020D01*
G01X48545000D01*
G02Y26437480I0J-70020D01*
G01X48475000D01*
G37*
G36*
G01X48105000Y27462480D02*
G02Y27602520I0J70020D01*
G01X48175000D01*
G02Y27462480I0J-70020D01*
G01X48105000D01*
G37*
G36*
G01X48475000D02*
G02Y27602520I0J70020D01*
G01X48545000D01*
G02Y27462480I0J-70020D01*
G01X48475000D01*
G37*
G36*
G01X49911220Y28221240D02*
Y28378760D01*
G02X49921240Y28388780I10025J-5D01*
G01X50078760D01*
G02X50088780Y28378760I-5J-10025D01*
G01Y28221240D01*
G02X50078760Y28211220I-10025J5D01*
G01X49921240D01*
G02X49911220Y28221240I5J10025D01*
G37*
G36*
G01X54291220Y26361240D02*
Y26518760D01*
G02X54301240Y26528780I10025J-5D01*
G01X54458760D01*
G02X54468780Y26518760I-5J-10025D01*
G01Y26361240D01*
G02X54458760Y26351220I-10025J5D01*
G01X54301240D01*
G02X54291220Y26361240I5J10025D01*
G37*
G36*
G01X48712220Y26328860D02*
X48790810Y26407440D01*
Y26424560D01*
X48377590Y26837780D01*
X47785550D01*
G02Y26883220I-33550J22720D01*
G01X48396410D01*
X48836250Y26443380D01*
Y26388620D01*
X48744360Y26296720D01*
X48744680Y26294240D01*
G02X48709740Y26329180I-40180J-5240D01*
G01X48712220Y26328860D01*
G37*
G36*
G01X51711720Y27758910D02*
Y27211550D01*
G02X51666280I-22720J-33550D01*
G01Y27740090D01*
X51489090Y27917280D01*
X49039280D01*
X48978160Y27978400D01*
G03X48963800I-7180J-7188D01*
G02X48956610Y27975420I-7188J7180D01*
G01X48383700D01*
X48078900Y28280220D01*
X47722440D01*
G03X47715250Y28262880I-2J-10160D01*
G01X47824910Y28153220D01*
X48035950D01*
G02Y28107780I33550J-22720D01*
G01X47806090D01*
X47633650Y28280220D01*
X47399220D01*
X47392560Y28286880D01*
X47287440D01*
X47280780Y28280220D01*
X46769940D01*
G03X46762750Y28262880I-2J-10160D01*
G01X46808910Y28216720D01*
X47126400D01*
X47570900Y27772220D01*
X51317410D01*
X51554280Y27535360D01*
X51556760Y27535680D01*
G02X51521820Y27500740I5240J-40180D01*
G01X51522140Y27503220D01*
X51298590Y27726780D01*
X47552080D01*
X47107580Y28171280D01*
X46790090D01*
X46680220Y28281140D01*
X46677740Y28280820D01*
G02X46696110Y28353930I-5240J40180D01*
G03X46703680Y28355910I2964J4128D01*
G02X46705160Y28358220I9214J-4274D01*
G03X46704620Y28372010I-7722J6603D01*
G01X46668480Y28408140D01*
X46666000Y28407820D01*
G02X46642590Y28411780I-5243J40180D01*
G01X46641520Y28412320D01*
X46634670D01*
X46629570Y28407220D01*
X46399890D01*
X46353190Y28453920D01*
G02X46359300Y28471210I7182J7186D01*
G03X46383230Y28482430I-4296J40292D01*
G01X46639400D01*
G02X46690700Y28475300I21360J-34431D01*
G03X46644270Y28540570I-18198J36204D01*
G01X46383230D01*
G03X46376370Y28545930I-28234J-29065D01*
G01X46333640D01*
G03X46314710Y28515800I21360J-34432D01*
G02X46297420Y28509690I-10104J1072D01*
G01X46265970Y28541140D01*
X46262640Y28539340D01*
G02X46209660Y28597450I-19245J35660D01*
G01X46064970Y28742140D01*
G02X46062200Y28751330I7188J7179D01*
G03X46056200Y28762690I-9961J2003D01*
G02X46077240Y28840180I15803J37311D01*
G01X46079720Y28839860D01*
X46218590Y28978720D01*
X48042090D01*
X48238500Y28782310D01*
X48238510D01*
X49058100Y27962720D01*
X51507910D01*
X51711720Y27758910D01*
G37*
G54D23*
X45980000Y28880000D03*
G54D22*
X52302000Y29240000D03*
X51540000D03*
X46300000Y27200000D03*
G54D21*
X54240000Y29280000D03*
X54229000Y25971500D03*
X44450000Y29273500D03*
Y25971500D03*
G54D24*
X46120000Y26474000D03*
X45340000Y26414000D03*
X44958000Y26987500D03*
G54D20*
X54380000Y27456000D03*
X50000000Y29316000D03*
X49440000Y29136000D03*
G54D19*
X54380000Y26948000D03*
Y27202000D03*
Y26694000D03*
X50000000Y29062000D03*
Y28554000D03*
Y28808000D03*
X49440000Y28374000D03*
Y28628000D03*
Y28882000D03*
%LPD*%
G75*
G54D10*
X44450000Y25971500D03*
Y29273500D03*
X54229000Y25971500D03*
X54240000Y29280000D03*
G54D11*
X44958000Y26733500D03*
X45340000Y26160000D03*
X46120000Y26220000D03*
X47240000Y27360000D03*
G54D12*
X44958000Y26987500D03*
X45340000Y26414000D03*
X45538000Y27200000D03*
X46120000Y26474000D03*
X46300000Y27200000D03*
X47557500Y27360000D03*
X51540000Y29240000D03*
X52302000D03*
G54D13*
X45656500Y28194000D03*
X45538000Y27931500D03*
X46072000Y28800000D03*
X46243400Y28575000D03*
X45980000Y28880000D03*
X45783500Y29210000D03*
X46672500Y28321000D03*
X46609000Y28765500D03*
X46660760Y28448000D03*
X47752000Y26860500D03*
X48704500Y26289000D03*
X48069500Y28130500D03*
X49022000Y25844500D03*
X50101500Y25908000D03*
X49911000Y27622500D03*
X49720500D03*
X51689000Y27178000D03*
X51181000Y26860500D03*
Y27114500D03*
X51562000Y27495500D03*
G54D14*
X48140000Y26507500D03*
X48510000D03*
X48140000Y27532500D03*
X48510000D03*
G54D15*
X49440000Y28120000D03*
X50000000Y28300000D03*
X54380000Y26440000D03*
G54D16*
X49440000Y28882000D03*
Y28628000D03*
Y28374000D03*
Y29136000D03*
X50000000Y28808000D03*
Y28554000D03*
Y29316000D03*
Y29062000D03*
X54380000Y26694000D03*
Y27456000D03*
Y27202000D03*
Y26948000D03*
G54D17*
G01X45538000Y27200000D02*
Y27931500D01*
G01X47557500Y27360000D02*
X46914000Y28003500D01*
X45847000D01*
X45783500Y28067000D01*
Y29210000D01*
G01X51689000Y27178000D02*
Y27749500D01*
X51498500Y27940000D01*
X49048690D01*
X48229100Y28759590D01*
X48229090D01*
X48032680Y28956000D01*
X46228000D01*
X46072000Y28800000D01*
G01X51562000Y27495500D02*
X51308000Y27749500D01*
X47561490D01*
X47116990Y28194000D01*
X46799500D01*
X46672500Y28321000D01*
G01X46660760Y28448000D02*
X46724260Y28384500D01*
X47561500D01*
X47815500Y28130500D01*
X48069500D01*
G01X48704500Y26289000D02*
X48813530Y26398030D01*
Y26433970D01*
X48387000Y26860500D01*
X47752000D01*
G01X49911000Y27622500D02*
X49720500D01*
G01X51181000Y26860500D02*
Y27114500D01*
G54D18*
G01X44958000Y26987500D02*
X45041860D01*
G01X44874140D02*
X44958000D01*
G01D02*
Y27071360D01*
G01Y26903640D02*
Y26987500D01*
G01X45340000Y26414000D02*
X45423860D01*
G01X45256140D02*
X45340000D01*
G01D02*
Y26497860D01*
G01Y26330140D02*
Y26414000D01*
G01X45656500Y28194000D02*
Y26683500D01*
X46120000Y26220000D01*
G01Y26474000D02*
X46203860D01*
G01X46036140D02*
X46120000D01*
G01D02*
Y26557860D01*
G01Y26390140D02*
Y26474000D01*
G01X46243400Y28575000D02*
X46418500D01*
X46609000Y28765500D01*
G01X50101500Y25908000D02*
X49974500Y25781000D01*
X49085500D01*
X49022000Y25844500D01*
G01X49440000Y29136000D02*
X49536560D01*
G01X49343440D02*
X49440000D01*
G01D02*
Y29232560D01*
G01Y29039440D02*
Y29136000D01*
G01X50000000Y29316000D02*
X50096560D01*
G01X49903440D02*
X50000000D01*
G01D02*
Y29412560D01*
G01Y29219440D02*
Y29316000D01*
G01X54380000Y27359440D02*
Y27456000D01*
G01D02*
X54476560D01*
G01X54283440D02*
X54380000D01*
G01D02*
Y27552560D01*
M02*
