G04 ================== begin FILE IDENTIFICATION RECORD ==================*
G04 Layout Name:  C:/Users/user/Desktop/ex/EXXX/allegro/AVRUSB500_2.brd*
G04 Film Name:    Design*
G04 File Format:  Gerber RS274X*
G04 File Origin:  Cadence Allegro 17.2-P019*
G04 Origin Date:  Mon Jul 29 16:04:26 2019*
G04 *
G04 Layer:  VIA CLASS/BOTTOM*
G04 Layer:  VIA CLASS/TOP*
G04 Layer:  ROUTE KEEPOUT/ALL*
G04 Layer:  ROUTE KEEPIN/ALL*
G04 Layer:  REF DES/SILKSCREEN_TOP*
G04 Layer:  REF DES/SILKSCREEN_BOTTOM*
G04 Layer:  PIN/BOTTOM*
G04 Layer:  PIN/TOP*
G04 Layer:  PACKAGE KEEPIN/ALL*
G04 Layer:  PACKAGE GEOMETRY/PIN_NUMBER*
G04 Layer:  PACKAGE GEOMETRY/SILKSCREEN_TOP*
G04 Layer:  PACKAGE GEOMETRY/SILKSCREEN_BOTTOM*
G04 Layer:  PACKAGE GEOMETRY/SOLDERMASK_TOP*
G04 Layer:  PACKAGE GEOMETRY/SOLDERMASK_BOTTOM*
G04 Layer:  PACKAGE GEOMETRY/PASTEMASK_TOP*
G04 Layer:  PACKAGE GEOMETRY/PASTEMASK_BOTTOM*
G04 Layer:  ETCH/BOTTOM*
G04 Layer:  ETCH/TOP*
G04 Layer:  BOARD GEOMETRY/OUTLINE*
G04 Layer:  BOARD GEOMETRY/SILKSCREEN_TOP*
G04 Layer:  BOARD GEOMETRY/SILKSCREEN_BOTTOM*
G04 *
G04 Offset:    (0.0000 0.0000)*
G04 Mirror:    No*
G04 Mode:      Positive*
G04 Rotation:  0*
G04 FullContactRelief:  No*
G04 UndefLineWidth:     0.1000*
G04 ================== end FILE IDENTIFICATION RECORD ====================*
%FSLAX55Y55*MOMM*%
%IR0*IPPOS*OFA0.00000B0.00000*MIA0B0*SFA1.00000B1.00000*%
%ADD20O,1.8999X1.1999*%
%ADD22R,1.7201X.4*%
%ADD14C,.61*%
%ADD10C,.635*%
%ADD15O,.4569X1.778*%
%ADD18O,1.778X.4569*%
%ADD16R,.4569X1.778*%
%ADD17R,1.778X.4569*%
%ADD21R,1.7201X1.1001*%
%ADD12C,1.3211*%
%ADD11R,1.3211X1.3211*%
%ADD24C,1.5751*%
%ADD23R,1.5751X1.5751*%
%ADD13R,1.4986X2.8448*%
%ADD19R,2.8448X1.4986*%
%ADD25C,.203*%
%ADD26C,.254*%
%ADD27C,.381*%
%ADD28C,.1524*%
%ADD29C,.1*%
%ADD36C,.8104*%
%ADD31C,1.5216*%
%ADD32R,5.0804X5.0804*%
%ADD38C,1.5756*%
%ADD35R,.4544X.4544*%
%ADD33C,1.7756*%
%ADD30C,1.8296*%
%ADD37R,.5814X.4544*%
%ADD34R,.4544X.5814*%
G75*
%LPD*%
G75*
G36*
G01X44178510Y25700010D02*
Y29599990D01*
X54578490D01*
Y25700010D01*
X44178510D01*
G37*
%LPC*%
G75*
G36*
G01X45806220Y29134160D02*
Y29069900D01*
X45760780Y29115340D01*
Y29176450D01*
G02X45817050Y29187280I22720J33550D01*
G02X45792110Y29170410I-33546J22724D01*
G03X45787090Y29153290I2160J-9929D01*
G01X45806220Y29134160D01*
G37*
G36*
G01X46237660Y28958740D02*
G02X46178680Y28938810I-32859J6D01*
G01X46218590Y28978720D01*
X46237660D01*
Y28958740D01*
G37*
G36*
G01X46717660D02*
G02X46651940I-32860J5D01*
G01Y28978720D01*
X46717660D01*
Y28958740D01*
G37*
G36*
G01X46637660D02*
G02X46571940I-32860J5D01*
G01Y28978720D01*
X46637660D01*
Y28958740D01*
G37*
G36*
G01X46557660D02*
G02X46491940I-32860J5D01*
G01Y28978720D01*
X46557660D01*
Y28958740D01*
G37*
G36*
G01X46477660D02*
G02X46411940I-32860J5D01*
G01Y28978720D01*
X46477660D01*
Y28958740D01*
G37*
G36*
G01X46397660D02*
G02X46331940I-32860J5D01*
G01Y28978720D01*
X46397660D01*
Y28958740D01*
G37*
G36*
G01X46307640Y28925880D02*
X46261960D01*
G02X46251940Y28935900I0J10020D01*
G01Y28978720D01*
X46317660D01*
Y28935900D01*
G02X46307640Y28925880I-10020J0D01*
G37*
G36*
G01X46895660Y28847140D02*
X46763540D01*
G02Y28912860I5J32860D01*
G01X46895660D01*
G02Y28847140I-5J-32860D01*
G37*
G36*
G01X46003710Y28912860D02*
G02X45964590Y28842520I-23704J-32865D01*
G01X45964340Y28842630D01*
G02X45956300Y28847140I15673J37362D01*
G01X45956290D01*
G02X46002720Y28913550I23709J32860D01*
G02X46003700Y28912860I-22833J-33470D01*
G01X46003710D01*
G37*
G36*
G01X49476630Y28962870D02*
G02X49398200Y28960320I-36627J-80871D01*
G01X49398630Y28960550D01*
G02X49476630Y28962870I41371J-78551D01*
G37*
G36*
G01X46895660Y28767140D02*
X46763540D01*
G02Y28832860I5J32860D01*
G01X46895660D01*
G02X46919400Y28822720I-1J-32863D01*
G01X46934490D01*
X46967280Y28855510D01*
Y28978720D01*
X47012720D01*
Y28836690D01*
X46953310Y28777280D01*
X46919400D01*
G02X46895660Y28767140I-23741J22723D01*
G37*
G36*
G01X46084050Y28838690D02*
G02X46048200Y28767210I-12049J-38687D01*
G02X46077240Y28840180I23803J32791D01*
G01X46079720Y28839860D01*
X46080500Y28840640D01*
G03X46084050Y28838690I6569J7752D01*
G37*
G36*
G01X46895660Y28684440D02*
X46763540D01*
G02Y28755560I5J35560D01*
G01X46895660D01*
G02Y28684440I-5J-35560D01*
G37*
G36*
G01Y28607140D02*
X46763540D01*
G02Y28672860I5J32860D01*
G01X46895660D01*
G02Y28607140I-5J-32860D01*
G37*
G36*
G01X46612060Y28540570D02*
X46547800D01*
X46231090Y28857280D01*
X46097140D01*
X46142580Y28902720D01*
X46249910D01*
X46612060Y28540570D01*
G37*
G36*
G01X46485070D02*
X46420800D01*
X46264090Y28697280D01*
X46109830D01*
X46064970Y28742140D01*
G02X46062020Y28748730I7191J7174D01*
G02X46069800Y28742720I-15976J-28722D01*
G01X46282910D01*
X46485070Y28540570D01*
G37*
G36*
G01X49398630Y28706550D02*
G02X49361450Y28669370I41370J-78550D01*
G01X49361680Y28669800D01*
G02X49398200Y28706320I78320J-41800D01*
G01X49398630Y28706550D01*
G37*
G36*
G01X46262640Y28539340D02*
G02X46214330Y28546760I-19248J35660D01*
G01Y28546770D01*
G02X46272470I29070J28230D01*
G01Y28534640D01*
X46265970Y28541140D01*
X46262640Y28539340D01*
G37*
G36*
G01X46666000Y28407820D02*
G02X46620580Y28453240I-5240J40180D01*
G01X46620900Y28455720D01*
X46596580Y28480050D01*
Y28482430D01*
X46639400D01*
G02X46690700Y28475300I21360J-34431D01*
G02X46666000Y28407820I-29941J-27301D01*
G37*
G36*
G01X46618420Y28407220D02*
X46554140D01*
X46478930Y28482430D01*
X46543210D01*
X46618420Y28407220D01*
G37*
G36*
G01X46895660Y28367040D02*
X46763540D01*
G02Y28432760I5J32860D01*
G01X46896380D01*
X46905790Y28442170D01*
X46900540Y28447420D01*
X46898210Y28447230D01*
G02X46895660Y28447140I-2433J32775D01*
G01X46763540D01*
G02Y28512860I5J32860D01*
G01X46896380D01*
X46901980Y28518460D01*
G03X46898390Y28527140I-3588J3598D01*
G01X46740700D01*
G02X46731230Y28533870I0J10028D01*
G01X46730050Y28537280D01*
X46705890D01*
X46586280Y28656890D01*
Y28731950D01*
G02X46631720I22720J33550D01*
G01Y28675710D01*
X46718400Y28589030D01*
G03X46733190Y28589480I7183J7184D01*
G02X46740690Y28592860I7503J-6638D01*
G01X46918500D01*
G02X46928520Y28582840I0J-10020D01*
G01Y28569530D01*
G03X46945860Y28562340I10160J-2D01*
G01X47094280Y28710760D01*
Y28771100D01*
X47301900Y28978720D01*
X48042090D01*
X48151030Y28869780D01*
X48136670D01*
Y28750260D01*
G02X48126650Y28740240I-10020J0D01*
G01X47999090D01*
G03X47995500Y28731570I4J-5080D01*
G01X48002350Y28724720D01*
X48296100D01*
X48341540Y28679280D01*
X47983530D01*
X47793030Y28869780D01*
X47709950D01*
Y28750260D01*
G02X47699930Y28740240I-10020J0D01*
G01X47550070D01*
G02X47540050Y28750260I0J10020D01*
G01Y28869780D01*
X47443910D01*
X46985440Y28411310D01*
X46939190D01*
X46928570Y28400690D01*
X46928500Y28398700D01*
G02X46895660Y28367040I-32842J1204D01*
G37*
G36*
G01X49515210Y28326820D02*
G02X49398630Y28295450I-75206J47182D01*
G01X49398200Y28295680D01*
G02X49515210Y28326820I41805J78321D01*
G37*
G36*
G01X47720490Y28257640D02*
X47656230D01*
X47633650Y28280220D01*
X47571060D01*
X47554100Y28297180D01*
X46919400D01*
G02X46895660Y28287040I-23741J22723D01*
G01X46763540D01*
G02Y28352760I5J32860D01*
G01X46895660D01*
G02X46919400Y28342620I-1J-32863D01*
G01X46997990D01*
X46999090Y28343720D01*
X47107590D01*
X47234590Y28470720D01*
X47603550D01*
Y28590240D01*
G02X47613570Y28600260I10020J0D01*
G01X47763430D01*
G02X47773450Y28590240I0J-10020D01*
G01Y28303080D01*
X48030270D01*
Y28590240D01*
G02X48040290Y28600260I10020J0D01*
G01X48190150D01*
G02X48200170Y28590240I0J-10020D01*
G01Y28470720D01*
X48224960D01*
X48288460Y28407220D01*
X48613600D01*
X48743200Y28277620D01*
X48226250D01*
X48206270Y28257640D01*
X48101480D01*
X48078900Y28280220D01*
X47722440D01*
G03X47715250Y28262880I-2J-10160D01*
G01X47720490Y28257640D01*
G37*
G36*
G01X46698520Y28271120D02*
G02X46717560Y28243800I-13725J-29860D01*
G01X46680220Y28281140D01*
X46677740Y28280820D01*
G02X46659400Y28282660I-5231J40179D01*
G03X46659220Y28282720I-3303J-9609D01*
G02X46632060Y28323510I13281J38280D01*
G02X46696110Y28353930I40441J-2511D01*
G03X46696190Y28353880I2732J4283D01*
G02X46696700Y28288500I-23689J-32877D01*
G03X46698520Y28271120I6065J-8150D01*
G37*
G36*
G01X50078760Y28211220D02*
X49921240D01*
G02X49911220Y28221240I5J10025D01*
G01Y28378760D01*
G02X49921240Y28388780I10025J-5D01*
G01X50078760D01*
G02X50088780Y28378760I-5J-10025D01*
G01Y28221240D01*
G02X50078760Y28211220I-10025J5D01*
G37*
G36*
G01X45685570Y28165770D02*
G02X45616060Y28191530I-29066J28230D01*
G01X45616020Y28192180D01*
G02X45685570Y28165770I40480J1820D01*
G37*
G36*
G01X47190640Y28152480D02*
X47126380D01*
X47107580Y28171280D01*
X46790090D01*
X46763450Y28197920D01*
X47145200D01*
X47190640Y28152480D01*
G37*
G36*
G01X45791110D02*
X45760780Y28122150D01*
Y28186410D01*
X45772290Y28197920D01*
X45806220D01*
Y28152480D01*
X45791110D01*
G37*
G36*
G01X48088620Y28094780D02*
G02X48035950Y28153220I-19120J35723D01*
G02X48088790Y28094870I33550J-22718D01*
G03X48088620Y28094780I2293J-4536D01*
G37*
G36*
G01X49518760Y28031220D02*
X49361240D01*
G02X49351220Y28041240I5J10025D01*
G01Y28198760D01*
G02X49361240Y28208780I10025J-5D01*
G01X49518760D01*
G02X49528780Y28198760I-5J-10025D01*
G01Y28041240D01*
G02X49518760Y28031220I-10025J5D01*
G37*
G36*
G01X49020270Y28000550D02*
X48358570D01*
X48313130Y28045990D01*
X48974830D01*
X49020270Y28000550D01*
G37*
G36*
G01X45685570Y28046940D02*
X45627430Y27988790D01*
Y28053070D01*
X45685570Y28111200D01*
Y28046940D01*
G37*
G36*
G01X46227520Y27980780D02*
X46109650D01*
X46155090Y28026220D01*
X46227520D01*
Y27980780D01*
G37*
G36*
G01X49987720Y27917280D02*
X49923460D01*
X49968900Y27962720D01*
X50033160D01*
X49987720Y27917280D01*
G37*
G36*
G01X49810530Y27726780D02*
X49765090D01*
Y27758910D01*
X49778400Y27772220D01*
X49842660D01*
X49810530Y27740090D01*
Y27726780D01*
G37*
G36*
G01X49660670D02*
X49490770D01*
Y27764740D01*
G02X49494120Y27772220I10026J0D01*
G01X49657320D01*
G02X49660670Y27764740I-6676J-7480D01*
G01Y27726780D01*
G37*
G36*
G01X49233950D02*
X49064050D01*
Y27764740D01*
G02X49067400Y27772220I10026J0D01*
G01X49230600D01*
G02X49233950Y27764740I-6676J-7480D01*
G01Y27726780D01*
G37*
G36*
G01X51351020Y27738610D02*
Y27674350D01*
X51305580Y27719790D01*
Y27772220D01*
X51317410D01*
X51351020Y27738610D01*
G37*
G36*
G01X51431020Y27658610D02*
Y27594340D01*
X51385580Y27639790D01*
Y27704050D01*
X51431020Y27658610D01*
G37*
G36*
G01X49748030Y27592770D02*
G02X49686950Y27599780I-27530J29731D01*
G02Y27645220I33550J22720D01*
G02X49748030Y27652230I33550J-22721D01*
G03X49748080Y27652180I7204J7154D01*
G02X49754050Y27645220I-27572J-29690D01*
G01X49810530D01*
Y27599780D01*
X49754050D01*
G02X49748080Y27592820I-33542J22730D01*
G03X49748030Y27592770I7154J-7204D01*
G37*
G36*
G01X48545000Y27462480D02*
X48475000D01*
G02Y27602520I0J70020D01*
G01X48545000D01*
G02Y27462480I0J-70020D01*
G37*
G36*
G01X48175000D02*
X48105000D01*
G02Y27602520I0J70020D01*
G01X48175000D01*
G02Y27462480I0J-70020D01*
G37*
G36*
G01X51561400Y27536020D02*
G02X51545580Y27458460I601J-40516D01*
G02X51561400Y27536020I16421J37044D01*
G37*
G36*
G01X47306060Y27283920D02*
X47173940D01*
G02X47163920Y27293940I5J10025D01*
G01Y27426060D01*
G02X47173940Y27436080I10025J-5D01*
G01X47306060D01*
G02X47316080Y27426060I-5J-10025D01*
G01Y27293940D01*
G02X47306060Y27283920I-10025J5D01*
G37*
G36*
G01X51704510Y27140570D02*
G02X51673490I-15510J37430D01*
G01X51673340Y27140630D01*
G02X51665300Y27145140I15673J37362D01*
G01X51665290D01*
G02Y27210860I23710J32860D01*
G01X51665300D01*
G02X51712700I23700J-32860D01*
G01X51712710D01*
G02Y27145140I-23710J-32860D01*
G01X51712700D01*
G02X51704660Y27140630I-23713J32852D01*
G01X51704510Y27140570D01*
G37*
G36*
G01X45564060Y27271480D02*
G02X45511940I-26060J-71480D01*
G01X45512090Y27271540D01*
G02X45563910I25910J-71540D01*
G01X45564060Y27271480D01*
G37*
G36*
G01X54338630Y27280550D02*
G02X54301450Y27243370I41370J-78550D01*
G01X54301680Y27243800D01*
G02X54338200Y27280320I78320J-41800D01*
G01X54338630Y27280550D01*
G37*
G36*
G01Y27026550D02*
G02X54301450Y26989370I41370J-78550D01*
G01X54301680Y26989800D01*
G02X54338200Y27026320I78320J-41800D01*
G01X54338630Y27026550D01*
G37*
G36*
G01X48127480Y26837780D02*
X47932480D01*
Y26883220D01*
X48172920D01*
X48127480Y26837780D01*
G37*
G36*
G01X48554650Y26724980D02*
X48490390D01*
X48413980Y26801390D01*
Y26845020D01*
G02X48416130Y26851210I10018J-11D01*
G03X48416800Y26862830I-7979J6289D01*
G01X48554650Y26724980D01*
G37*
G36*
G01X45024060Y26657420D02*
X44891940D01*
G02X44881920Y26667440I5J10025D01*
G01Y26799560D01*
G02X44891940Y26809580I10025J-5D01*
G01X45024060D01*
G02X45034080Y26799560I-5J-10025D01*
G01Y26667440D01*
G02X45024060Y26657420I-10025J5D01*
G37*
G36*
G01X48714520Y26565110D02*
Y26500850D01*
X48704500Y26510870D01*
Y26575130D01*
X48714520Y26565110D01*
G37*
G36*
G01X48545000Y26437480D02*
X48475000D01*
G02Y26577520I0J70020D01*
G01X48545000D01*
G02Y26437480I0J-70020D01*
G37*
G36*
G01X48175000D02*
X48105000D01*
G02Y26577520I0J70020D01*
G01X48175000D01*
G02Y26437480I0J-70020D01*
G37*
G36*
G01X54458760Y26351220D02*
X54301240D01*
G02X54291220Y26361240I5J10025D01*
G01Y26518760D01*
G02X54301240Y26528780I10025J-5D01*
G01X54458760D01*
G02X54468780Y26518760I-5J-10025D01*
G01Y26361240D01*
G02X54458760Y26351220I-10025J5D01*
G37*
G36*
G01X48744680Y26283760D02*
G02X48670950Y26311720I-40180J5239D01*
G02X48744680Y26283760I33550J-22721D01*
G37*
G36*
G01X46186060Y26143920D02*
X46053940D01*
G02X46043920Y26153940I5J10025D01*
G01Y26286060D01*
G02X46053940Y26296080I10025J-5D01*
G01X46186060D01*
G02X46196080Y26286060I-5J-10025D01*
G01Y26153940D01*
G02X46186060Y26143920I-10025J5D01*
G37*
G36*
G01X45406060Y26083920D02*
X45273940D01*
G02X45263920Y26093940I5J10025D01*
G01Y26226060D01*
G02X45273940Y26236080I10025J-5D01*
G01X45406060D01*
G02X45416080Y26226060I-5J-10025D01*
G01Y26093940D01*
G02X45406060Y26083920I-10025J5D01*
G37*
G36*
G01X50061060Y25910470D02*
G02Y25905530I40440J-2470D01*
G01X50060940Y25907450D01*
X50060390Y25908000D01*
X50060940Y25908550D01*
X50061060Y25910470D01*
G37*
G36*
G01X49992890Y25758280D02*
X49203090D01*
X49151300Y25810070D01*
X49215560D01*
X49221910Y25803720D01*
X50038330D01*
X49992890Y25758280D01*
G37*
G54D36*
X45538000Y27931500D03*
X49911000Y27622500D03*
X51181000Y27114500D03*
Y26860500D03*
X47752000D03*
X49022000Y25844500D03*
G54D31*
X52302000Y29240000D03*
X51540000D03*
X47557500Y27360000D03*
X46300000Y27200000D03*
G54D32*
X54240000Y29280000D03*
X44450000Y29273500D03*
X54229000Y25971500D03*
X44450000D03*
G54D38*
X44958000Y26987500D03*
X46120000Y26474000D03*
X45340000Y26414000D03*
G54D35*
X51408300Y27940000D03*
X51328300D03*
X45538000Y27749500D03*
G54D33*
X50000000Y29062000D03*
Y28808000D03*
Y28554000D03*
X54380000Y26694000D03*
G54D30*
X50000000Y29316000D03*
X49440000Y29136000D03*
X54380000Y27456000D03*
G54D37*
X45656500Y27749500D03*
G54D34*
X45783500Y28399900D03*
X51181000Y27018000D03*
%LPD*%
G75*
G36*
G01X44196000Y25717500D02*
Y26225500D01*
X44704000D01*
Y25717500D01*
X44196000D01*
G37*
G36*
G01Y29019500D02*
Y29527500D01*
X44704000D01*
Y29019500D01*
X44196000D01*
G37*
G36*
G01X53975000Y25717500D02*
Y26225500D01*
X54483000D01*
Y25717500D01*
X53975000D01*
G37*
G36*
G01X53986000Y29026000D02*
Y29534000D01*
X54494000D01*
Y29026000D01*
X53986000D01*
G37*
G54D10*
X44450000Y25971500D03*
D03*
Y29273500D03*
D03*
X54229000Y25971500D03*
D03*
X54240000Y29280000D03*
D03*
G54D11*
X44958000Y26733500D03*
D03*
X45340000Y26160000D03*
D03*
X46120000Y26220000D03*
D03*
X47240000Y27360000D03*
D03*
G54D20*
X48140000Y26507500D03*
D03*
X48510000D03*
D03*
X48140000Y27532500D03*
D03*
X48510000D03*
D03*
G54D12*
X44958000Y26987500D03*
D03*
X45340000Y26414000D03*
D03*
X45538000Y27200000D03*
D03*
X46120000Y26474000D03*
D03*
X46300000Y27200000D03*
D03*
X47557500Y27360000D03*
D03*
X51540000Y29240000D03*
D03*
X52302000D03*
D03*
G54D21*
X48510000Y26790000D03*
Y27250000D03*
G54D13*
X44323000Y27432000D03*
X44749720D03*
X44386500Y28321000D03*
X44813220D03*
X44894500Y29146500D03*
X45321220D03*
X47752000Y27940000D03*
X47625000Y28892500D03*
X48051720D03*
X47688500Y28448000D03*
X47625000Y29337000D03*
X48051720D03*
X48323500Y25971500D03*
X48750220D03*
X48178720Y27940000D03*
X48115220Y28448000D03*
X49149000Y26733500D03*
X49575720D03*
X49403000Y26098500D03*
X49149000Y27178000D03*
X49575720D03*
X49149000Y27622500D03*
X49575720D03*
X49829720Y26098500D03*
X50546000Y28575000D03*
X50972720D03*
X50482500Y29337000D03*
X50909220D03*
X52895500Y26352500D03*
X53322220D03*
X52895500Y27305000D03*
X53322220D03*
X52895500Y26860500D03*
X53322220D03*
X52895500Y27749500D03*
X53322220D03*
X53040280Y28448000D03*
X53467000D03*
G54D22*
X48510000Y27085000D03*
Y27150000D03*
Y26890000D03*
Y26955000D03*
Y27020000D03*
G54D23*
X49440000Y28120000D03*
D03*
X50000000Y28300000D03*
D03*
X54380000Y26440000D03*
D03*
G54D14*
X45656500Y28194000D03*
D03*
X45538000Y27931500D03*
D03*
X46072000Y28800000D03*
D03*
X46243400Y28575000D03*
D03*
X45980000Y28880000D03*
D03*
X45783500Y29210000D03*
D03*
X46672500Y28321000D03*
D03*
X46609000Y28765500D03*
D03*
X46660760Y28448000D03*
D03*
X47752000Y26860500D03*
D03*
X48704500Y26289000D03*
D03*
X48069500Y28130500D03*
D03*
X49022000Y25844500D03*
D03*
X50101500Y25908000D03*
D03*
X49911000Y27622500D03*
D03*
X49720500D03*
D03*
X51689000Y27178000D03*
D03*
X51181000Y26860500D03*
D03*
Y27114500D03*
D03*
X51562000Y27495500D03*
D03*
G54D24*
X49440000Y28882000D03*
D03*
Y28628000D03*
D03*
Y28374000D03*
D03*
Y29136000D03*
D03*
X50000000Y28808000D03*
D03*
Y28554000D03*
D03*
Y29316000D03*
D03*
Y29062000D03*
D03*
X54380000Y26694000D03*
D03*
Y27456000D03*
D03*
Y27202000D03*
D03*
Y26948000D03*
D03*
G54D15*
X46124800Y28175200D03*
X46284800D03*
X46364800D03*
X46444800D03*
Y29024800D03*
X46364800D03*
X46204800D03*
X46124800D03*
X46524800Y28175200D03*
X46604800D03*
X46684800D03*
Y29024800D03*
X46604800D03*
X46524800D03*
X51008300Y26473200D03*
Y27322800D03*
X51168300Y26473200D03*
X51248300D03*
X51328300D03*
X51408300D03*
X51488300D03*
X51568300D03*
Y27322800D03*
X51488300D03*
X51408300D03*
X51328300D03*
X51248300D03*
X51088300D03*
G54D25*
G01X45243700Y26860500D02*
G02I-285700J0D01*
G01X45625700Y26287000D02*
G02I-285700J0D01*
G01X46490500Y26946000D02*
X45347500D01*
G01D02*
Y27454000D01*
G01D02*
X46490500D01*
G01X46405700Y26347000D02*
G02I-285700J0D01*
G01X46490500Y27454000D02*
Y26946000D01*
G01X47081300Y27360000D02*
G02X47398700Y27677500I317400J100D01*
G02Y27042500I0J-317500D01*
G02X47081300Y27360000I0J317400D01*
G01X49313000Y27980300D02*
Y29275700D01*
G01X49567000Y27980300D02*
X49313000D01*
G01Y29275700D02*
X49567000D01*
G01Y28120000D02*
Y27980300D01*
G01Y28374000D02*
Y28120000D01*
G01X49873000Y28160300D02*
Y29455700D01*
G01X50127000Y28160300D02*
X49873000D01*
G01X50127000Y28300000D02*
Y28160300D01*
G01X49567000Y28628000D02*
Y28374000D01*
G01Y28882000D02*
Y28628000D01*
G01Y29136000D02*
Y28882000D01*
G01X50127000Y28554000D02*
Y28300000D01*
G01Y28808000D02*
Y28554000D01*
G01Y29062000D02*
Y28808000D01*
G01X49567000Y29275700D02*
Y29136000D01*
G01X49873000Y29455700D02*
X50127000D01*
G01Y29316000D02*
Y29062000D01*
G01Y29455700D02*
Y29316000D01*
G01X52492500Y28986000D02*
X51349500D01*
G01D02*
Y29494000D01*
G01D02*
X52492500D01*
G01D02*
Y28986000D01*
G01X54253000Y26300300D02*
Y27595700D01*
G01X54507000Y26300300D02*
X54253000D01*
G01X54507000Y26440000D02*
Y26300300D01*
G01Y26694000D02*
Y26440000D01*
G01Y26948000D02*
Y26694000D01*
G01Y27202000D02*
Y26948000D01*
G01Y27456000D02*
Y27202000D01*
G01X54253000Y27595700D02*
X54507000D01*
G01D02*
Y27456000D01*
G54D16*
X46204800Y28175200D03*
X46284800Y29024800D03*
X51088300Y26473200D03*
X51168300Y27322800D03*
G54D26*
G01X44749720Y27432000D02*
X45306000D01*
X45538000Y27200000D01*
G01X44813220Y28321000D02*
Y27774900D01*
X44838620Y27749500D01*
X45910500D01*
X46204800Y28043800D01*
G01X45538000Y27200000D02*
Y27931500D01*
G01D02*
X45781700Y28175200D01*
X46124800D01*
G01X45321220Y29146500D02*
X45761750D01*
X45980000Y28928250D01*
Y28880000D01*
G01X46204800Y28043800D02*
Y27295200D01*
X46300000Y27200000D01*
G01X47557500Y27360000D02*
X46914000Y28003500D01*
X45847000D01*
X45783500Y28067000D01*
Y29210000D01*
G01X46204800Y28175200D02*
Y28043800D01*
G01X45980000Y28319900D02*
X46086700D01*
G01X45873300D02*
X45980000D01*
G01Y28279250D02*
Y28319900D01*
G01X45912700Y28949300D02*
X46055400D01*
G01X45980000Y28720000D02*
X46273500D01*
X46672500Y28321000D01*
G01X51689000Y27178000D02*
Y27749500D01*
X51498500Y27940000D01*
X49048690D01*
X48229100Y28759590D01*
X48229090D01*
X48032680Y28956000D01*
X46228000D01*
X46072000Y28800000D01*
G01X45980000D02*
X46072000D01*
G01X46660760Y28448000D02*
X46619300Y28489460D01*
Y28501200D01*
X46240500Y28880000D01*
X45980000D01*
G01X45783500Y29210000D02*
X46964600D01*
X46990000Y29184600D01*
Y28846100D01*
X46943900Y28800000D01*
X46829600D01*
G01X46736000Y26733500D02*
Y26856000D01*
X47240000Y27360000D01*
G01X51562000Y27495500D02*
X51308000Y27749500D01*
X47561490D01*
X47116990Y28194000D01*
X46799500D01*
X46672500Y28321000D01*
G01X46684800Y28175200D02*
X47416470D01*
X47651670Y27940000D01*
X47752000D01*
G01X46829600Y28720000D02*
X46936300D01*
G01X46722900D02*
X46829600D01*
G01Y28480000D02*
X46895650D01*
X47117000Y28701350D01*
Y28761690D01*
X47625000Y29269690D01*
G01X46660760Y28448000D02*
X46724260Y28384500D01*
X47561500D01*
X47815500Y28130500D01*
X48069500D01*
G01X46829600Y28560000D02*
X46715300D01*
X46609000Y28666300D01*
Y28765500D01*
G01X47688500Y28448000D02*
X47244000D01*
X47117000Y28321000D01*
X47008500D01*
X47007400Y28319900D01*
X46895650D01*
G01X49440000Y28374000D02*
X49366340Y28300340D01*
X48216840D01*
X48196860Y28280360D01*
X47603040D01*
X47563500Y28319900D01*
X47140000Y28319890D01*
X46895650Y28319900D01*
G01D02*
X46829600D01*
G01X47625000Y28892500D02*
X47434500D01*
X46976030Y28434030D01*
X46929780D01*
X46895650Y28399900D01*
X46829600D01*
G01X47371000Y26842720D02*
X47678320D01*
X47696100Y26860500D01*
X47752000D01*
G01X48704500Y26289000D02*
X48813530Y26398030D01*
Y26433970D01*
X48387000Y26860500D01*
X47752000D01*
G01X49440000Y28628000D02*
X49366000Y28702000D01*
X47992940D01*
X47802440Y28892500D01*
X47625000D01*
G01Y29337000D02*
Y29269690D01*
G01D02*
X47748190Y29146500D01*
X49175500D01*
X49440000Y28882000D01*
G01X48704500Y26289000D02*
X49212500Y25781000D01*
X51006570D01*
X51625500Y26399930D01*
Y26546470D01*
X51311470Y26860500D01*
X51181000D01*
G01X48704500Y26289000D02*
X48573690D01*
X48323500Y26038810D01*
Y25971500D01*
G01X48510000Y26955000D02*
X48621410D01*
G01D02*
Y26947400D01*
G01D02*
X49403000Y26165810D01*
Y26098500D01*
G01X49149000Y26733500D02*
X48966500D01*
X48680000Y27020000D01*
X48510000D01*
G01Y27085000D02*
X48621410D01*
X48626410Y27080000D01*
X48940000D01*
X49038000Y27178000D01*
X49149000D01*
G01X48069500Y28130500D02*
X48125400D01*
X48178720Y28077180D01*
Y28007310D01*
G01D02*
Y27940000D01*
G01X49440000Y28120000D02*
X49343270Y28023270D01*
X48194680D01*
X48178720Y28007310D01*
G01X48115220Y28448000D02*
X48215550D01*
X48279050Y28384500D01*
X49307010D01*
X49397970Y28475460D01*
X49452730D01*
X49488770Y28511500D01*
X49853340D01*
X49895840Y28554000D01*
X50000000D01*
G01X48051720Y28892500D02*
X48260000D01*
X48387000Y28765500D01*
X49391230D01*
X49391590Y28765140D01*
X49488410D01*
X49488770Y28765500D01*
X49853340D01*
X49895840Y28808000D01*
X50000000D01*
G01X48051720Y29337000D02*
X49593500D01*
X49868500Y29062000D01*
X50000000D01*
G01X49575720Y27178000D02*
Y27345640D01*
X49298860Y27622500D01*
X49149000D01*
G01X49440000Y28120000D02*
X49820000D01*
X50000000Y28300000D01*
G01X49575720Y27178000D02*
X49911000D01*
X50391100Y26697900D01*
X50863500D01*
G01X49575720Y26733500D02*
X50292000D01*
X50407600Y26617900D01*
X50863500D01*
G01Y26778000D02*
X50507900D01*
X50488900Y26797000D01*
X50482500D01*
X49787810Y27491690D01*
Y27749500D01*
X50546000Y28507690D01*
Y28575000D01*
G01X49911000Y27622500D02*
Y27465000D01*
X50518000Y26858000D01*
X50863500D01*
G01X49911000Y27622500D02*
X49720500D01*
G01D02*
X49575720D01*
G01X50967650Y26473200D02*
X51008300D01*
G01D02*
Y26579900D01*
G01Y26366500D02*
Y26473200D01*
G01X50796200Y27247300D02*
X50938900D01*
G01X50909220Y29337000D02*
X51351540D01*
X51448540Y29240000D01*
X51540000D01*
G01X51713100Y26617900D02*
X51819800D01*
G01X51606400D02*
X51713100D01*
G01Y26577250D02*
Y26617900D01*
G01X51408300Y26473200D02*
Y26579900D01*
G01Y26366500D02*
Y26473200D01*
G01X51248300Y27322800D02*
Y27429500D01*
G01Y27216100D02*
Y27322800D01*
G01X51088300D02*
Y27429500D01*
G01Y27216100D02*
Y27322800D01*
G01X51328300D02*
Y28858910D01*
X51540000Y29070610D01*
Y29240000D01*
G01X52895500Y27749500D02*
X52795170D01*
X51983670Y26938000D01*
X51713100D01*
G01X51562000Y27495500D02*
X51568300Y27489200D01*
Y27322800D01*
G01X52302000Y29240000D02*
X51408300Y28346300D01*
Y27322800D01*
G01X51168300D02*
Y27183100D01*
X51181000Y27170400D01*
Y27114500D01*
G01Y26860500D02*
Y27114500D01*
G01X52895500Y27305000D02*
X52725000D01*
X52278000Y26858000D01*
X51713100D01*
G01X52895500Y26860500D02*
X52640500D01*
X52386500Y26606500D01*
X52133500D01*
X51962000Y26778000D01*
X51713100D01*
G01X52895500Y26352500D02*
X52197000D01*
X51851600Y26697900D01*
X51713100D01*
G01X52302000Y29240000D02*
X52648640D01*
X52664360Y29255720D01*
X52832000D01*
G01X53322220Y26352500D02*
X54292500D01*
X54380000Y26440000D01*
G01X53322220Y26860500D02*
X53575500D01*
X53742000Y26694000D01*
X54380000D01*
G01X53322220Y27305000D02*
X53491000D01*
X53745000Y27051000D01*
X54277000D01*
X54380000Y26948000D01*
G01X53322220Y27816810D02*
X53770530Y27368500D01*
X54213500D01*
X54380000Y27202000D01*
G01X53322220Y27816810D02*
Y27749500D01*
G01X53040280Y28448000D02*
Y28098750D01*
X53322220Y27816810D01*
G54D17*
X45980000Y28880000D03*
X46829600Y28560000D03*
X50863500Y27178000D03*
X51713100Y26858000D03*
G54D27*
G01X44958000Y26733500D02*
Y26542000D01*
X45340000Y26160000D01*
G01X44958000Y26987500D02*
X45041860D01*
G01X44874140D02*
X44958000D01*
G01D02*
Y27071360D01*
G01Y26903640D02*
Y26987500D01*
G01X44323000Y27432000D02*
X44415730D01*
G01X44230270D02*
X44323000D01*
G01D02*
Y27592040D01*
G01Y27271960D02*
Y27432000D01*
G01X44958000Y26987500D02*
X45041860D01*
G01X44874140D02*
X44958000D01*
G01D02*
Y27071360D01*
G01Y26903640D02*
Y26987500D01*
G01X44386500Y28160960D02*
Y28321000D01*
G01D02*
X44479230D01*
G01X44293770D02*
X44386500D01*
G01D02*
Y28481040D01*
G01X44894500Y29146500D02*
Y28956000D01*
X45656500Y28194000D01*
G01X45340000Y26414000D02*
X45423860D01*
G01X45256140D02*
X45340000D01*
G01D02*
Y26497860D01*
G01Y26330140D02*
Y26414000D01*
G01D02*
X45423860D01*
G01X45256140D02*
X45340000D01*
G01D02*
Y26497860D01*
G01Y26330140D02*
Y26414000D01*
G01Y26160000D02*
X45465000Y26035000D01*
X45593000D01*
X45778000Y26220000D01*
X46120000D01*
G01X45656500Y28194000D02*
Y26683500D01*
X46120000Y26220000D01*
G01X45980000Y28399900D02*
X45686560D01*
X45656500Y28369840D01*
Y28194000D01*
G01X46120000Y26474000D02*
X46203860D01*
G01X46036140D02*
X46120000D01*
G01D02*
Y26557860D01*
G01Y26390140D02*
Y26474000D01*
G01D02*
X46203860D01*
G01X46036140D02*
X46120000D01*
G01D02*
Y26557860D01*
G01Y26390140D02*
Y26474000D01*
G01Y26220000D02*
X46206780Y26306780D01*
X46736000D01*
G01X45980000Y28399900D02*
X46205300D01*
X46243400Y28438000D01*
Y28575000D01*
G01D02*
X46418500D01*
X46609000Y28765500D01*
G01X48750220Y25971500D02*
X48641000D01*
X48450500Y25781000D01*
X47329090D01*
X46803310Y26306780D01*
X46736000D01*
G01X47210960Y26416000D02*
X47371000D01*
G01D02*
Y26508730D01*
G01Y26323270D02*
Y26416000D01*
G01X47928590Y26680000D02*
X47702310D01*
G01D02*
X47438310Y26416000D01*
X47371000D01*
G01X48510000Y27150000D02*
X48398590D01*
X47928590Y26680000D01*
G01X49022000Y25844500D02*
X48895000Y25971500D01*
X48750220D01*
G01X50101500Y25908000D02*
X49974500Y25781000D01*
X49085500D01*
X49022000Y25844500D01*
G01X49440000Y29136000D02*
X49536560D01*
G01X49343440D02*
X49440000D01*
G01D02*
Y29232560D01*
G01Y29039440D02*
Y29136000D01*
G01D02*
X49536560D01*
G01X49343440D02*
X49440000D01*
G01D02*
Y29232560D01*
G01Y29039440D02*
Y29136000D01*
G01X49829720Y26098500D02*
X49911000D01*
X50101500Y25908000D01*
G01X49829720Y26098500D02*
Y26165810D01*
X49927110Y26263200D01*
X51238960D01*
X51328300Y26352540D01*
Y26473200D01*
G01X50000000Y29316000D02*
X50096560D01*
G01X49903440D02*
X50000000D01*
G01D02*
Y29412560D01*
G01Y29219440D02*
Y29316000D01*
G01D02*
X50096560D01*
G01X49903440D02*
X50000000D01*
G01D02*
Y29412560D01*
G01Y29219440D02*
Y29316000D01*
G01X51328300Y26473200D02*
Y26586210D01*
X50976510Y26938000D01*
X50863500D01*
G01Y27018000D02*
X51297800D01*
X51488300Y27208500D01*
Y27322800D01*
G01X50863500Y27018000D02*
Y26938000D01*
G01X50972720Y28575000D02*
X51065450D01*
G01X50879990D02*
X50972720D01*
G01D02*
Y28735040D01*
G01Y28414960D02*
Y28575000D01*
G01X50482500Y29337000D02*
X50575230D01*
G01X50389770D02*
X50482500D01*
G01D02*
Y29497040D01*
G01Y29176960D02*
Y29337000D01*
G01X52832000Y28829000D02*
X52992040D01*
G01X52671960D02*
X52832000D01*
G01D02*
Y28921730D01*
G01Y28736270D02*
Y28829000D01*
G01X53467000Y28448000D02*
X53559730D01*
G01X53374270D02*
X53467000D01*
G01D02*
Y28608040D01*
G01Y28287960D02*
Y28448000D01*
G01X54380000Y27359440D02*
Y27456000D01*
G01Y27359440D02*
Y27456000D01*
G01D02*
X54476560D01*
G01X54283440D02*
X54380000D01*
G01D02*
Y27552560D01*
G01Y27456000D02*
X54476560D01*
G01X54283440D02*
X54380000D01*
G01D02*
Y27552560D01*
G54D18*
X45980000Y28800000D03*
Y28720000D03*
Y28640000D03*
Y28560000D03*
Y28480000D03*
Y28399900D03*
Y28319900D03*
X46829600D03*
Y28399900D03*
Y28480000D03*
Y28640000D03*
Y28720000D03*
Y28800000D03*
Y28880000D03*
X50863500Y26617900D03*
Y27098000D03*
Y27018000D03*
Y26938000D03*
Y26858000D03*
Y26778000D03*
Y26697900D03*
X51713100Y26617900D03*
Y26697900D03*
Y26778000D03*
Y26938000D03*
Y27018000D03*
Y27098000D03*
Y27178000D03*
G54D28*
G01X44188380Y27228800D02*
Y27635200D01*
G01X44884340Y27228800D02*
X44188380D01*
G01Y27635200D02*
X44884340D01*
G01D02*
Y27228800D01*
G01X44251880Y28117800D02*
Y28524200D01*
G01X44947840D02*
Y28117800D01*
G01D02*
X44251880D01*
G01Y28524200D02*
X44947840D01*
G01X44759880Y28943300D02*
Y29349700D01*
G01X45455840Y28943300D02*
X44759880D01*
G01Y29349700D02*
X45455840D01*
G01D02*
Y28943300D01*
G01X47574200Y26281380D02*
X47167800D01*
G01D02*
Y26977340D01*
G01X46939200Y26868120D02*
Y26172160D01*
G01D02*
X46532800D01*
G01D02*
Y26868120D01*
G01X47167800Y26977340D02*
X47574200D01*
G01X46532800Y26868120D02*
X46939200D01*
G01X47574200Y26977340D02*
Y26281380D01*
G01X47617380Y27736800D02*
Y28143200D01*
G01D02*
X48313340D01*
G01Y27736800D02*
X47617380D01*
G01X47490380Y28689300D02*
Y29095700D01*
G01X48186340Y28689300D02*
X47490380D01*
G01X47553880Y28244800D02*
Y28651200D01*
G01D02*
X48249840D01*
G01Y28244800D02*
X47553880D01*
G01X47490380Y29133800D02*
Y29540200D01*
G01D02*
X48186340D01*
G01Y29133800D02*
X47490380D01*
G01Y29095700D02*
X48186340D01*
G01X48188880Y25768300D02*
Y26174700D01*
G01X48884840Y25768300D02*
X48188880D01*
G01Y26174700D02*
X48884840D01*
G01X48313340Y28143200D02*
Y27736800D01*
G01X48186340Y29095700D02*
Y28689300D01*
G01X48249840Y28651200D02*
Y28244800D01*
G01X48186340Y29540200D02*
Y29133800D01*
G01X49268380Y25895300D02*
Y26301700D01*
G01X49964340Y25895300D02*
X49268380D01*
G01X48884840Y26174700D02*
Y25768300D01*
G01X49014380Y26530300D02*
Y26936700D01*
G01X49710340Y26530300D02*
X49014380D01*
G01X49268380Y26301700D02*
X49964340D01*
G01X49014380Y27419300D02*
Y27825700D01*
G01X49710340Y27419300D02*
X49014380D01*
G01Y26974800D02*
Y27381200D01*
G01D02*
X49710340D01*
G01Y26974800D02*
X49014380D01*
G01Y26936700D02*
X49710340D01*
G01X49014380Y27825700D02*
X49710340D01*
G01X49964340Y26301700D02*
Y25895300D01*
G01X49710340Y26936700D02*
Y26530300D01*
G01Y27825700D02*
Y27419300D01*
G01Y27381200D02*
Y26974800D01*
G01X50411380Y28371800D02*
Y28778200D01*
G01D02*
X51107340D01*
G01Y28371800D02*
X50411380D01*
G01X50347880Y29133800D02*
Y29540200D01*
G01D02*
X51043840D01*
G01D02*
Y29133800D01*
G01D02*
X50347880D01*
G01X51107340Y28778200D02*
Y28371800D01*
G01X52760880Y26149300D02*
Y26555700D01*
G01D02*
X53456840D01*
G01Y26149300D02*
X52760880D01*
G01Y26657300D02*
Y27063700D01*
G01X53456840Y26657300D02*
X52760880D01*
G01Y27101800D02*
Y27508200D01*
G01X53456840Y27101800D02*
X52760880D01*
G01Y27063700D02*
X53456840D01*
G01X52760880Y27546300D02*
Y27952700D01*
G01D02*
X53456840D01*
G01Y27546300D02*
X52760880D01*
G01Y27508200D02*
X53456840D01*
G01X53035200Y28694380D02*
X52628800D01*
G01D02*
Y29390340D01*
G01X53035200D02*
Y28694380D01*
G01X53601620Y28244800D02*
X52905660D01*
G01D02*
Y28651200D01*
G01D02*
X53601620D01*
G01X52628800Y29390340D02*
X53035200D01*
G01X53456840Y26555700D02*
Y26149300D01*
G01Y27063700D02*
Y26657300D01*
G01Y27508200D02*
Y27101800D01*
G01Y27952700D02*
Y27546300D01*
G01X53601620Y28651200D02*
Y28244800D01*
G54D19*
X47371000Y26416000D03*
X46736000Y26733500D03*
Y26306780D03*
X47371000Y26842720D03*
X52832000Y28829000D03*
Y29255720D03*
G54D29*
G01X44178500Y25700000D02*
Y29600000D01*
X54578500D01*
Y25700000D01*
X44178500D01*
G01D02*
Y29600000D01*
X54578500D01*
Y25700000D01*
X44178500D01*
G01X43942000Y25400000D02*
Y29900000D01*
X54942000D01*
Y25400000D01*
X43942000D01*
G01X44831630Y27296420D02*
X44821980Y27302770D01*
X44810730Y27307000D01*
X44797860D01*
X44783380Y27300650D01*
X44772130Y27290070D01*
X44764080Y27277370D01*
X44757650Y27256200D01*
X44756040Y27237150D01*
X44759260Y27218100D01*
X44764080Y27205400D01*
X44773730Y27192700D01*
X44784990Y27184230D01*
X44796250Y27180000D01*
X44807510D01*
X44818770Y27184230D01*
X44828420Y27190580D01*
X44836460Y27199050D01*
G01X44895190Y27232910D02*
X44906450Y27247730D01*
X44916100Y27256200D01*
X44928970Y27260430D01*
X44940230Y27256200D01*
X44948270Y27247730D01*
X44954700Y27235030D01*
X44956310Y27220220D01*
X44954700Y27207510D01*
X44948270Y27194810D01*
X44938620Y27184230D01*
X44927360Y27180000D01*
X44914490Y27184230D01*
X44903230Y27196930D01*
X44896800Y27215980D01*
X44895190Y27237150D01*
X44898410Y27264660D01*
X44903230Y27279490D01*
X44911270Y27294300D01*
X44922530Y27304880D01*
X44933790Y27307000D01*
X44945050Y27302770D01*
X44953090Y27292180D01*
G01X44958000Y26733500D02*
X44894500D01*
X44907200Y26725380D01*
G01X44958000D02*
Y26741620D01*
G01X44905080Y26974640D02*
X44898730Y26978700D01*
X44895560Y26983440D01*
X44894500Y26988850D01*
X44896620Y26995620D01*
X44901910Y27000360D01*
X44908260Y27001710D01*
X44914610Y27001030D01*
X44919900Y26998330D01*
X44930480Y26984790D01*
X44937890Y26978700D01*
X44948480Y26974640D01*
X44958000Y26973290D01*
Y27001710D01*
G01X44323000Y27432000D02*
Y27495500D01*
X44314870Y27482800D01*
G01Y27432000D02*
X44331130D01*
G01X44736850Y27484920D02*
X44740910Y27491270D01*
X44745660Y27494440D01*
X44751070Y27495500D01*
X44757850Y27493380D01*
X44762590Y27488090D01*
X44763940Y27481740D01*
X44763270Y27475390D01*
X44760560Y27470100D01*
X44747010Y27459520D01*
X44740910Y27452110D01*
X44736850Y27441520D01*
X44735500Y27432000D01*
X44763940D01*
G01X44319270Y27860620D02*
X44305050Y27870150D01*
X44288460Y27876500D01*
X44269490D01*
X44248150Y27866970D01*
X44231560Y27851100D01*
X44219710Y27832050D01*
X44210220Y27800300D01*
X44207850Y27771720D01*
X44212600Y27743150D01*
X44219710Y27724100D01*
X44233930Y27705050D01*
X44250530Y27692350D01*
X44267120Y27686000D01*
X44283710D01*
X44300310Y27692350D01*
X44314530Y27701870D01*
X44326390Y27714570D01*
G01X44452880Y27686000D02*
X44457620Y27727270D01*
X44464730Y27762200D01*
X44474210Y27793950D01*
X44486070Y27828870D01*
X44505030Y27876500D01*
X44410210D01*
G01X44319270Y28749620D02*
X44305050Y28759150D01*
X44288460Y28765500D01*
X44269490D01*
X44248150Y28755970D01*
X44231560Y28740100D01*
X44219710Y28721050D01*
X44210220Y28689300D01*
X44207850Y28660720D01*
X44212600Y28632150D01*
X44219710Y28613100D01*
X44233930Y28594050D01*
X44250530Y28581350D01*
X44267120Y28575000D01*
X44283710D01*
X44300310Y28581350D01*
X44314530Y28590870D01*
X44326390Y28603570D01*
G01X44457620Y28575000D02*
X44474210Y28578170D01*
X44493180Y28587700D01*
X44505030Y28603570D01*
X44509770Y28625800D01*
X44505030Y28648020D01*
X44490810Y28667070D01*
X44469470Y28676600D01*
X44445770D01*
X44431540Y28682950D01*
X44419690Y28698820D01*
X44414950Y28721050D01*
X44422060Y28743270D01*
X44438650Y28759150D01*
X44457620Y28765500D01*
X44476580Y28759150D01*
X44493180Y28743270D01*
X44500290Y28721050D01*
X44495550Y28698820D01*
X44483700Y28682950D01*
X44469470Y28676600D01*
X44445770D01*
X44424430Y28667070D01*
X44410210Y28648020D01*
X44405470Y28625800D01*
X44410210Y28603570D01*
X44422060Y28587700D01*
X44441030Y28578170D01*
X44457620Y28575000D01*
G01X44386500Y28321000D02*
Y28384500D01*
X44378370Y28371800D01*
G01Y28321000D02*
X44394630D01*
G01X44800350Y28373920D02*
X44804410Y28380270D01*
X44809160Y28383440D01*
X44814570Y28384500D01*
X44821350Y28382380D01*
X44826090Y28377090D01*
X44827440Y28370740D01*
X44826770Y28364390D01*
X44824060Y28359100D01*
X44810510Y28348520D01*
X44804410Y28341110D01*
X44800350Y28330520D01*
X44799000Y28321000D01*
X44827440D01*
G01X44775970Y28719780D02*
Y28910280D01*
X44835230D01*
X44854200Y28900750D01*
X44866050Y28888050D01*
X44870790Y28862650D01*
X44866050Y28837250D01*
X44851830Y28821380D01*
X44835230Y28811850D01*
X44775970D01*
G01X44835230D02*
X44870790Y28719780D01*
G01X44973580Y28742000D02*
X44990170Y28726130D01*
X45009140Y28719780D01*
X45028100Y28726130D01*
X45044700Y28745170D01*
X45056550Y28773760D01*
X45061290Y28802330D01*
Y28837250D01*
X45056550Y28865830D01*
X45044700Y28891230D01*
X45030470Y28903930D01*
X45013880Y28910280D01*
X44994910Y28903930D01*
X44980690Y28891230D01*
X44971210Y28872180D01*
X44966470Y28846780D01*
X44971210Y28824560D01*
X44983060Y28802330D01*
X44997290Y28789630D01*
X45013880Y28786450D01*
X45032840Y28792800D01*
X45047070Y28808680D01*
X45061290Y28837250D01*
G01X44894500Y29146500D02*
Y29210000D01*
X44886370Y29197300D01*
G01Y29146500D02*
X44902630D01*
G01X45105130Y26659420D02*
X45095480Y26665770D01*
X45084230Y26670000D01*
X45071360D01*
X45056880Y26663650D01*
X45045630Y26653070D01*
X45037580Y26640370D01*
X45031150Y26619200D01*
X45029540Y26600150D01*
X45032760Y26581100D01*
X45037580Y26568400D01*
X45047230Y26555700D01*
X45058490Y26547230D01*
X45069750Y26543000D01*
X45081010D01*
X45092270Y26547230D01*
X45101920Y26553580D01*
X45109960Y26562050D01*
G01X45163870D02*
X45173510Y26551460D01*
X45184770Y26545120D01*
X45199250Y26543000D01*
X45213730Y26547230D01*
X45224980Y26555700D01*
X45233030Y26570510D01*
X45234630Y26587450D01*
X45231420Y26604380D01*
X45223370Y26614970D01*
X45212120Y26623430D01*
X45200860Y26625550D01*
X45189600Y26623430D01*
X45175130Y26614970D01*
X45179950Y26670000D01*
X45223370D01*
G01X45340000Y26160000D02*
X45276500D01*
X45289200Y26151880D01*
G01X45340000D02*
Y26168120D01*
G01X45287080Y26401140D02*
X45280730Y26405200D01*
X45277560Y26409940D01*
X45276500Y26415350D01*
X45278620Y26422120D01*
X45283910Y26426860D01*
X45290260Y26428210D01*
X45296610Y26427530D01*
X45301900Y26424830D01*
X45312480Y26411290D01*
X45319890Y26405200D01*
X45330480Y26401140D01*
X45340000Y26399790D01*
Y26428210D01*
G01X45550860Y27147080D02*
X45546800Y27140730D01*
X45542060Y27137560D01*
X45536650Y27136500D01*
X45529880Y27138620D01*
X45525140Y27143910D01*
X45523790Y27150260D01*
X45524470Y27156610D01*
X45527170Y27161900D01*
X45540710Y27172480D01*
X45546800Y27179890D01*
X45550860Y27190480D01*
X45552210Y27200000D01*
X45523790D01*
G01X45387250Y27495500D02*
Y27552650D01*
X45355080Y27622500D01*
G01X45419420D02*
X45387250Y27552650D01*
G01X45516750Y27495500D02*
Y27622500D01*
X45497450Y27597100D01*
G01Y27495500D02*
X45536050D01*
G01X45308350Y29199420D02*
X45312410Y29205770D01*
X45317160Y29208940D01*
X45322570Y29210000D01*
X45329350Y29207880D01*
X45334090Y29202590D01*
X45335440Y29196240D01*
X45334770Y29189890D01*
X45332060Y29184600D01*
X45318510Y29174020D01*
X45312410Y29166610D01*
X45308350Y29156020D01*
X45307000Y29146500D01*
X45335440D01*
G01X45803630Y26659420D02*
X45793980Y26665770D01*
X45782730Y26670000D01*
X45769860D01*
X45755380Y26663650D01*
X45744130Y26653070D01*
X45736080Y26640370D01*
X45729650Y26619200D01*
X45728040Y26600150D01*
X45731260Y26581100D01*
X45736080Y26568400D01*
X45745730Y26555700D01*
X45756990Y26547230D01*
X45768250Y26543000D01*
X45779510D01*
X45790770Y26547230D01*
X45800420Y26553580D01*
X45808460Y26562050D01*
G01X45870410Y26557810D02*
X45881670Y26547230D01*
X45894530Y26543000D01*
X45907400Y26547230D01*
X45918660Y26559930D01*
X45926700Y26578980D01*
X45929920Y26598030D01*
Y26621320D01*
X45926700Y26640370D01*
X45918660Y26657300D01*
X45909010Y26665770D01*
X45897750Y26670000D01*
X45884880Y26665770D01*
X45875230Y26657300D01*
X45868800Y26644600D01*
X45865580Y26627660D01*
X45868800Y26612850D01*
X45876840Y26598030D01*
X45886490Y26589560D01*
X45897750Y26587450D01*
X45910620Y26591680D01*
X45920270Y26602270D01*
X45929920Y26621320D01*
G01X46120000Y26220000D02*
X46056500D01*
X46069200Y26211880D01*
G01X46120000D02*
Y26228120D01*
G01X46067080Y26461140D02*
X46060730Y26465200D01*
X46057560Y26469940D01*
X46056500Y26475350D01*
X46058620Y26482120D01*
X46063910Y26486860D01*
X46070260Y26488210D01*
X46076610Y26487530D01*
X46081900Y26484830D01*
X46092480Y26471290D01*
X46099890Y26465200D01*
X46110480Y26461140D01*
X46120000Y26459790D01*
Y26488210D01*
G01X46300000Y27200000D02*
Y27136500D01*
X46308120Y27149200D01*
G01Y27200000D02*
X46291880D01*
G01X46132210Y28186700D02*
X46126920Y28181970D01*
X46124800Y28176550D01*
X46126920Y28171140D01*
X46133260Y28166400D01*
X46142790Y28163020D01*
X46152320Y28161670D01*
X46163960D01*
X46173480Y28163020D01*
X46181950Y28166400D01*
X46186180Y28170460D01*
X46188300Y28175200D01*
X46186180Y28180610D01*
X46181950Y28184670D01*
X46175600Y28187380D01*
X46167130Y28188730D01*
X46159730Y28187380D01*
X46152320Y28184000D01*
X46148080Y28179940D01*
X46147020Y28175200D01*
X46149140Y28169790D01*
X46154430Y28165730D01*
X46163960Y28161670D01*
G01X46204800Y28203100D02*
X46268300D01*
X46255600Y28211220D01*
G01X46204800D02*
Y28194980D01*
G01X46268300Y28147300D02*
X46266180Y28152710D01*
X46260890Y28156770D01*
X46254540Y28159480D01*
X46246070Y28161510D01*
X46236550Y28162190D01*
X46227020Y28161510D01*
X46218560Y28159480D01*
X46212210Y28156770D01*
X46206920Y28152710D01*
X46204800Y28147300D01*
X46206920Y28141890D01*
X46212210Y28137830D01*
X46218560Y28135120D01*
X46227020Y28133090D01*
X46236550Y28132410D01*
X46246070Y28133090D01*
X46254540Y28135120D01*
X46260890Y28137830D01*
X46266180Y28141890D01*
X46268300Y28147300D01*
G01X46284800Y28203100D02*
X46348300D01*
X46335600Y28211220D01*
G01X46284800D02*
Y28194980D01*
G01Y28147300D02*
X46348300D01*
X46335600Y28155420D01*
G01X46284800D02*
Y28139180D01*
G01X46364800Y28203100D02*
X46428300D01*
X46415600Y28211220D01*
G01X46364800D02*
Y28194980D01*
G01X46417720Y28160160D02*
X46424070Y28156100D01*
X46427240Y28151360D01*
X46428300Y28145950D01*
X46426180Y28139180D01*
X46420890Y28134440D01*
X46414540Y28133090D01*
X46408190Y28133770D01*
X46402900Y28136470D01*
X46392320Y28150010D01*
X46384910Y28156100D01*
X46374320Y28160160D01*
X46364800Y28161510D01*
Y28133090D01*
G01X46444800Y28203100D02*
X46508300D01*
X46495600Y28211220D01*
G01X46444800D02*
Y28194980D01*
G01X46457500Y28162190D02*
X46450090Y28158130D01*
X46445860Y28152710D01*
X46444800Y28146620D01*
X46445860Y28141210D01*
X46451150Y28135800D01*
X46457500Y28132410D01*
X46463850Y28131740D01*
X46471260Y28133090D01*
X46476550Y28137830D01*
X46478670Y28142560D01*
Y28148650D01*
G01Y28142560D02*
X46481840Y28138500D01*
X46487130Y28135120D01*
X46493480Y28133770D01*
X46499830Y28135120D01*
X46505120Y28138500D01*
X46508300Y28144590D01*
X46507240Y28150680D01*
X46503010Y28156770D01*
G01X45980000Y28880000D02*
X46043500D01*
X46030800Y28888120D01*
G01X45980000D02*
Y28871880D01*
G01X46032920Y28812860D02*
X46039270Y28808800D01*
X46042440Y28804060D01*
X46043500Y28798650D01*
X46041380Y28791880D01*
X46036090Y28787140D01*
X46029740Y28785790D01*
X46023390Y28786470D01*
X46018100Y28789170D01*
X46007520Y28802710D01*
X46000110Y28808800D01*
X45989520Y28812860D01*
X45980000Y28814210D01*
Y28785790D01*
G01X45992700Y28734890D02*
X45985290Y28730830D01*
X45981060Y28725410D01*
X45980000Y28719320D01*
X45981060Y28713910D01*
X45986350Y28708500D01*
X45992700Y28705110D01*
X45999050Y28704440D01*
X46006460Y28705790D01*
X46011750Y28710530D01*
X46013870Y28715260D01*
Y28721350D01*
G01Y28715260D02*
X46017040Y28711200D01*
X46022330Y28707820D01*
X46028680Y28706470D01*
X46035030Y28707820D01*
X46040320Y28711200D01*
X46043500Y28717290D01*
X46042440Y28723380D01*
X46038210Y28729470D01*
G01X45980000Y28631880D02*
X46043500D01*
X45997990Y28656920D01*
Y28623080D01*
G01X45989520Y28574890D02*
X45984230Y28570830D01*
X45981060Y28566090D01*
X45980000Y28560000D01*
X45982120Y28553910D01*
X45986350Y28549170D01*
X45993760Y28545790D01*
X46002220Y28545110D01*
X46010690Y28546470D01*
X46015980Y28549850D01*
X46020220Y28554590D01*
X46021270Y28559320D01*
X46020220Y28564060D01*
X46015980Y28570150D01*
X46043500Y28568120D01*
Y28549850D01*
G01X46006460Y28492860D02*
X46013870Y28488120D01*
X46018100Y28484060D01*
X46020220Y28478650D01*
X46018100Y28473910D01*
X46013870Y28470530D01*
X46007520Y28467820D01*
X46000110Y28467140D01*
X45993760Y28467820D01*
X45987410Y28470530D01*
X45982120Y28474590D01*
X45980000Y28479320D01*
X45982120Y28484740D01*
X45988460Y28489470D01*
X45997990Y28492180D01*
X46008570Y28492860D01*
X46022330Y28491500D01*
X46029740Y28489470D01*
X46037150Y28486090D01*
X46042440Y28481350D01*
X46043500Y28476620D01*
X46041380Y28471880D01*
X46036090Y28468500D01*
G01X45980000Y28401250D02*
X45993760Y28399900D01*
X46005400Y28397870D01*
X46015980Y28395160D01*
X46027620Y28391780D01*
X46043500Y28386370D01*
Y28413430D01*
G01X45980000Y28319900D02*
X45981060Y28315160D01*
X45984230Y28309750D01*
X45989520Y28306370D01*
X45996930Y28305010D01*
X46004340Y28306370D01*
X46010690Y28310430D01*
X46013870Y28316520D01*
Y28323280D01*
X46015980Y28327340D01*
X46021270Y28330730D01*
X46028680Y28332080D01*
X46036090Y28330050D01*
X46041380Y28325310D01*
X46043500Y28319900D01*
X46041380Y28314490D01*
X46036090Y28309750D01*
X46028680Y28307720D01*
X46021270Y28309070D01*
X46015980Y28312460D01*
X46013870Y28316520D01*
Y28323280D01*
X46010690Y28329370D01*
X46004340Y28333430D01*
X45996930Y28334790D01*
X45989520Y28333430D01*
X45984230Y28330050D01*
X45981060Y28324640D01*
X45980000Y28319900D01*
G01X46066600Y29497050D02*
Y29458450D01*
G01Y29477750D02*
X45939600D01*
G01Y29497050D02*
Y29458450D01*
G01X46056020Y29312870D02*
X46062370Y29322520D01*
X46066600Y29333770D01*
Y29346640D01*
X46060250Y29361120D01*
X46049670Y29372370D01*
X46036970Y29380420D01*
X46015800Y29386850D01*
X45996750Y29388460D01*
X45977700Y29385240D01*
X45965000Y29380420D01*
X45952300Y29370770D01*
X45943830Y29359510D01*
X45939600Y29348250D01*
Y29336990D01*
X45943830Y29325730D01*
X45950180Y29316080D01*
X45958650Y29308040D01*
G01X45939600Y29218750D02*
X46066600D01*
X46041200Y29238050D01*
G01X45939600D02*
Y29199450D01*
G01X46497720Y29065560D02*
X46504070Y29061500D01*
X46507240Y29056760D01*
X46508300Y29051350D01*
X46506180Y29044580D01*
X46500890Y29039840D01*
X46494540Y29038490D01*
X46488190Y29039170D01*
X46482900Y29041870D01*
X46472320Y29055410D01*
X46464910Y29061500D01*
X46454320Y29065560D01*
X46444800Y29066910D01*
Y29038490D01*
G01Y28996900D02*
X46445860Y28992160D01*
X46449030Y28986750D01*
X46454320Y28983370D01*
X46461730Y28982010D01*
X46469140Y28983370D01*
X46475490Y28987430D01*
X46478670Y28993520D01*
Y29000280D01*
X46480780Y29004340D01*
X46486070Y29007730D01*
X46493480Y29009080D01*
X46500890Y29007050D01*
X46506180Y29002310D01*
X46508300Y28996900D01*
X46506180Y28991490D01*
X46500890Y28986750D01*
X46493480Y28984720D01*
X46486070Y28986070D01*
X46480780Y28989460D01*
X46478670Y28993520D01*
Y29000280D01*
X46475490Y29006370D01*
X46469140Y29010430D01*
X46461730Y29011790D01*
X46454320Y29010430D01*
X46449030Y29007050D01*
X46445860Y29001640D01*
X46444800Y28996900D01*
G01X46417720Y29065560D02*
X46424070Y29061500D01*
X46427240Y29056760D01*
X46428300Y29051350D01*
X46426180Y29044580D01*
X46420890Y29039840D01*
X46414540Y29038490D01*
X46408190Y29039170D01*
X46402900Y29041870D01*
X46392320Y29055410D01*
X46384910Y29061500D01*
X46374320Y29065560D01*
X46364800Y29066910D01*
Y29038490D01*
G01X46372210Y29008400D02*
X46366920Y29003670D01*
X46364800Y28998250D01*
X46366920Y28992840D01*
X46373260Y28988100D01*
X46382790Y28984720D01*
X46392320Y28983370D01*
X46403960D01*
X46413480Y28984720D01*
X46421950Y28988100D01*
X46426180Y28992160D01*
X46428300Y28996900D01*
X46426180Y29002310D01*
X46421950Y29006370D01*
X46415600Y29009080D01*
X46407130Y29010430D01*
X46399730Y29009080D01*
X46392320Y29005700D01*
X46388080Y29001640D01*
X46387020Y28996900D01*
X46389140Y28991490D01*
X46394430Y28987430D01*
X46403960Y28983370D01*
G01X46297500Y29067590D02*
X46290090Y29063530D01*
X46285860Y29058110D01*
X46284800Y29052020D01*
X46285860Y29046610D01*
X46291150Y29041200D01*
X46297500Y29037810D01*
X46303850Y29037140D01*
X46311260Y29038490D01*
X46316550Y29043230D01*
X46318670Y29047960D01*
Y29054050D01*
G01Y29047960D02*
X46321840Y29043900D01*
X46327130Y29040520D01*
X46333480Y29039170D01*
X46339830Y29040520D01*
X46345120Y29043900D01*
X46348300Y29049990D01*
X46347240Y29056080D01*
X46343010Y29062170D01*
G01X46348300Y28996900D02*
X46346180Y29002310D01*
X46340890Y29006370D01*
X46334540Y29009080D01*
X46326070Y29011110D01*
X46316550Y29011790D01*
X46307020Y29011110D01*
X46298560Y29009080D01*
X46292210Y29006370D01*
X46286920Y29002310D01*
X46284800Y28996900D01*
X46286920Y28991490D01*
X46292210Y28987430D01*
X46298560Y28984720D01*
X46307020Y28982690D01*
X46316550Y28982010D01*
X46326070Y28982690D01*
X46334540Y28984720D01*
X46340890Y28987430D01*
X46346180Y28991490D01*
X46348300Y28996900D01*
G01X46217500Y29067590D02*
X46210090Y29063530D01*
X46205860Y29058110D01*
X46204800Y29052020D01*
X46205860Y29046610D01*
X46211150Y29041200D01*
X46217500Y29037810D01*
X46223850Y29037140D01*
X46231260Y29038490D01*
X46236550Y29043230D01*
X46238670Y29047960D01*
Y29054050D01*
G01Y29047960D02*
X46241840Y29043900D01*
X46247130Y29040520D01*
X46253480Y29039170D01*
X46259830Y29040520D01*
X46265120Y29043900D01*
X46268300Y29049990D01*
X46267240Y29056080D01*
X46263010Y29062170D01*
G01X46204800Y28996900D02*
X46268300D01*
X46255600Y29005020D01*
G01X46204800D02*
Y28988780D01*
G01X46137500Y29067590D02*
X46130090Y29063530D01*
X46125860Y29058110D01*
X46124800Y29052020D01*
X46125860Y29046610D01*
X46131150Y29041200D01*
X46137500Y29037810D01*
X46143850Y29037140D01*
X46151260Y29038490D01*
X46156550Y29043230D01*
X46158670Y29047960D01*
Y29054050D01*
G01Y29047960D02*
X46161840Y29043900D01*
X46167130Y29040520D01*
X46173480Y29039170D01*
X46179830Y29040520D01*
X46185120Y29043900D01*
X46188300Y29049990D01*
X46187240Y29056080D01*
X46183010Y29062170D01*
G01X46177720Y29009760D02*
X46184070Y29005700D01*
X46187240Y29000960D01*
X46188300Y28995550D01*
X46186180Y28988780D01*
X46180890Y28984040D01*
X46174540Y28982690D01*
X46168190Y28983370D01*
X46162900Y28986070D01*
X46152320Y28999610D01*
X46144910Y29005700D01*
X46134320Y29009760D01*
X46124800Y29011110D01*
Y28982690D01*
G01X46569210Y26606500D02*
Y26797000D01*
X46628470D01*
X46647440Y26787470D01*
X46659290Y26774770D01*
X46664030Y26749370D01*
X46659290Y26723970D01*
X46645070Y26708100D01*
X46628470Y26698570D01*
X46569210D01*
G01X46628470D02*
X46664030Y26606500D01*
G01X46807120D02*
Y26797000D01*
X46778670Y26758900D01*
G01Y26606500D02*
X46835560D01*
G01X46997620Y26797000D02*
X46978650Y26790650D01*
X46964430Y26774770D01*
X46954950Y26755730D01*
X46947840Y26730320D01*
X46945470Y26701750D01*
X46947840Y26673170D01*
X46954950Y26647770D01*
X46964430Y26628720D01*
X46978650Y26612850D01*
X46997620Y26606500D01*
X47016580Y26612850D01*
X47030810Y26628720D01*
X47040290Y26647770D01*
X47047400Y26673170D01*
X47049770Y26701750D01*
X47047400Y26730320D01*
X47040290Y26755730D01*
X47030810Y26774770D01*
X47016580Y26790650D01*
X46997620Y26797000D01*
G01X46788920Y26319650D02*
X46795270Y26315590D01*
X46798440Y26310840D01*
X46799500Y26305430D01*
X46797380Y26298650D01*
X46792090Y26293910D01*
X46785740Y26292560D01*
X46779390Y26293230D01*
X46774100Y26295940D01*
X46763520Y26309490D01*
X46756110Y26315590D01*
X46745520Y26319650D01*
X46736000Y26321000D01*
Y26292560D01*
G01X47240000Y27360000D02*
Y27423500D01*
X47231880Y27410800D01*
G01Y27360000D02*
X47248120D01*
G01X47240270Y26971620D02*
X47226050Y26981150D01*
X47209460Y26987500D01*
X47190490D01*
X47169150Y26977970D01*
X47152560Y26962100D01*
X47140710Y26943050D01*
X47131220Y26911300D01*
X47128850Y26882720D01*
X47133600Y26854150D01*
X47140710Y26835100D01*
X47154930Y26816050D01*
X47171530Y26803350D01*
X47188120Y26797000D01*
X47204710D01*
X47221310Y26803350D01*
X47235530Y26812870D01*
X47247390Y26825570D01*
G01X47378620Y26797000D02*
Y26987500D01*
X47350170Y26949400D01*
G01Y26797000D02*
X47407060D01*
G01X46736000Y26733500D02*
X46799500D01*
X46786800Y26741630D01*
G01X46736000D02*
Y26725370D01*
G01X46524800Y28203100D02*
X46588300D01*
X46575600Y28211220D01*
G01X46524800D02*
Y28194980D01*
G01Y28139180D02*
X46588300D01*
X46542790Y28164220D01*
Y28130380D01*
G01X46604800Y28203100D02*
X46668300D01*
X46655600Y28211220D01*
G01X46604800D02*
Y28194980D01*
G01X46614320Y28162190D02*
X46609030Y28158130D01*
X46605860Y28153390D01*
X46604800Y28147300D01*
X46606920Y28141210D01*
X46611150Y28136470D01*
X46618560Y28133090D01*
X46627020Y28132410D01*
X46635490Y28133770D01*
X46640780Y28137150D01*
X46645020Y28141890D01*
X46646070Y28146620D01*
X46645020Y28151360D01*
X46640780Y28157450D01*
X46668300Y28155420D01*
Y28137150D01*
G01X46684800Y28203100D02*
X46748300D01*
X46735600Y28211220D01*
G01X46684800D02*
Y28194980D01*
G01X46711260Y28160160D02*
X46718670Y28155420D01*
X46722900Y28151360D01*
X46725020Y28145950D01*
X46722900Y28141210D01*
X46718670Y28137830D01*
X46712320Y28135120D01*
X46704910Y28134440D01*
X46698560Y28135120D01*
X46692210Y28137830D01*
X46686920Y28141890D01*
X46684800Y28146620D01*
X46686920Y28152040D01*
X46693260Y28156770D01*
X46702790Y28159480D01*
X46713370Y28160160D01*
X46727130Y28158800D01*
X46734540Y28156770D01*
X46741950Y28153390D01*
X46747240Y28148650D01*
X46748300Y28143920D01*
X46746180Y28139180D01*
X46740890Y28135800D01*
G01X47129870Y27622500D02*
Y27749500D01*
X47162030D01*
X47174900Y27743150D01*
X47184550Y27734680D01*
X47192590Y27721990D01*
X47199030Y27707160D01*
X47200630Y27686000D01*
X47199030Y27664830D01*
X47192590Y27650010D01*
X47184550Y27637310D01*
X47174900Y27628850D01*
X47162030Y27622500D01*
X47129870D01*
G01X47294750D02*
Y27749500D01*
X47275450Y27724100D01*
G01Y27622500D02*
X47314050D01*
G01X46829600Y28347800D02*
X46893100D01*
X46880400Y28355920D01*
G01X46829600D02*
Y28339680D01*
G01Y28293350D02*
X46843360Y28292000D01*
X46855000Y28289970D01*
X46865580Y28287260D01*
X46877220Y28283880D01*
X46893100Y28278470D01*
Y28305530D01*
G01X46829600Y28427800D02*
X46893100D01*
X46880400Y28435920D01*
G01X46829600D02*
Y28419680D01*
G01Y28372000D02*
X46830660Y28367260D01*
X46833830Y28361850D01*
X46839120Y28358470D01*
X46846530Y28357110D01*
X46853940Y28358470D01*
X46860290Y28362530D01*
X46863470Y28368620D01*
Y28375380D01*
X46865580Y28379440D01*
X46870870Y28382830D01*
X46878280Y28384180D01*
X46885690Y28382150D01*
X46890980Y28377410D01*
X46893100Y28372000D01*
X46890980Y28366590D01*
X46885690Y28361850D01*
X46878280Y28359820D01*
X46870870Y28361170D01*
X46865580Y28364560D01*
X46863470Y28368620D01*
Y28375380D01*
X46860290Y28381470D01*
X46853940Y28385530D01*
X46846530Y28386890D01*
X46839120Y28385530D01*
X46833830Y28382150D01*
X46830660Y28376740D01*
X46829600Y28372000D01*
G01Y28507900D02*
X46893100D01*
X46880400Y28516020D01*
G01X46829600D02*
Y28499780D01*
G01X46837010Y28463600D02*
X46831720Y28458870D01*
X46829600Y28453450D01*
X46831720Y28448040D01*
X46838060Y28443300D01*
X46847590Y28439920D01*
X46857120Y28438570D01*
X46868760D01*
X46878280Y28439920D01*
X46886750Y28443300D01*
X46890980Y28447360D01*
X46893100Y28452100D01*
X46890980Y28457510D01*
X46886750Y28461570D01*
X46880400Y28464280D01*
X46871930Y28465630D01*
X46864530Y28464280D01*
X46857120Y28460900D01*
X46852880Y28456840D01*
X46851820Y28452100D01*
X46853940Y28446690D01*
X46859230Y28442630D01*
X46868760Y28438570D01*
G01X46882520Y28600760D02*
X46888870Y28596700D01*
X46892040Y28591960D01*
X46893100Y28586550D01*
X46890980Y28579780D01*
X46885690Y28575040D01*
X46879340Y28573690D01*
X46872990Y28574370D01*
X46867700Y28577070D01*
X46857120Y28590610D01*
X46849710Y28596700D01*
X46839120Y28600760D01*
X46829600Y28602110D01*
Y28573690D01*
G01X46893100Y28532100D02*
X46890980Y28537510D01*
X46885690Y28541570D01*
X46879340Y28544280D01*
X46870870Y28546310D01*
X46861350Y28546990D01*
X46851820Y28546310D01*
X46843360Y28544280D01*
X46837010Y28541570D01*
X46831720Y28537510D01*
X46829600Y28532100D01*
X46831720Y28526690D01*
X46837010Y28522630D01*
X46843360Y28519920D01*
X46851820Y28517890D01*
X46861350Y28517210D01*
X46870870Y28517890D01*
X46879340Y28519920D01*
X46885690Y28522630D01*
X46890980Y28526690D01*
X46893100Y28532100D01*
G01X46882520Y28680760D02*
X46888870Y28676700D01*
X46892040Y28671960D01*
X46893100Y28666550D01*
X46890980Y28659780D01*
X46885690Y28655040D01*
X46879340Y28653690D01*
X46872990Y28654370D01*
X46867700Y28657070D01*
X46857120Y28670610D01*
X46849710Y28676700D01*
X46839120Y28680760D01*
X46829600Y28682110D01*
Y28653690D01*
G01Y28612100D02*
X46893100D01*
X46880400Y28620220D01*
G01X46829600D02*
Y28603980D01*
G01X46882520Y28760760D02*
X46888870Y28756700D01*
X46892040Y28751960D01*
X46893100Y28746550D01*
X46890980Y28739780D01*
X46885690Y28735040D01*
X46879340Y28733690D01*
X46872990Y28734370D01*
X46867700Y28737070D01*
X46857120Y28750610D01*
X46849710Y28756700D01*
X46839120Y28760760D01*
X46829600Y28762110D01*
Y28733690D01*
G01X46882520Y28704960D02*
X46888870Y28700900D01*
X46892040Y28696160D01*
X46893100Y28690750D01*
X46890980Y28683980D01*
X46885690Y28679240D01*
X46879340Y28677890D01*
X46872990Y28678570D01*
X46867700Y28681270D01*
X46857120Y28694810D01*
X46849710Y28700900D01*
X46839120Y28704960D01*
X46829600Y28706310D01*
Y28677890D01*
G01X46882520Y28840760D02*
X46888870Y28836700D01*
X46892040Y28831960D01*
X46893100Y28826550D01*
X46890980Y28819780D01*
X46885690Y28815040D01*
X46879340Y28813690D01*
X46872990Y28814370D01*
X46867700Y28817070D01*
X46857120Y28830610D01*
X46849710Y28836700D01*
X46839120Y28840760D01*
X46829600Y28842110D01*
Y28813690D01*
G01X46842300Y28786990D02*
X46834890Y28782930D01*
X46830660Y28777510D01*
X46829600Y28771420D01*
X46830660Y28766010D01*
X46835950Y28760600D01*
X46842300Y28757210D01*
X46848650Y28756540D01*
X46856060Y28757890D01*
X46861350Y28762630D01*
X46863470Y28767360D01*
Y28773450D01*
G01Y28767360D02*
X46866640Y28763300D01*
X46871930Y28759920D01*
X46878280Y28758570D01*
X46884630Y28759920D01*
X46889920Y28763300D01*
X46893100Y28769390D01*
X46892040Y28775480D01*
X46887810Y28781570D01*
G01X46882520Y28920760D02*
X46888870Y28916700D01*
X46892040Y28911960D01*
X46893100Y28906550D01*
X46890980Y28899780D01*
X46885690Y28895040D01*
X46879340Y28893690D01*
X46872990Y28894370D01*
X46867700Y28897070D01*
X46857120Y28910610D01*
X46849710Y28916700D01*
X46839120Y28920760D01*
X46829600Y28922110D01*
Y28893690D01*
G01Y28843980D02*
X46893100D01*
X46847590Y28869020D01*
Y28835180D01*
G01X46737720Y29065560D02*
X46744070Y29061500D01*
X46747240Y29056760D01*
X46748300Y29051350D01*
X46746180Y29044580D01*
X46740890Y29039840D01*
X46734540Y29038490D01*
X46728190Y29039170D01*
X46722900Y29041870D01*
X46712320Y29055410D01*
X46704910Y29061500D01*
X46694320Y29065560D01*
X46684800Y29066910D01*
Y29038490D01*
G01X46694320Y29011790D02*
X46689030Y29007730D01*
X46685860Y29002990D01*
X46684800Y28996900D01*
X46686920Y28990810D01*
X46691150Y28986070D01*
X46698560Y28982690D01*
X46707020Y28982010D01*
X46715490Y28983370D01*
X46720780Y28986750D01*
X46725020Y28991490D01*
X46726070Y28996220D01*
X46725020Y29000960D01*
X46720780Y29007050D01*
X46748300Y29005020D01*
Y28986750D01*
G01X46657720Y29065560D02*
X46664070Y29061500D01*
X46667240Y29056760D01*
X46668300Y29051350D01*
X46666180Y29044580D01*
X46660890Y29039840D01*
X46654540Y29038490D01*
X46648190Y29039170D01*
X46642900Y29041870D01*
X46632320Y29055410D01*
X46624910Y29061500D01*
X46614320Y29065560D01*
X46604800Y29066910D01*
Y29038490D01*
G01X46631260Y29009760D02*
X46638670Y29005020D01*
X46642900Y29000960D01*
X46645020Y28995550D01*
X46642900Y28990810D01*
X46638670Y28987430D01*
X46632320Y28984720D01*
X46624910Y28984040D01*
X46618560Y28984720D01*
X46612210Y28987430D01*
X46606920Y28991490D01*
X46604800Y28996220D01*
X46606920Y29001640D01*
X46613260Y29006370D01*
X46622790Y29009080D01*
X46633370Y29009760D01*
X46647130Y29008400D01*
X46654540Y29006370D01*
X46661950Y29002990D01*
X46667240Y28998250D01*
X46668300Y28993520D01*
X46666180Y28988780D01*
X46660890Y28985400D01*
G01X46577720Y29065560D02*
X46584070Y29061500D01*
X46587240Y29056760D01*
X46588300Y29051350D01*
X46586180Y29044580D01*
X46580890Y29039840D01*
X46574540Y29038490D01*
X46568190Y29039170D01*
X46562900Y29041870D01*
X46552320Y29055410D01*
X46544910Y29061500D01*
X46534320Y29065560D01*
X46524800Y29066910D01*
Y29038490D01*
G01Y28998250D02*
X46538560Y28996900D01*
X46550200Y28994870D01*
X46560780Y28992160D01*
X46572420Y28988780D01*
X46588300Y28983370D01*
Y29010430D01*
G01X47371000Y26416000D02*
X47307500D01*
X47320200Y26407870D01*
G01X47371000D02*
Y26424130D01*
G01X47544640Y27412920D02*
X47548700Y27419270D01*
X47553440Y27422440D01*
X47558850Y27423500D01*
X47565620Y27421380D01*
X47570360Y27416090D01*
X47571710Y27409740D01*
X47571030Y27403390D01*
X47568330Y27398100D01*
X47554790Y27387520D01*
X47548700Y27380110D01*
X47544640Y27369520D01*
X47543290Y27360000D01*
X47571710D01*
G01X47318080Y26829850D02*
X47311730Y26833910D01*
X47308560Y26838660D01*
X47307500Y26844070D01*
X47309620Y26850850D01*
X47314910Y26855590D01*
X47321260Y26856940D01*
X47327610Y26856270D01*
X47332900Y26853560D01*
X47343480Y26840010D01*
X47350890Y26833910D01*
X47361480Y26829850D01*
X47371000Y26828500D01*
Y26856940D01*
G01X47585210Y27940000D02*
Y28130500D01*
X47644470D01*
X47663440Y28120970D01*
X47675290Y28108270D01*
X47680030Y28082870D01*
X47675290Y28057470D01*
X47661070Y28041600D01*
X47644470Y28032070D01*
X47585210D01*
G01X47644470D02*
X47680030Y27940000D01*
G01X47823120D02*
Y28130500D01*
X47794670Y28092400D01*
G01Y27940000D02*
X47851560D01*
G01X47961470Y27968570D02*
X47975690Y27952700D01*
X47992280Y27943170D01*
X48013620Y27940000D01*
X48034960Y27946350D01*
X48051550Y27959050D01*
X48063400Y27981270D01*
X48065770Y28006670D01*
X48061030Y28032070D01*
X48049180Y28047950D01*
X48032580Y28060650D01*
X48015990Y28063820D01*
X47999400Y28060650D01*
X47978060Y28047950D01*
X47985170Y28130500D01*
X48049180D01*
G01X47752000Y27940000D02*
Y28003500D01*
X47743870Y27990800D01*
G01Y27940000D02*
X47760130D01*
G01X47458210Y28892500D02*
Y29083000D01*
X47517470D01*
X47536440Y29073470D01*
X47548290Y29060770D01*
X47553030Y29035370D01*
X47548290Y29009970D01*
X47534070Y28994100D01*
X47517470Y28984570D01*
X47458210D01*
G01X47517470D02*
X47553030Y28892500D01*
G01X47696120D02*
Y29083000D01*
X47667670Y29044900D01*
G01Y28892500D02*
X47724560D01*
G01X47841580Y29051250D02*
X47855800Y29070300D01*
X47872400Y29079830D01*
X47891360Y29083000D01*
X47915070Y29076650D01*
X47931660Y29060770D01*
X47936400Y29041730D01*
X47934030Y29022670D01*
X47924550Y29006800D01*
X47877140Y28975050D01*
X47855800Y28952820D01*
X47841580Y28921070D01*
X47836840Y28892500D01*
X47936400D01*
G01X47625000D02*
Y28956000D01*
X47616870Y28943300D01*
G01Y28892500D02*
X47633130D01*
G01X47585210Y28448000D02*
Y28638500D01*
X47644470D01*
X47663440Y28628970D01*
X47675290Y28616270D01*
X47680030Y28590870D01*
X47675290Y28565470D01*
X47661070Y28549600D01*
X47644470Y28540070D01*
X47585210D01*
G01X47644470D02*
X47680030Y28448000D01*
G01X47823120D02*
Y28638500D01*
X47794670Y28600400D01*
G01Y28448000D02*
X47851560D01*
G01X47961470Y28486100D02*
X47975690Y28463870D01*
X47994650Y28451170D01*
X48015990Y28448000D01*
X48034960Y28451170D01*
X48053920Y28467050D01*
X48065770Y28486100D01*
X48068140Y28505150D01*
X48063400Y28527370D01*
X48046810Y28543250D01*
X48030210Y28549600D01*
X48008880D01*
G01X48030210D02*
X48044440Y28559120D01*
X48056290Y28575000D01*
X48061030Y28594050D01*
X48056290Y28613100D01*
X48044440Y28628970D01*
X48023100Y28638500D01*
X48001770Y28635330D01*
X47980430Y28622620D01*
G01X47688500Y28448000D02*
Y28511500D01*
X47680370Y28498800D01*
G01Y28448000D02*
X47696630D01*
G01X47394710Y29273500D02*
Y29464000D01*
X47453970D01*
X47472940Y29454470D01*
X47484790Y29441770D01*
X47489530Y29416370D01*
X47484790Y29390970D01*
X47470570Y29375100D01*
X47453970Y29365570D01*
X47394710D01*
G01X47453970D02*
X47489530Y29273500D01*
G01X47632620D02*
Y29464000D01*
X47604170Y29425900D01*
G01Y29273500D02*
X47661060D01*
G01X47823120D02*
Y29464000D01*
X47794670Y29425900D01*
G01Y29273500D02*
X47851560D01*
G01X47625000Y29337000D02*
Y29400500D01*
X47616870Y29387800D01*
G01Y29337000D02*
X47633130D01*
G01X48156710Y25971500D02*
Y26162000D01*
X48215970D01*
X48234940Y26152470D01*
X48246790Y26139770D01*
X48251530Y26114370D01*
X48246790Y26088970D01*
X48232570Y26073100D01*
X48215970Y26063570D01*
X48156710D01*
G01X48215970D02*
X48251530Y25971500D01*
G01X48394620D02*
Y26162000D01*
X48366170Y26123900D01*
G01Y25971500D02*
X48423060D01*
G01X48323500D02*
Y26035000D01*
X48315370Y26022300D01*
G01Y25971500D02*
X48331630D01*
G01X48737350Y26024420D02*
X48741410Y26030770D01*
X48746160Y26033940D01*
X48751570Y26035000D01*
X48758350Y26032880D01*
X48763090Y26027590D01*
X48764440Y26021240D01*
X48763770Y26014890D01*
X48761060Y26009600D01*
X48747510Y25999020D01*
X48741410Y25991610D01*
X48737350Y25981020D01*
X48736000Y25971500D01*
X48764440D01*
G01X48562920Y27103160D02*
X48569270Y27099100D01*
X48572440Y27094360D01*
X48573500Y27088950D01*
X48571380Y27082180D01*
X48566090Y27077440D01*
X48559740Y27076090D01*
X48553390Y27076770D01*
X48548100Y27079470D01*
X48537520Y27093010D01*
X48530110Y27099100D01*
X48519520Y27103160D01*
X48510000Y27104510D01*
Y27076090D01*
G01Y27150300D02*
X48573500D01*
X48560800Y27158420D01*
G01X48510000D02*
Y27142180D01*
G01X48519520Y26905190D02*
X48514230Y26901130D01*
X48511060Y26896390D01*
X48510000Y26890300D01*
X48512120Y26884210D01*
X48516350Y26879470D01*
X48523760Y26876090D01*
X48532220Y26875410D01*
X48540690Y26876770D01*
X48545980Y26880150D01*
X48550220Y26884890D01*
X48551270Y26889620D01*
X48550220Y26894360D01*
X48545980Y26900450D01*
X48573500Y26898420D01*
Y26880150D01*
G01X48510000Y26952180D02*
X48573500D01*
X48527990Y26977220D01*
Y26943380D01*
G01X48522700Y27035190D02*
X48515290Y27031130D01*
X48511060Y27025710D01*
X48510000Y27019620D01*
X48511060Y27014210D01*
X48516350Y27008800D01*
X48522700Y27005410D01*
X48529050Y27004740D01*
X48536460Y27006090D01*
X48541750Y27010830D01*
X48543870Y27015560D01*
Y27021650D01*
G01Y27015560D02*
X48547040Y27011500D01*
X48552330Y27008120D01*
X48558680Y27006770D01*
X48565030Y27008120D01*
X48570320Y27011500D01*
X48573500Y27017590D01*
X48572440Y27023680D01*
X48568210Y27029770D01*
G01X48712700Y27543230D02*
X48706350Y27539850D01*
X48702120Y27535790D01*
X48700000Y27531050D01*
X48702120Y27525640D01*
X48706350Y27521580D01*
X48712700Y27517520D01*
X48721170Y27516170D01*
X48763500D01*
G01X48752920Y27486760D02*
X48759270Y27482700D01*
X48762440Y27477960D01*
X48763500Y27472550D01*
X48761380Y27465780D01*
X48756090Y27461040D01*
X48749740Y27459690D01*
X48743390Y27460370D01*
X48738100Y27463070D01*
X48727520Y27476610D01*
X48720110Y27482700D01*
X48709520Y27486760D01*
X48700000Y27488110D01*
Y27459690D01*
G01X48165850Y27992920D02*
X48169910Y27999270D01*
X48174660Y28002440D01*
X48180070Y28003500D01*
X48186850Y28001380D01*
X48191590Y27996090D01*
X48192940Y27989740D01*
X48192270Y27983390D01*
X48189560Y27978100D01*
X48176010Y27967520D01*
X48169910Y27960110D01*
X48165850Y27949520D01*
X48164500Y27940000D01*
X48192940D01*
G01X48038850Y28945420D02*
X48042910Y28951770D01*
X48047660Y28954940D01*
X48053070Y28956000D01*
X48059850Y28953880D01*
X48064590Y28948590D01*
X48065940Y28942240D01*
X48065270Y28935890D01*
X48062560Y28930600D01*
X48049010Y28920020D01*
X48042910Y28912610D01*
X48038850Y28902020D01*
X48037500Y28892500D01*
X48065940D01*
G01X48102350Y28500920D02*
X48106410Y28507270D01*
X48111160Y28510440D01*
X48116570Y28511500D01*
X48123350Y28509380D01*
X48128090Y28504090D01*
X48129440Y28497740D01*
X48128770Y28491390D01*
X48126060Y28486100D01*
X48112510Y28475520D01*
X48106410Y28468110D01*
X48102350Y28457520D01*
X48101000Y28448000D01*
X48129440D01*
G01X48038850Y29389920D02*
X48042910Y29396270D01*
X48047660Y29399440D01*
X48053070Y29400500D01*
X48059850Y29398380D01*
X48064590Y29393090D01*
X48065940Y29386740D01*
X48065270Y29380390D01*
X48062560Y29375100D01*
X48049010Y29364520D01*
X48042910Y29357110D01*
X48038850Y29346520D01*
X48037500Y29337000D01*
X48065940D01*
G01X49236210Y26098500D02*
Y26289000D01*
X49295470D01*
X49314440Y26279470D01*
X49326290Y26266770D01*
X49331030Y26241370D01*
X49326290Y26215970D01*
X49312070Y26200100D01*
X49295470Y26190570D01*
X49236210D01*
G01X49295470D02*
X49331030Y26098500D01*
G01X49474120D02*
X49490710Y26101670D01*
X49509680Y26111200D01*
X49521530Y26127070D01*
X49526270Y26149300D01*
X49521530Y26171520D01*
X49507310Y26190570D01*
X49485970Y26200100D01*
X49462270D01*
X49448040Y26206450D01*
X49436190Y26222320D01*
X49431450Y26244550D01*
X49438560Y26266770D01*
X49455150Y26282650D01*
X49474120Y26289000D01*
X49493080Y26282650D01*
X49509680Y26266770D01*
X49516790Y26244550D01*
X49512050Y26222320D01*
X49500200Y26206450D01*
X49485970Y26200100D01*
X49462270D01*
X49440930Y26190570D01*
X49426710Y26171520D01*
X49421970Y26149300D01*
X49426710Y26127070D01*
X49438560Y26111200D01*
X49457530Y26101670D01*
X49474120Y26098500D01*
G01X49403000D02*
Y26162000D01*
X49394870Y26149300D01*
G01Y26098500D02*
X49411130D01*
G01X48982210Y27178000D02*
Y27368500D01*
X49041470D01*
X49060440Y27358970D01*
X49072290Y27346270D01*
X49077030Y27320870D01*
X49072290Y27295470D01*
X49058070Y27279600D01*
X49041470Y27270070D01*
X48982210D01*
G01X49041470D02*
X49077030Y27178000D01*
G01X49175080Y27257370D02*
X49191670Y27279600D01*
X49205900Y27292300D01*
X49224860Y27298650D01*
X49241460Y27292300D01*
X49253310Y27279600D01*
X49262790Y27260550D01*
X49265160Y27238320D01*
X49262790Y27219270D01*
X49253310Y27200220D01*
X49239080Y27184350D01*
X49222490Y27178000D01*
X49203530Y27184350D01*
X49186930Y27203390D01*
X49177450Y27231980D01*
X49175080Y27263720D01*
X49179820Y27305000D01*
X49186930Y27327230D01*
X49198780Y27349450D01*
X49215380Y27365330D01*
X49231970Y27368500D01*
X49248570Y27362150D01*
X49260420Y27346270D01*
G01X49149000Y27178000D02*
Y27241500D01*
X49140870Y27228800D01*
G01Y27178000D02*
X49157130D01*
G01X48982210Y26733500D02*
Y26924000D01*
X49041470D01*
X49060440Y26914470D01*
X49072290Y26901770D01*
X49077030Y26876370D01*
X49072290Y26850970D01*
X49058070Y26835100D01*
X49041470Y26825570D01*
X48982210D01*
G01X49041470D02*
X49077030Y26733500D01*
G01X49167970Y26762070D02*
X49182190Y26746200D01*
X49198780Y26736670D01*
X49220120Y26733500D01*
X49241460Y26739850D01*
X49258050Y26752550D01*
X49269900Y26774770D01*
X49272270Y26800170D01*
X49267530Y26825570D01*
X49255680Y26841450D01*
X49239080Y26854150D01*
X49222490Y26857320D01*
X49205900Y26854150D01*
X49184560Y26841450D01*
X49191670Y26924000D01*
X49255680D01*
G01X49149000Y26733500D02*
Y26797000D01*
X49140870Y26784300D01*
G01Y26733500D02*
X49157130D01*
G01X49440000Y28120000D02*
X49376500D01*
X49389200Y28111880D01*
G01X49440000D02*
Y28128120D01*
G01X49045710Y27686000D02*
Y27876500D01*
X49104970D01*
X49123940Y27866970D01*
X49135790Y27854270D01*
X49140530Y27828870D01*
X49135790Y27803470D01*
X49121570Y27787600D01*
X49104970Y27778070D01*
X49045710D01*
G01X49104970D02*
X49140530Y27686000D01*
G01X49278880D02*
X49283620Y27727270D01*
X49290730Y27762200D01*
X49300210Y27793950D01*
X49312070Y27828870D01*
X49331030Y27876500D01*
X49236210D01*
G01X49149000Y27622500D02*
Y27686000D01*
X49140870Y27673300D01*
G01Y27622500D02*
X49157130D01*
G01X49440000Y28890120D02*
X49376500D01*
X49422010Y28865080D01*
Y28898920D01*
G01X49427300Y28613110D02*
X49434710Y28617170D01*
X49438940Y28622590D01*
X49440000Y28628680D01*
X49438940Y28634090D01*
X49433650Y28639500D01*
X49427300Y28642890D01*
X49420950Y28643560D01*
X49413540Y28642210D01*
X49408250Y28637470D01*
X49406130Y28632740D01*
Y28626650D01*
G01Y28632740D02*
X49402960Y28636800D01*
X49397670Y28640180D01*
X49391320Y28641530D01*
X49384970Y28640180D01*
X49379680Y28636800D01*
X49376500Y28630710D01*
X49377560Y28624620D01*
X49381790Y28618530D01*
G01X49387080Y28361140D02*
X49380730Y28365200D01*
X49377560Y28369940D01*
X49376500Y28375350D01*
X49378620Y28382120D01*
X49383910Y28386860D01*
X49390260Y28388210D01*
X49396610Y28387530D01*
X49401900Y28384830D01*
X49412480Y28371290D01*
X49419890Y28365200D01*
X49430480Y28361140D01*
X49440000Y28359790D01*
Y28388210D01*
G01X49292080Y29298900D02*
X49300130Y29286200D01*
X49309770Y29277730D01*
X49321030Y29273500D01*
X49333900Y29277730D01*
X49343550Y29286200D01*
X49353200Y29298900D01*
X49356420Y29315830D01*
Y29400500D01*
G01X49473050Y29273500D02*
Y29400500D01*
X49413540Y29309480D01*
X49493960D01*
G01X49430480Y29121110D02*
X49435770Y29125170D01*
X49438940Y29129910D01*
X49440000Y29136000D01*
X49437880Y29142090D01*
X49433650Y29146830D01*
X49426240Y29150210D01*
X49417780Y29150890D01*
X49409310Y29149530D01*
X49404020Y29146150D01*
X49399780Y29141410D01*
X49398730Y29136680D01*
X49399780Y29131940D01*
X49404020Y29125850D01*
X49376500Y29127880D01*
Y29146150D01*
G01X49816850Y26151420D02*
X49820910Y26157770D01*
X49825660Y26160940D01*
X49831070Y26162000D01*
X49837850Y26159880D01*
X49842590Y26154590D01*
X49843940Y26148240D01*
X49843270Y26141890D01*
X49840560Y26136600D01*
X49827010Y26126020D01*
X49820910Y26118610D01*
X49816850Y26108020D01*
X49815500Y26098500D01*
X49843940D01*
G01X49562850Y27230920D02*
X49566910Y27237270D01*
X49571660Y27240440D01*
X49577070Y27241500D01*
X49583850Y27239380D01*
X49588590Y27234090D01*
X49589940Y27227740D01*
X49589270Y27221390D01*
X49586560Y27216100D01*
X49573010Y27205520D01*
X49566910Y27198110D01*
X49562850Y27187520D01*
X49561500Y27178000D01*
X49589940D01*
G01X49562850Y26786420D02*
X49566910Y26792770D01*
X49571660Y26795940D01*
X49577070Y26797000D01*
X49583850Y26794880D01*
X49588590Y26789590D01*
X49589940Y26783240D01*
X49589270Y26776890D01*
X49586560Y26771600D01*
X49573010Y26761020D01*
X49566910Y26753610D01*
X49562850Y26743020D01*
X49561500Y26733500D01*
X49589940D01*
G01X49562850Y27675420D02*
X49566910Y27681770D01*
X49571660Y27684940D01*
X49577070Y27686000D01*
X49583850Y27683880D01*
X49588590Y27678590D01*
X49589940Y27672240D01*
X49589270Y27665890D01*
X49586560Y27660600D01*
X49573010Y27650020D01*
X49566910Y27642610D01*
X49562850Y27632020D01*
X49561500Y27622500D01*
X49589940D01*
G01X49987300Y28793110D02*
X49994710Y28797170D01*
X49998940Y28802590D01*
X50000000Y28808680D01*
X49998940Y28814090D01*
X49993650Y28819500D01*
X49987300Y28822890D01*
X49980950Y28823560D01*
X49973540Y28822210D01*
X49968250Y28817470D01*
X49966130Y28812740D01*
Y28806650D01*
G01Y28812740D02*
X49962960Y28816800D01*
X49957670Y28820180D01*
X49951320Y28821530D01*
X49944970Y28820180D01*
X49939680Y28816800D01*
X49936500Y28810710D01*
X49937560Y28804620D01*
X49941790Y28798530D01*
G01X49947080Y28541140D02*
X49940730Y28545200D01*
X49937560Y28549940D01*
X49936500Y28555350D01*
X49938620Y28562120D01*
X49943910Y28566860D01*
X49950260Y28568210D01*
X49956610Y28567530D01*
X49961900Y28564830D01*
X49972480Y28551290D01*
X49979890Y28545200D01*
X49990480Y28541140D01*
X50000000Y28539790D01*
Y28568210D01*
G01Y28300000D02*
X49936500D01*
X49949200Y28291880D01*
G01X50000000D02*
Y28308120D01*
G01X49863580Y29489400D02*
X49871630Y29476700D01*
X49881270Y29468230D01*
X49892530Y29464000D01*
X49905400Y29468230D01*
X49915050Y29476700D01*
X49924700Y29489400D01*
X49927920Y29506330D01*
Y29591000D01*
G01X49989870Y29489400D02*
X49999510Y29474580D01*
X50012380Y29466120D01*
X50026860Y29464000D01*
X50039730Y29466120D01*
X50052590Y29476700D01*
X50060630Y29489400D01*
X50062240Y29502100D01*
X50059030Y29516910D01*
X50047770Y29527500D01*
X50036510Y29531730D01*
X50022030D01*
G01X50036510D02*
X50046160Y29538080D01*
X50054200Y29548660D01*
X50057420Y29561370D01*
X50054200Y29574070D01*
X50046160Y29584650D01*
X50031680Y29591000D01*
X50017210Y29588880D01*
X50002730Y29580420D01*
G01X49990480Y29301110D02*
X49995770Y29305170D01*
X49998940Y29309910D01*
X50000000Y29316000D01*
X49997880Y29322090D01*
X49993650Y29326830D01*
X49986240Y29330210D01*
X49977780Y29330890D01*
X49969310Y29329530D01*
X49964020Y29326150D01*
X49959780Y29321410D01*
X49958730Y29316680D01*
X49959780Y29311940D01*
X49964020Y29305850D01*
X49936500Y29307880D01*
Y29326150D01*
G01X50000000Y29070120D02*
X49936500D01*
X49982010Y29045080D01*
Y29078920D01*
G01X50863500Y26617900D02*
X50864560Y26613160D01*
X50867730Y26607750D01*
X50873020Y26604370D01*
X50880430Y26603010D01*
X50887840Y26604370D01*
X50894190Y26608430D01*
X50897370Y26614520D01*
Y26621280D01*
X50899480Y26625340D01*
X50904770Y26628730D01*
X50912180Y26630080D01*
X50919590Y26628050D01*
X50924880Y26623310D01*
X50927000Y26617900D01*
X50924880Y26612490D01*
X50919590Y26607750D01*
X50912180Y26605720D01*
X50904770Y26607070D01*
X50899480Y26610460D01*
X50897370Y26614520D01*
Y26621280D01*
X50894190Y26627370D01*
X50887840Y26631430D01*
X50880430Y26632790D01*
X50873020Y26631430D01*
X50867730Y26628050D01*
X50864560Y26622640D01*
X50863500Y26617900D01*
G01X51015710Y26484700D02*
X51010420Y26479970D01*
X51008300Y26474550D01*
X51010420Y26469140D01*
X51016760Y26464400D01*
X51026290Y26461020D01*
X51035820Y26459670D01*
X51047460D01*
X51056980Y26461020D01*
X51065450Y26464400D01*
X51069680Y26468460D01*
X51071800Y26473200D01*
X51069680Y26478610D01*
X51065450Y26482670D01*
X51059100Y26485380D01*
X51050630Y26486730D01*
X51043230Y26485380D01*
X51035820Y26482000D01*
X51031580Y26477940D01*
X51030520Y26473200D01*
X51032640Y26467790D01*
X51037930Y26463730D01*
X51047460Y26459670D01*
G01X50863500Y27178000D02*
X50927000D01*
X50914300Y27186120D01*
G01X50863500D02*
Y27169880D01*
G01X50916420Y27110860D02*
X50922770Y27106800D01*
X50925940Y27102060D01*
X50927000Y27096650D01*
X50924880Y27089880D01*
X50919590Y27085140D01*
X50913240Y27083790D01*
X50906890Y27084470D01*
X50901600Y27087170D01*
X50891020Y27100710D01*
X50883610Y27106800D01*
X50873020Y27110860D01*
X50863500Y27112210D01*
Y27083790D01*
G01X50876200Y27032890D02*
X50868790Y27028830D01*
X50864560Y27023410D01*
X50863500Y27017320D01*
X50864560Y27011910D01*
X50869850Y27006500D01*
X50876200Y27003110D01*
X50882550Y27002440D01*
X50889960Y27003790D01*
X50895250Y27008530D01*
X50897370Y27013260D01*
Y27019350D01*
G01Y27013260D02*
X50900540Y27009200D01*
X50905830Y27005820D01*
X50912180Y27004470D01*
X50918530Y27005820D01*
X50923820Y27009200D01*
X50927000Y27015290D01*
X50925940Y27021380D01*
X50921710Y27027470D01*
G01X50863500Y26929880D02*
X50927000D01*
X50881490Y26954920D01*
Y26921080D01*
G01X50873020Y26872890D02*
X50867730Y26868830D01*
X50864560Y26864090D01*
X50863500Y26858000D01*
X50865620Y26851910D01*
X50869850Y26847170D01*
X50877260Y26843790D01*
X50885720Y26843110D01*
X50894190Y26844470D01*
X50899480Y26847850D01*
X50903720Y26852590D01*
X50904770Y26857320D01*
X50903720Y26862060D01*
X50899480Y26868150D01*
X50927000Y26866120D01*
Y26847850D01*
G01X50889960Y26790860D02*
X50897370Y26786120D01*
X50901600Y26782060D01*
X50903720Y26776650D01*
X50901600Y26771910D01*
X50897370Y26768530D01*
X50891020Y26765820D01*
X50883610Y26765140D01*
X50877260Y26765820D01*
X50870910Y26768530D01*
X50865620Y26772590D01*
X50863500Y26777320D01*
X50865620Y26782740D01*
X50871960Y26787470D01*
X50881490Y26790180D01*
X50892070Y26790860D01*
X50905830Y26789500D01*
X50913240Y26787470D01*
X50920650Y26784090D01*
X50925940Y26779350D01*
X50927000Y26774620D01*
X50924880Y26769880D01*
X50919590Y26766500D01*
G01X50863500Y26699250D02*
X50877260Y26697900D01*
X50888900Y26695870D01*
X50899480Y26693160D01*
X50911120Y26689780D01*
X50927000Y26684370D01*
Y26711430D01*
G01X51021000Y27365590D02*
X51013590Y27361530D01*
X51009360Y27356110D01*
X51008300Y27350020D01*
X51009360Y27344610D01*
X51014650Y27339200D01*
X51021000Y27335810D01*
X51027350Y27335140D01*
X51034760Y27336490D01*
X51040050Y27341230D01*
X51042170Y27345960D01*
Y27352050D01*
G01Y27345960D02*
X51045340Y27341900D01*
X51050630Y27338520D01*
X51056980Y27337170D01*
X51063330Y27338520D01*
X51068620Y27341900D01*
X51071800Y27347990D01*
X51070740Y27354080D01*
X51066510Y27360170D01*
G01X51061220Y27307760D02*
X51067570Y27303700D01*
X51070740Y27298960D01*
X51071800Y27293550D01*
X51069680Y27286780D01*
X51064390Y27282040D01*
X51058040Y27280690D01*
X51051690Y27281370D01*
X51046400Y27284070D01*
X51035820Y27297610D01*
X51028410Y27303700D01*
X51017820Y27307760D01*
X51008300Y27309110D01*
Y27280690D01*
G01X50950100Y27811130D02*
X50859080D01*
X50840030Y27804700D01*
X50827330Y27791830D01*
X50823100Y27775750D01*
X50827330Y27759670D01*
X50840030Y27746800D01*
X50859080Y27740370D01*
X50950100D01*
G01X50823100Y27646250D02*
X50950100D01*
X50924700Y27665550D01*
G01X50823100D02*
Y27626950D01*
G01X50542270Y28940120D02*
X50528050Y28949650D01*
X50511460Y28956000D01*
X50492490D01*
X50471150Y28946470D01*
X50454560Y28930600D01*
X50442710Y28911550D01*
X50433220Y28879800D01*
X50430850Y28851220D01*
X50435600Y28822650D01*
X50442710Y28803600D01*
X50456930Y28784550D01*
X50473530Y28771850D01*
X50490120Y28765500D01*
X50506710D01*
X50523310Y28771850D01*
X50537530Y28781370D01*
X50549390Y28794070D01*
G01X50709070Y28765500D02*
Y28956000D01*
X50621350Y28819480D01*
X50739890D01*
G01X50546000Y28575000D02*
Y28638500D01*
X50537870Y28625800D01*
G01Y28575000D02*
X50554130D01*
G01X50959850Y28627920D02*
X50963910Y28634270D01*
X50968660Y28637440D01*
X50974070Y28638500D01*
X50980850Y28636380D01*
X50985590Y28631090D01*
X50986940Y28624740D01*
X50986270Y28618390D01*
X50983560Y28613100D01*
X50970010Y28602520D01*
X50963910Y28595110D01*
X50959850Y28584520D01*
X50958500Y28575000D01*
X50986940D01*
G01X50478770Y29575120D02*
X50464550Y29584650D01*
X50447960Y29591000D01*
X50428990D01*
X50407650Y29581470D01*
X50391060Y29565600D01*
X50379210Y29546550D01*
X50369720Y29514800D01*
X50367350Y29486220D01*
X50372100Y29457650D01*
X50379210Y29438600D01*
X50393430Y29419550D01*
X50410030Y29406850D01*
X50426620Y29400500D01*
X50443210D01*
X50459810Y29406850D01*
X50474030Y29416370D01*
X50485890Y29429070D01*
G01X50572080Y29559250D02*
X50586300Y29578300D01*
X50602900Y29587830D01*
X50621860Y29591000D01*
X50645570Y29584650D01*
X50662160Y29568770D01*
X50666900Y29549730D01*
X50664530Y29530670D01*
X50655050Y29514800D01*
X50607640Y29483050D01*
X50586300Y29460820D01*
X50572080Y29429070D01*
X50567340Y29400500D01*
X50666900D01*
G01X50482500Y29337000D02*
Y29400500D01*
X50474370Y29387800D01*
G01Y29337000D02*
X50490630D01*
G01X50896350Y29389920D02*
X50900410Y29396270D01*
X50905160Y29399440D01*
X50910570Y29400500D01*
X50917350Y29398380D01*
X50922090Y29393090D01*
X50923440Y29386740D01*
X50922770Y29380390D01*
X50920060Y29375100D01*
X50906510Y29364520D01*
X50900410Y29357110D01*
X50896350Y29346520D01*
X50895000Y29337000D01*
X50923440D01*
G01X51088300Y26501100D02*
X51151800D01*
X51139100Y26509220D01*
G01X51088300D02*
Y26492980D01*
G01X51151800Y26445300D02*
X51149680Y26450710D01*
X51144390Y26454770D01*
X51138040Y26457480D01*
X51129570Y26459510D01*
X51120050Y26460190D01*
X51110520Y26459510D01*
X51102060Y26457480D01*
X51095710Y26454770D01*
X51090420Y26450710D01*
X51088300Y26445300D01*
X51090420Y26439890D01*
X51095710Y26435830D01*
X51102060Y26433120D01*
X51110520Y26431090D01*
X51120050Y26430410D01*
X51129570Y26431090D01*
X51138040Y26433120D01*
X51144390Y26435830D01*
X51149680Y26439890D01*
X51151800Y26445300D01*
G01X51168300Y26501100D02*
X51231800D01*
X51219100Y26509220D01*
G01X51168300D02*
Y26492980D01*
G01Y26445300D02*
X51231800D01*
X51219100Y26453420D01*
G01X51168300D02*
Y26437180D01*
G01X51248300Y26501100D02*
X51311800D01*
X51299100Y26509220D01*
G01X51248300D02*
Y26492980D01*
G01X51301220Y26458160D02*
X51307570Y26454100D01*
X51310740Y26449360D01*
X51311800Y26443950D01*
X51309680Y26437180D01*
X51304390Y26432440D01*
X51298040Y26431090D01*
X51291690Y26431770D01*
X51286400Y26434470D01*
X51275820Y26448010D01*
X51268410Y26454100D01*
X51257820Y26458160D01*
X51248300Y26459510D01*
Y26431090D01*
G01X51328300Y26501100D02*
X51391800D01*
X51379100Y26509220D01*
G01X51328300D02*
Y26492980D01*
G01X51341000Y26460190D02*
X51333590Y26456130D01*
X51329360Y26450710D01*
X51328300Y26444620D01*
X51329360Y26439210D01*
X51334650Y26433800D01*
X51341000Y26430410D01*
X51347350Y26429740D01*
X51354760Y26431090D01*
X51360050Y26435830D01*
X51362170Y26440560D01*
Y26446650D01*
G01Y26440560D02*
X51365340Y26436500D01*
X51370630Y26433120D01*
X51376980Y26431770D01*
X51383330Y26433120D01*
X51388620Y26436500D01*
X51391800Y26442590D01*
X51390740Y26448680D01*
X51386510Y26454770D01*
G01X51408300Y26501100D02*
X51471800D01*
X51459100Y26509220D01*
G01X51408300D02*
Y26492980D01*
G01Y26437180D02*
X51471800D01*
X51426290Y26462220D01*
Y26428380D01*
G01X51488300Y26501100D02*
X51551800D01*
X51539100Y26509220D01*
G01X51488300D02*
Y26492980D01*
G01X51497820Y26460190D02*
X51492530Y26456130D01*
X51489360Y26451390D01*
X51488300Y26445300D01*
X51490420Y26439210D01*
X51494650Y26434470D01*
X51502060Y26431090D01*
X51510520Y26430410D01*
X51518990Y26431770D01*
X51524280Y26435150D01*
X51528520Y26439890D01*
X51529570Y26444620D01*
X51528520Y26449360D01*
X51524280Y26455450D01*
X51551800Y26453420D01*
Y26435150D01*
G01X51568300Y26501100D02*
X51631800D01*
X51619100Y26509220D01*
G01X51568300D02*
Y26492980D01*
G01X51594760Y26458160D02*
X51602170Y26453420D01*
X51606400Y26449360D01*
X51608520Y26443950D01*
X51606400Y26439210D01*
X51602170Y26435830D01*
X51595820Y26433120D01*
X51588410Y26432440D01*
X51582060Y26433120D01*
X51575710Y26435830D01*
X51570420Y26439890D01*
X51568300Y26444620D01*
X51570420Y26450040D01*
X51576760Y26454770D01*
X51586290Y26457480D01*
X51596870Y26458160D01*
X51610630Y26456800D01*
X51618040Y26454770D01*
X51625450Y26451390D01*
X51630740Y26446650D01*
X51631800Y26441920D01*
X51629680Y26437180D01*
X51624390Y26433800D01*
G01X51713100Y26645800D02*
X51776600D01*
X51763900Y26653920D01*
G01X51713100D02*
Y26637680D01*
G01Y26591350D02*
X51726860Y26590000D01*
X51738500Y26587970D01*
X51749080Y26585260D01*
X51760720Y26581880D01*
X51776600Y26576470D01*
Y26603530D01*
G01X51713100Y26725800D02*
X51776600D01*
X51763900Y26733920D01*
G01X51713100D02*
Y26717680D01*
G01Y26670000D02*
X51714160Y26665260D01*
X51717330Y26659850D01*
X51722620Y26656470D01*
X51730030Y26655110D01*
X51737440Y26656470D01*
X51743790Y26660530D01*
X51746970Y26666620D01*
Y26673380D01*
X51749080Y26677440D01*
X51754370Y26680830D01*
X51761780Y26682180D01*
X51769190Y26680150D01*
X51774480Y26675410D01*
X51776600Y26670000D01*
X51774480Y26664590D01*
X51769190Y26659850D01*
X51761780Y26657820D01*
X51754370Y26659170D01*
X51749080Y26662560D01*
X51746970Y26666620D01*
Y26673380D01*
X51743790Y26679470D01*
X51737440Y26683530D01*
X51730030Y26684890D01*
X51722620Y26683530D01*
X51717330Y26680150D01*
X51714160Y26674740D01*
X51713100Y26670000D01*
G01Y26805900D02*
X51776600D01*
X51763900Y26814020D01*
G01X51713100D02*
Y26797780D01*
G01X51720510Y26761600D02*
X51715220Y26756870D01*
X51713100Y26751450D01*
X51715220Y26746040D01*
X51721560Y26741300D01*
X51731090Y26737920D01*
X51740620Y26736570D01*
X51752260D01*
X51761780Y26737920D01*
X51770250Y26741300D01*
X51774480Y26745360D01*
X51776600Y26750100D01*
X51774480Y26755510D01*
X51770250Y26759570D01*
X51763900Y26762280D01*
X51755430Y26763630D01*
X51748030Y26762280D01*
X51740620Y26758900D01*
X51736380Y26754840D01*
X51735320Y26750100D01*
X51737440Y26744690D01*
X51742730Y26740630D01*
X51752260Y26736570D01*
G01X51766020Y26898760D02*
X51772370Y26894700D01*
X51775540Y26889960D01*
X51776600Y26884550D01*
X51774480Y26877780D01*
X51769190Y26873040D01*
X51762840Y26871690D01*
X51756490Y26872370D01*
X51751200Y26875070D01*
X51740620Y26888610D01*
X51733210Y26894700D01*
X51722620Y26898760D01*
X51713100Y26900110D01*
Y26871690D01*
G01X51776600Y26830100D02*
X51774480Y26835510D01*
X51769190Y26839570D01*
X51762840Y26842280D01*
X51754370Y26844310D01*
X51744850Y26844990D01*
X51735320Y26844310D01*
X51726860Y26842280D01*
X51720510Y26839570D01*
X51715220Y26835510D01*
X51713100Y26830100D01*
X51715220Y26824690D01*
X51720510Y26820630D01*
X51726860Y26817920D01*
X51735320Y26815890D01*
X51744850Y26815210D01*
X51754370Y26815890D01*
X51762840Y26817920D01*
X51769190Y26820630D01*
X51774480Y26824690D01*
X51776600Y26830100D01*
G01X51766020Y26978760D02*
X51772370Y26974700D01*
X51775540Y26969960D01*
X51776600Y26964550D01*
X51774480Y26957780D01*
X51769190Y26953040D01*
X51762840Y26951690D01*
X51756490Y26952370D01*
X51751200Y26955070D01*
X51740620Y26968610D01*
X51733210Y26974700D01*
X51722620Y26978760D01*
X51713100Y26980110D01*
Y26951690D01*
G01Y26910100D02*
X51776600D01*
X51763900Y26918220D01*
G01X51713100D02*
Y26901980D01*
G01X51766020Y27058760D02*
X51772370Y27054700D01*
X51775540Y27049960D01*
X51776600Y27044550D01*
X51774480Y27037780D01*
X51769190Y27033040D01*
X51762840Y27031690D01*
X51756490Y27032370D01*
X51751200Y27035070D01*
X51740620Y27048610D01*
X51733210Y27054700D01*
X51722620Y27058760D01*
X51713100Y27060110D01*
Y27031690D01*
G01X51766020Y27002960D02*
X51772370Y26998900D01*
X51775540Y26994160D01*
X51776600Y26988750D01*
X51774480Y26981980D01*
X51769190Y26977240D01*
X51762840Y26975890D01*
X51756490Y26976570D01*
X51751200Y26979270D01*
X51740620Y26992810D01*
X51733210Y26998900D01*
X51722620Y27002960D01*
X51713100Y27004310D01*
Y26975890D01*
G01X51766020Y27138760D02*
X51772370Y27134700D01*
X51775540Y27129960D01*
X51776600Y27124550D01*
X51774480Y27117780D01*
X51769190Y27113040D01*
X51762840Y27111690D01*
X51756490Y27112370D01*
X51751200Y27115070D01*
X51740620Y27128610D01*
X51733210Y27134700D01*
X51722620Y27138760D01*
X51713100Y27140110D01*
Y27111690D01*
G01X51725800Y27084990D02*
X51718390Y27080930D01*
X51714160Y27075510D01*
X51713100Y27069420D01*
X51714160Y27064010D01*
X51719450Y27058600D01*
X51725800Y27055210D01*
X51732150Y27054540D01*
X51739560Y27055890D01*
X51744850Y27060630D01*
X51746970Y27065360D01*
Y27071450D01*
G01Y27065360D02*
X51750140Y27061300D01*
X51755430Y27057920D01*
X51761780Y27056570D01*
X51768130Y27057920D01*
X51773420Y27061300D01*
X51776600Y27067390D01*
X51775540Y27073480D01*
X51771310Y27079570D01*
G01X51766020Y27218760D02*
X51772370Y27214700D01*
X51775540Y27209960D01*
X51776600Y27204550D01*
X51774480Y27197780D01*
X51769190Y27193040D01*
X51762840Y27191690D01*
X51756490Y27192370D01*
X51751200Y27195070D01*
X51740620Y27208610D01*
X51733210Y27214700D01*
X51722620Y27218760D01*
X51713100Y27220110D01*
Y27191690D01*
G01Y27141980D02*
X51776600D01*
X51731090Y27167020D01*
Y27133180D01*
G01X51621220Y27363560D02*
X51627570Y27359500D01*
X51630740Y27354760D01*
X51631800Y27349350D01*
X51629680Y27342580D01*
X51624390Y27337840D01*
X51618040Y27336490D01*
X51611690Y27337170D01*
X51606400Y27339870D01*
X51595820Y27353410D01*
X51588410Y27359500D01*
X51577820Y27363560D01*
X51568300Y27364910D01*
Y27336490D01*
G01X51577820Y27309790D02*
X51572530Y27305730D01*
X51569360Y27300990D01*
X51568300Y27294900D01*
X51570420Y27288810D01*
X51574650Y27284070D01*
X51582060Y27280690D01*
X51590520Y27280010D01*
X51598990Y27281370D01*
X51604280Y27284750D01*
X51608520Y27289490D01*
X51609570Y27294220D01*
X51608520Y27298960D01*
X51604280Y27305050D01*
X51631800Y27303020D01*
Y27284750D01*
G01X51541220Y27363560D02*
X51547570Y27359500D01*
X51550740Y27354760D01*
X51551800Y27349350D01*
X51549680Y27342580D01*
X51544390Y27337840D01*
X51538040Y27336490D01*
X51531690Y27337170D01*
X51526400Y27339870D01*
X51515820Y27353410D01*
X51508410Y27359500D01*
X51497820Y27363560D01*
X51488300Y27364910D01*
Y27336490D01*
G01X51514760Y27307760D02*
X51522170Y27303020D01*
X51526400Y27298960D01*
X51528520Y27293550D01*
X51526400Y27288810D01*
X51522170Y27285430D01*
X51515820Y27282720D01*
X51508410Y27282040D01*
X51502060Y27282720D01*
X51495710Y27285430D01*
X51490420Y27289490D01*
X51488300Y27294220D01*
X51490420Y27299640D01*
X51496760Y27304370D01*
X51506290Y27307080D01*
X51516870Y27307760D01*
X51530630Y27306400D01*
X51538040Y27304370D01*
X51545450Y27300990D01*
X51550740Y27296250D01*
X51551800Y27291520D01*
X51549680Y27286780D01*
X51544390Y27283400D01*
G01X51461220Y27363560D02*
X51467570Y27359500D01*
X51470740Y27354760D01*
X51471800Y27349350D01*
X51469680Y27342580D01*
X51464390Y27337840D01*
X51458040Y27336490D01*
X51451690Y27337170D01*
X51446400Y27339870D01*
X51435820Y27353410D01*
X51428410Y27359500D01*
X51417820Y27363560D01*
X51408300Y27364910D01*
Y27336490D01*
G01Y27296250D02*
X51422060Y27294900D01*
X51433700Y27292870D01*
X51444280Y27290160D01*
X51455920Y27286780D01*
X51471800Y27281370D01*
Y27308430D01*
G01X51381220Y27363560D02*
X51387570Y27359500D01*
X51390740Y27354760D01*
X51391800Y27349350D01*
X51389680Y27342580D01*
X51384390Y27337840D01*
X51378040Y27336490D01*
X51371690Y27337170D01*
X51366400Y27339870D01*
X51355820Y27353410D01*
X51348410Y27359500D01*
X51337820Y27363560D01*
X51328300Y27364910D01*
Y27336490D01*
G01Y27294900D02*
X51329360Y27290160D01*
X51332530Y27284750D01*
X51337820Y27281370D01*
X51345230Y27280010D01*
X51352640Y27281370D01*
X51358990Y27285430D01*
X51362170Y27291520D01*
Y27298280D01*
X51364280Y27302340D01*
X51369570Y27305730D01*
X51376980Y27307080D01*
X51384390Y27305050D01*
X51389680Y27300310D01*
X51391800Y27294900D01*
X51389680Y27289490D01*
X51384390Y27284750D01*
X51376980Y27282720D01*
X51369570Y27284070D01*
X51364280Y27287460D01*
X51362170Y27291520D01*
Y27298280D01*
X51358990Y27304370D01*
X51352640Y27308430D01*
X51345230Y27309790D01*
X51337820Y27308430D01*
X51332530Y27305050D01*
X51329360Y27299640D01*
X51328300Y27294900D01*
G01X51301220Y27363560D02*
X51307570Y27359500D01*
X51310740Y27354760D01*
X51311800Y27349350D01*
X51309680Y27342580D01*
X51304390Y27337840D01*
X51298040Y27336490D01*
X51291690Y27337170D01*
X51286400Y27339870D01*
X51275820Y27353410D01*
X51268410Y27359500D01*
X51257820Y27363560D01*
X51248300Y27364910D01*
Y27336490D01*
G01X51255710Y27306400D02*
X51250420Y27301670D01*
X51248300Y27296250D01*
X51250420Y27290840D01*
X51256760Y27286100D01*
X51266290Y27282720D01*
X51275820Y27281370D01*
X51287460D01*
X51296980Y27282720D01*
X51305450Y27286100D01*
X51309680Y27290160D01*
X51311800Y27294900D01*
X51309680Y27300310D01*
X51305450Y27304370D01*
X51299100Y27307080D01*
X51290630Y27308430D01*
X51283230Y27307080D01*
X51275820Y27303700D01*
X51271580Y27299640D01*
X51270520Y27294900D01*
X51272640Y27289490D01*
X51277930Y27285430D01*
X51287460Y27281370D01*
G01X51181000Y27365590D02*
X51173590Y27361530D01*
X51169360Y27356110D01*
X51168300Y27350020D01*
X51169360Y27344610D01*
X51174650Y27339200D01*
X51181000Y27335810D01*
X51187350Y27335140D01*
X51194760Y27336490D01*
X51200050Y27341230D01*
X51202170Y27345960D01*
Y27352050D01*
G01Y27345960D02*
X51205340Y27341900D01*
X51210630Y27338520D01*
X51216980Y27337170D01*
X51223330Y27338520D01*
X51228620Y27341900D01*
X51231800Y27347990D01*
X51230740Y27354080D01*
X51226510Y27360170D01*
G01X51231800Y27294900D02*
X51229680Y27300310D01*
X51224390Y27304370D01*
X51218040Y27307080D01*
X51209570Y27309110D01*
X51200050Y27309790D01*
X51190520Y27309110D01*
X51182060Y27307080D01*
X51175710Y27304370D01*
X51170420Y27300310D01*
X51168300Y27294900D01*
X51170420Y27289490D01*
X51175710Y27285430D01*
X51182060Y27282720D01*
X51190520Y27280690D01*
X51200050Y27280010D01*
X51209570Y27280690D01*
X51218040Y27282720D01*
X51224390Y27285430D01*
X51229680Y27289490D01*
X51231800Y27294900D01*
G01X51101000Y27365590D02*
X51093590Y27361530D01*
X51089360Y27356110D01*
X51088300Y27350020D01*
X51089360Y27344610D01*
X51094650Y27339200D01*
X51101000Y27335810D01*
X51107350Y27335140D01*
X51114760Y27336490D01*
X51120050Y27341230D01*
X51122170Y27345960D01*
Y27352050D01*
G01Y27345960D02*
X51125340Y27341900D01*
X51130630Y27338520D01*
X51136980Y27337170D01*
X51143330Y27338520D01*
X51148620Y27341900D01*
X51151800Y27347990D01*
X51150740Y27354080D01*
X51146510Y27360170D01*
G01X51088300Y27294900D02*
X51151800D01*
X51139100Y27303020D01*
G01X51088300D02*
Y27286780D01*
G01X52569200Y28321000D02*
Y28384500D01*
G01Y28353810D02*
X52565810Y28359100D01*
X52562420Y28362270D01*
X52557000Y28363330D01*
X52552940Y28362270D01*
X52548200Y28358040D01*
X52546160Y28351690D01*
Y28321000D01*
G01X52511280D02*
Y28363330D01*
G01Y28354870D02*
X52507900Y28359100D01*
X52504510Y28362270D01*
X52499770Y28363330D01*
X52496380Y28362270D01*
X52492320Y28359100D01*
G01X52456760Y28305120D02*
X52452020Y28300890D01*
X52447950Y28299830D01*
X52442530Y28301950D01*
X52438470Y28307240D01*
X52436440Y28316770D01*
Y28363330D01*
G01Y28380270D02*
X52437790Y28381320D01*
Y28383440D01*
X52436440Y28384500D01*
X52435080Y28383440D01*
Y28381320D01*
X52436440Y28380270D01*
G01X52390040Y28321000D02*
X52394100Y28322060D01*
X52398170Y28326290D01*
X52400880Y28333700D01*
X52402230Y28342170D01*
X52400880Y28350630D01*
X52398170Y28358040D01*
X52394100Y28362270D01*
X52390040Y28363330D01*
X52385980Y28362270D01*
X52381910Y28358040D01*
X52379200Y28350630D01*
X52378520Y28342170D01*
X52379200Y28333700D01*
X52381910Y28326290D01*
X52385980Y28322060D01*
X52390040Y28321000D01*
G01X52344320Y28349570D02*
X52322640D01*
X52324680Y28356980D01*
X52328060Y28361220D01*
X52332810Y28363330D01*
X52337550Y28362270D01*
X52341610Y28359100D01*
X52344320Y28351690D01*
X52345680Y28345340D01*
Y28338990D01*
X52344320Y28332640D01*
X52340930Y28326290D01*
X52336870Y28322060D01*
X52332130Y28321000D01*
X52327390Y28323120D01*
X52322640Y28329460D01*
G01X52289800Y28321000D02*
Y28363330D01*
G01Y28352750D02*
X52287090Y28358040D01*
X52283020Y28362270D01*
X52277600Y28363330D01*
X52272860Y28362270D01*
X52268800Y28358040D01*
X52266760Y28350630D01*
Y28321000D01*
G01X52166520D02*
Y28384500D01*
X52174650Y28371800D01*
G01Y28321000D02*
X52158390D01*
G01X52122160Y28328410D02*
X52117410Y28323120D01*
X52111990Y28321000D01*
X52106580Y28323120D01*
X52101830Y28329460D01*
X52098450Y28338990D01*
X52097090Y28348520D01*
Y28360160D01*
X52098450Y28369680D01*
X52101830Y28378150D01*
X52105900Y28382380D01*
X52110640Y28384500D01*
X52116060Y28382380D01*
X52120120Y28378150D01*
X52122830Y28371800D01*
X52124190Y28363330D01*
X52122830Y28355930D01*
X52119450Y28348520D01*
X52115380Y28344280D01*
X52110640Y28343220D01*
X52105220Y28345340D01*
X52101160Y28350630D01*
X52097090Y28360160D01*
G01X52054760Y28318880D02*
X52056110Y28319940D01*
Y28322060D01*
X52054760Y28323120D01*
X52053410Y28322060D01*
Y28319940D01*
X52054760Y28318880D01*
G01X51998880Y28384500D02*
X52004300Y28382380D01*
X52008360Y28377090D01*
X52011070Y28370740D01*
X52013100Y28362270D01*
X52013780Y28352750D01*
X52013100Y28343220D01*
X52011070Y28334760D01*
X52008360Y28328410D01*
X52004300Y28323120D01*
X51998880Y28321000D01*
X51993460Y28323120D01*
X51989400Y28328410D01*
X51986690Y28334760D01*
X51984660Y28343220D01*
X51983980Y28352750D01*
X51984660Y28362270D01*
X51986690Y28370740D01*
X51989400Y28377090D01*
X51993460Y28382380D01*
X51998880Y28384500D01*
G01X51944350Y28321000D02*
X51943000Y28334760D01*
X51940970Y28346400D01*
X51938260Y28356980D01*
X51934870Y28368620D01*
X51929450Y28384500D01*
X51956550D01*
G01X51887120Y28318880D02*
X51888470Y28319940D01*
Y28322060D01*
X51887120Y28323120D01*
X51885770Y28322060D01*
Y28319940D01*
X51887120Y28318880D01*
G01X51844110Y28373920D02*
X51840050Y28380270D01*
X51835300Y28383440D01*
X51829890Y28384500D01*
X51823110Y28382380D01*
X51818370Y28377090D01*
X51817020Y28370740D01*
X51817690Y28364390D01*
X51820400Y28359100D01*
X51833950Y28348520D01*
X51840050Y28341110D01*
X51844110Y28330520D01*
X51845460Y28321000D01*
X51817020D01*
G01X51786880Y28328410D02*
X51782130Y28323120D01*
X51776710Y28321000D01*
X51771300Y28323120D01*
X51766550Y28329460D01*
X51763170Y28338990D01*
X51761810Y28348520D01*
Y28360160D01*
X51763170Y28369680D01*
X51766550Y28378150D01*
X51770620Y28382380D01*
X51775360Y28384500D01*
X51780780Y28382380D01*
X51784840Y28378150D01*
X51787550Y28371800D01*
X51788910Y28363330D01*
X51787550Y28355930D01*
X51784170Y28348520D01*
X51780100Y28344280D01*
X51775360Y28343220D01*
X51769940Y28345340D01*
X51765880Y28350630D01*
X51761810Y28360160D01*
G01X51419750Y29337000D02*
Y29394150D01*
X51387580Y29464000D01*
G01X51451920D02*
X51419750Y29394150D01*
G01X51518690Y29442830D02*
X51528340Y29455530D01*
X51539600Y29461880D01*
X51552470Y29464000D01*
X51568550Y29459770D01*
X51579810Y29449180D01*
X51583030Y29436490D01*
X51581420Y29423780D01*
X51574980Y29413200D01*
X51542820Y29392030D01*
X51528340Y29377220D01*
X51518690Y29356050D01*
X51515470Y29337000D01*
X51583030D01*
G01X51540000Y29240000D02*
Y29303500D01*
X51531880Y29290800D01*
G01Y29240000D02*
X51548120D01*
G01X52289140Y29292920D02*
X52293200Y29299270D01*
X52297940Y29302440D01*
X52303350Y29303500D01*
X52310120Y29301380D01*
X52314860Y29296090D01*
X52316210Y29289740D01*
X52315530Y29283390D01*
X52312830Y29278100D01*
X52299290Y29267520D01*
X52293200Y29260110D01*
X52289140Y29249520D01*
X52287790Y29240000D01*
X52316210D01*
G01X52792210Y26416000D02*
Y26606500D01*
X52851470D01*
X52870440Y26596970D01*
X52882290Y26584270D01*
X52887030Y26558870D01*
X52882290Y26533470D01*
X52868070Y26517600D01*
X52851470Y26508070D01*
X52792210D01*
G01X52851470D02*
X52887030Y26416000D01*
G01X53030120D02*
Y26606500D01*
X53001670Y26568400D01*
G01Y26416000D02*
X53058560D01*
G01X53249070D02*
Y26606500D01*
X53161350Y26469980D01*
X53279890D01*
G01X52895500Y26352500D02*
Y26416000D01*
X52887370Y26403300D01*
G01Y26352500D02*
X52903630D01*
G01X53309350Y26405420D02*
X53313410Y26411770D01*
X53318160Y26414940D01*
X53323570Y26416000D01*
X53330350Y26413880D01*
X53335090Y26408590D01*
X53336440Y26402240D01*
X53335770Y26395890D01*
X53333060Y26390600D01*
X53319510Y26380020D01*
X53313410Y26372610D01*
X53309350Y26362020D01*
X53308000Y26352500D01*
X53336440D01*
G01X52855710Y27305000D02*
Y27495500D01*
X52914970D01*
X52933940Y27485970D01*
X52945790Y27473270D01*
X52950530Y27447870D01*
X52945790Y27422470D01*
X52931570Y27406600D01*
X52914970Y27397070D01*
X52855710D01*
G01X52914970D02*
X52950530Y27305000D01*
G01X53041470Y27343100D02*
X53055690Y27320870D01*
X53074650Y27308170D01*
X53095990Y27305000D01*
X53114960Y27308170D01*
X53133920Y27324050D01*
X53145770Y27343100D01*
X53148140Y27362150D01*
X53143400Y27384370D01*
X53126810Y27400250D01*
X53110210Y27406600D01*
X53088880D01*
G01X53110210D02*
X53124440Y27416120D01*
X53136290Y27432000D01*
X53141030Y27451050D01*
X53136290Y27470100D01*
X53124440Y27485970D01*
X53103100Y27495500D01*
X53081770Y27492330D01*
X53060430Y27479620D01*
G01X52895500Y27305000D02*
Y27368500D01*
X52887370Y27355800D01*
G01Y27305000D02*
X52903630D01*
G01X53309350Y27357920D02*
X53313410Y27364270D01*
X53318160Y27367440D01*
X53323570Y27368500D01*
X53330350Y27366380D01*
X53335090Y27361090D01*
X53336440Y27354740D01*
X53335770Y27348390D01*
X53333060Y27343100D01*
X53319510Y27332520D01*
X53313410Y27325110D01*
X53309350Y27314520D01*
X53308000Y27305000D01*
X53336440D01*
G01X52855710Y26860500D02*
Y27051000D01*
X52914970D01*
X52933940Y27041470D01*
X52945790Y27028770D01*
X52950530Y27003370D01*
X52945790Y26977970D01*
X52931570Y26962100D01*
X52914970Y26952570D01*
X52855710D01*
G01X52914970D02*
X52950530Y26860500D01*
G01X53122070D02*
Y27051000D01*
X53034350Y26914480D01*
X53152890D01*
G01X52895500Y26860500D02*
Y26924000D01*
X52887370Y26911300D01*
G01Y26860500D02*
X52903630D01*
G01X53309350Y26913420D02*
X53313410Y26919770D01*
X53318160Y26922940D01*
X53323570Y26924000D01*
X53330350Y26921880D01*
X53335090Y26916590D01*
X53336440Y26910240D01*
X53335770Y26903890D01*
X53333060Y26898600D01*
X53319510Y26888020D01*
X53313410Y26880610D01*
X53309350Y26870020D01*
X53308000Y26860500D01*
X53336440D01*
G01X52792210Y27876500D02*
Y28067000D01*
X52851470D01*
X52870440Y28057470D01*
X52882290Y28044770D01*
X52887030Y28019370D01*
X52882290Y27993970D01*
X52868070Y27978100D01*
X52851470Y27968570D01*
X52792210D01*
G01X52851470D02*
X52887030Y27876500D01*
G01X52985080Y28035250D02*
X52999300Y28054300D01*
X53015900Y28063830D01*
X53034860Y28067000D01*
X53058570Y28060650D01*
X53075160Y28044770D01*
X53079900Y28025730D01*
X53077530Y28006670D01*
X53068050Y27990800D01*
X53020640Y27959050D01*
X52999300Y27936820D01*
X52985080Y27905070D01*
X52980340Y27876500D01*
X53079900D01*
G01X52895500Y27749500D02*
Y27813000D01*
X52887370Y27800300D01*
G01Y27749500D02*
X52903630D01*
G01X53309350Y27802420D02*
X53313410Y27808770D01*
X53318160Y27811940D01*
X53323570Y27813000D01*
X53330350Y27810880D01*
X53335090Y27805590D01*
X53336440Y27799240D01*
X53335770Y27792890D01*
X53333060Y27787600D01*
X53319510Y27777020D01*
X53313410Y27769610D01*
X53309350Y27759020D01*
X53308000Y27749500D01*
X53336440D01*
G01X52832000Y28829000D02*
X52768500D01*
X52781200Y28820870D01*
G01X52832000D02*
Y28837130D01*
G01X53209270Y28749620D02*
X53195050Y28759150D01*
X53178460Y28765500D01*
X53159490D01*
X53138150Y28755970D01*
X53121560Y28740100D01*
X53109710Y28721050D01*
X53100220Y28689300D01*
X53097850Y28660720D01*
X53102600Y28632150D01*
X53109710Y28613100D01*
X53123930Y28594050D01*
X53140530Y28581350D01*
X53157120Y28575000D01*
X53173710D01*
X53190310Y28581350D01*
X53204530Y28590870D01*
X53216390Y28603570D01*
G01X53347620Y28575000D02*
Y28765500D01*
X53319170Y28727400D01*
G01Y28575000D02*
X53376060D01*
G01X53538120Y28765500D02*
X53519150Y28759150D01*
X53504930Y28743270D01*
X53495450Y28724230D01*
X53488340Y28698820D01*
X53485970Y28670250D01*
X53488340Y28641670D01*
X53495450Y28616270D01*
X53504930Y28597220D01*
X53519150Y28581350D01*
X53538120Y28575000D01*
X53557080Y28581350D01*
X53571310Y28597220D01*
X53580790Y28616270D01*
X53587900Y28641670D01*
X53590270Y28670250D01*
X53587900Y28698820D01*
X53580790Y28724230D01*
X53571310Y28743270D01*
X53557080Y28759150D01*
X53538120Y28765500D01*
G01X53053150Y28395080D02*
X53049090Y28388730D01*
X53044340Y28385560D01*
X53038930Y28384500D01*
X53032150Y28386620D01*
X53027410Y28391910D01*
X53026060Y28398260D01*
X53026730Y28404610D01*
X53029440Y28409900D01*
X53042990Y28420480D01*
X53049090Y28427890D01*
X53053150Y28438480D01*
X53054500Y28448000D01*
X53026060D01*
G01X52764770Y29511620D02*
X52750550Y29521150D01*
X52733960Y29527500D01*
X52714990D01*
X52693650Y29517970D01*
X52677060Y29502100D01*
X52665210Y29483050D01*
X52655720Y29451300D01*
X52653350Y29422720D01*
X52658100Y29394150D01*
X52665210Y29375100D01*
X52679430Y29356050D01*
X52696030Y29343350D01*
X52712620Y29337000D01*
X52729210D01*
X52745810Y29343350D01*
X52760030Y29352870D01*
X52771890Y29365570D01*
G01X52850970Y29375100D02*
X52865190Y29352870D01*
X52884150Y29340170D01*
X52905490Y29337000D01*
X52924460Y29340170D01*
X52943420Y29356050D01*
X52955270Y29375100D01*
X52957640Y29394150D01*
X52952900Y29416370D01*
X52936310Y29432250D01*
X52919710Y29438600D01*
X52898380D01*
G01X52919710D02*
X52933940Y29448120D01*
X52945790Y29464000D01*
X52950530Y29483050D01*
X52945790Y29502100D01*
X52933940Y29517970D01*
X52912600Y29527500D01*
X52891270Y29524330D01*
X52869930Y29511620D01*
G01X52779080Y29242850D02*
X52772730Y29246910D01*
X52769560Y29251660D01*
X52768500Y29257070D01*
X52770620Y29263850D01*
X52775910Y29268590D01*
X52782260Y29269940D01*
X52788610Y29269270D01*
X52793900Y29266560D01*
X52804480Y29253010D01*
X52811890Y29246910D01*
X52822480Y29242850D01*
X52832000Y29241500D01*
Y29269940D01*
G01X53467000Y28448000D02*
Y28384500D01*
X53475130Y28397200D01*
G01Y28448000D02*
X53458870D01*
G01X54380000Y26440000D02*
X54316500D01*
X54329200Y26431880D01*
G01X54380000D02*
Y26448120D01*
G01Y27210120D02*
X54316500D01*
X54362010Y27185080D01*
Y27218920D01*
G01X54367300Y26933110D02*
X54374710Y26937170D01*
X54378940Y26942590D01*
X54380000Y26948680D01*
X54378940Y26954090D01*
X54373650Y26959500D01*
X54367300Y26962890D01*
X54360950Y26963560D01*
X54353540Y26962210D01*
X54348250Y26957470D01*
X54346130Y26952740D01*
Y26946650D01*
G01Y26952740D02*
X54342960Y26956800D01*
X54337670Y26960180D01*
X54331320Y26961530D01*
X54324970Y26960180D01*
X54319680Y26956800D01*
X54316500Y26950710D01*
X54317560Y26944620D01*
X54321790Y26938530D01*
G01X54327080Y26681140D02*
X54320730Y26685200D01*
X54317560Y26689940D01*
X54316500Y26695350D01*
X54318620Y26702120D01*
X54323910Y26706860D01*
X54330260Y26708210D01*
X54336610Y26707530D01*
X54341900Y26704830D01*
X54352480Y26691290D01*
X54359890Y26685200D01*
X54370480Y26681140D01*
X54380000Y26679790D01*
Y26708210D01*
G01X54245080Y27584400D02*
X54253130Y27571700D01*
X54262770Y27563230D01*
X54274030Y27559000D01*
X54286900Y27563230D01*
X54296550Y27571700D01*
X54306200Y27584400D01*
X54309420Y27601330D01*
Y27686000D01*
G01X54406750Y27559000D02*
Y27686000D01*
X54387450Y27660600D01*
G01Y27559000D02*
X54426050D01*
G01X54370480Y27441110D02*
X54375770Y27445170D01*
X54378940Y27449910D01*
X54380000Y27456000D01*
X54377880Y27462090D01*
X54373650Y27466830D01*
X54366240Y27470210D01*
X54357780Y27470890D01*
X54349310Y27469530D01*
X54344020Y27466150D01*
X54339780Y27461410D01*
X54338730Y27456680D01*
X54339780Y27451940D01*
X54344020Y27445850D01*
X54316500Y27447880D01*
Y27466150D01*
M02*
