G04 ================== begin FILE IDENTIFICATION RECORD ==================*
G04 Layout Name:  C:/Users/user/Desktop/ex/EXXX/allegro/AVRUSB500_2.brd*
G04 Film Name:    DrillDraw*
G04 File Format:  Gerber RS274X*
G04 File Origin:  Cadence Allegro 17.2-P019*
G04 Origin Date:  Mon Jul 29 16:41:02 2019*
G04 *
G04 Layer:  BOARD GEOMETRY/DESIGN_OUTLINE*
G04 Layer:  MANUFACTURING/NCLEGEND-1-2*
G04 *
G04 Offset:    (0.0000 0.0000)*
G04 Mirror:    No*
G04 Mode:      Positive*
G04 Rotation:  0*
G04 FullContactRelief:  No*
G04 UndefLineWidth:     0.0000*
G04 ================== end FILE IDENTIFICATION RECORD ====================*
%FSLAX55Y55*MOMM*%
%IR0*IPPOS*OFA0.00000B0.00000*MIA0B0*SFA1.00000B1.00000*%
%AMMACRO13*
1,1,0.0,-.44995,.25005*
20,1,0.0,-.44995,.25005,.44995,.25005,0.0*
1,1,0.0,.44995,.25005*
20,1,0.0,.44995,.25005,.493371,.246251,0.0*
1,1,0.0,.493371,.246251*
20,1,0.0,.493371,.246251,.535472,.23497,0.0*
1,1,0.0,.535472,.23497*
20,1,0.0,.535472,.23497,.574975,.21655,0.0*
1,1,0.0,.574975,.21655*
20,1,0.0,.574975,.21655,.610679,.191549,0.0*
1,1,0.0,.610679,.191549*
20,1,0.0,.610679,.191549,.641499,.160729,0.0*
1,1,0.0,.641499,.160729*
20,1,0.0,.641499,.160729,.6665,.125025,0.0*
1,1,0.0,.6665,.125025*
20,1,0.0,.6665,.125025,.68492,.085522,0.0*
1,1,0.0,.68492,.085522*
20,1,0.0,.68492,.085522,.696201,.043421,0.0*
1,1,0.0,.696201,.043421*
20,1,0.0,.696201,.043421,.7,0.0,0.0*
1,1,0.0,.7,0.0*
20,1,0.0,.7,0.0,.696201,-.043421,0.0*
1,1,0.0,.696201,-.043421*
20,1,0.0,.696201,-.043421,.68492,-.085522,0.0*
1,1,0.0,.68492,-.085522*
20,1,0.0,.68492,-.085522,.6665,-.125025,0.0*
1,1,0.0,.6665,-.125025*
20,1,0.0,.6665,-.125025,.641499,-.160729,0.0*
1,1,0.0,.641499,-.160729*
20,1,0.0,.641499,-.160729,.610679,-.191549,0.0*
1,1,0.0,.610679,-.191549*
20,1,0.0,.610679,-.191549,.574975,-.21655,0.0*
1,1,0.0,.574975,-.21655*
20,1,0.0,.574975,-.21655,.535472,-.23497,0.0*
1,1,0.0,.535472,-.23497*
20,1,0.0,.535472,-.23497,.493371,-.246251,0.0*
1,1,0.0,.493371,-.246251*
20,1,0.0,.493371,-.246251,.44995,-.25005,0.0*
1,1,0.0,.44995,-.25005*
20,1,0.0,.44995,-.25005,-.44995,-.25005,0.0*
1,1,0.0,-.44995,-.25005*
20,1,0.0,-.44995,-.25005,-.493371,-.246251,0.0*
1,1,0.0,-.493371,-.246251*
20,1,0.0,-.493371,-.246251,-.535472,-.23497,0.0*
1,1,0.0,-.535472,-.23497*
20,1,0.0,-.535472,-.23497,-.574975,-.21655,0.0*
1,1,0.0,-.574975,-.21655*
20,1,0.0,-.574975,-.21655,-.610679,-.191549,0.0*
1,1,0.0,-.610679,-.191549*
20,1,0.0,-.610679,-.191549,-.641499,-.160729,0.0*
1,1,0.0,-.641499,-.160729*
20,1,0.0,-.641499,-.160729,-.6665,-.125025,0.0*
1,1,0.0,-.6665,-.125025*
20,1,0.0,-.6665,-.125025,-.68492,-.085522,0.0*
1,1,0.0,-.68492,-.085522*
20,1,0.0,-.68492,-.085522,-.696201,-.043421,0.0*
1,1,0.0,-.696201,-.043421*
20,1,0.0,-.696201,-.043421,-.7,0.0,0.0*
1,1,0.0,-.7,0.0*
20,1,0.0,-.7,0.0,-.696201,.043421,0.0*
1,1,0.0,-.696201,.043421*
20,1,0.0,-.696201,.043421,-.68492,.085522,0.0*
1,1,0.0,-.68492,.085522*
20,1,0.0,-.68492,.085522,-.6665,.125025,0.0*
1,1,0.0,-.6665,.125025*
20,1,0.0,-.6665,.125025,-.641499,.160729,0.0*
1,1,0.0,-.641499,.160729*
20,1,0.0,-.641499,.160729,-.610679,.191549,0.0*
1,1,0.0,-.610679,.191549*
20,1,0.0,-.610679,.191549,-.574975,.21655,0.0*
1,1,0.0,-.574975,.21655*
20,1,0.0,-.574975,.21655,-.535472,.23497,0.0*
1,1,0.0,-.535472,.23497*
20,1,0.0,-.535472,.23497,-.493371,.246251,0.0*
1,1,0.0,-.493371,.246251*
20,1,0.0,-.493371,.246251,-.44995,.25005,0.0*
1,1,0.0,-.44995,.25005*
%
%ADD13MACRO13*%
%AMMACRO12*
1,1,0.0,.635,0.0*
20,1,0.0,.635,0.0,.625353,-.110267,0.0*
1,1,0.0,.625353,-.110267*
20,1,0.0,.625353,-.110267,.596705,-.217183,0.0*
1,1,0.0,.596705,-.217183*
20,1,0.0,.596705,-.217183,.549926,-.3175,0.0*
1,1,0.0,.549926,-.3175*
20,1,0.0,.549926,-.3175,.486438,-.40817,0.0*
1,1,0.0,.486438,-.40817*
20,1,0.0,.486438,-.40817,.40817,-.486438,0.0*
1,1,0.0,.40817,-.486438*
20,1,0.0,.40817,-.486438,.3175,-.549926,0.0*
1,1,0.0,.3175,-.549926*
20,1,0.0,.3175,-.549926,.217183,-.596705,0.0*
1,1,0.0,.217183,-.596705*
20,1,0.0,.217183,-.596705,.110267,-.625353,0.0*
1,1,0.0,.110267,-.625353*
20,1,0.0,.110267,-.625353,0.0,-.635,0.0*
1,1,0.0,0.0,-.635*
20,1,0.0,0.0,-.635,-.110267,-.625353,0.0*
1,1,0.0,-.110267,-.625353*
20,1,0.0,-.110267,-.625353,-.217183,-.596705,0.0*
1,1,0.0,-.217183,-.596705*
20,1,0.0,-.217183,-.596705,-.3175,-.549926,0.0*
1,1,0.0,-.3175,-.549926*
20,1,0.0,-.3175,-.549926,-.40817,-.486438,0.0*
1,1,0.0,-.40817,-.486438*
20,1,0.0,-.40817,-.486438,-.486438,-.40817,0.0*
1,1,0.0,-.486438,-.40817*
20,1,0.0,-.486438,-.40817,-.549926,-.3175,0.0*
1,1,0.0,-.549926,-.3175*
20,1,0.0,-.549926,-.3175,-.596705,-.217183,0.0*
1,1,0.0,-.596705,-.217183*
20,1,0.0,-.596705,-.217183,-.625353,-.110267,0.0*
1,1,0.0,-.625353,-.110267*
20,1,0.0,-.625353,-.110267,-.635,0.0,0.0*
1,1,0.0,-.635,0.0*
20,1,0.0,-.635,0.0,-.625353,.110267,0.0*
1,1,0.0,-.625353,.110267*
20,1,0.0,-.625353,.110267,-.596705,.217183,0.0*
1,1,0.0,-.596705,.217183*
20,1,0.0,-.596705,.217183,-.549926,.3175,0.0*
1,1,0.0,-.549926,.3175*
20,1,0.0,-.549926,.3175,-.486438,.40817,0.0*
1,1,0.0,-.486438,.40817*
20,1,0.0,-.486438,.40817,-.40817,.486438,0.0*
1,1,0.0,-.40817,.486438*
20,1,0.0,-.40817,.486438,-.3175,.549926,0.0*
1,1,0.0,-.3175,.549926*
20,1,0.0,-.3175,.549926,-.217183,.596705,0.0*
1,1,0.0,-.217183,.596705*
20,1,0.0,-.217183,.596705,-.110267,.625353,0.0*
1,1,0.0,-.110267,.625353*
20,1,0.0,-.110267,.625353,0.0,.635,0.0*
1,1,0.0,0.0,.635*
20,1,0.0,0.0,.635,.110267,.625353,0.0*
1,1,0.0,.110267,.625353*
20,1,0.0,.110267,.625353,.217183,.596705,0.0*
1,1,0.0,.217183,.596705*
20,1,0.0,.217183,.596705,.3175,.549926,0.0*
1,1,0.0,.3175,.549926*
20,1,0.0,.3175,.549926,.40817,.486438,0.0*
1,1,0.0,.40817,.486438*
20,1,0.0,.40817,.486438,.486438,.40817,0.0*
1,1,0.0,.486438,.40817*
20,1,0.0,.486438,.40817,.549926,.3175,0.0*
1,1,0.0,.549926,.3175*
20,1,0.0,.549926,.3175,.596705,.217183,0.0*
1,1,0.0,.596705,.217183*
20,1,0.0,.596705,.217183,.625353,.110267,0.0*
1,1,0.0,.625353,.110267*
20,1,0.0,.625353,.110267,.635,0.0,0.0*
1,1,0.0,.635,0.0*
1,1,0.0,.3175,0.0*
20,1,0.0,.3175,0.0,-.3175,0.0,0.0*
1,1,0.0,-.3175,0.0*
1,1,0.0,0.0,.3175*
20,1,0.0,0.0,.3175,0.0,-.3175,0.0*
1,1,0.0,0.0,-.3175*
%
%ADD12MACRO12*%
%AMMACRO14*
1,1,0.0,.533,0.0*
20,1,0.0,.533,0.0,.524903,-.092554,0.0*
1,1,0.0,.524903,-.092554*
20,1,0.0,.524903,-.092554,.500856,-.182297,0.0*
1,1,0.0,.500856,-.182297*
20,1,0.0,.500856,-.182297,.461592,-.2665,0.0*
1,1,0.0,.461592,-.2665*
20,1,0.0,.461592,-.2665,.408302,-.342606,0.0*
1,1,0.0,.408302,-.342606*
20,1,0.0,.408302,-.342606,.342606,-.408302,0.0*
1,1,0.0,.342606,-.408302*
20,1,0.0,.342606,-.408302,.2665,-.461592,0.0*
1,1,0.0,.2665,-.461592*
20,1,0.0,.2665,-.461592,.182297,-.500856,0.0*
1,1,0.0,.182297,-.500856*
20,1,0.0,.182297,-.500856,.092554,-.524903,0.0*
1,1,0.0,.092554,-.524903*
20,1,0.0,.092554,-.524903,0.0,-.533,0.0*
1,1,0.0,0.0,-.533*
20,1,0.0,0.0,-.533,-.092554,-.524903,0.0*
1,1,0.0,-.092554,-.524903*
20,1,0.0,-.092554,-.524903,-.182297,-.500856,0.0*
1,1,0.0,-.182297,-.500856*
20,1,0.0,-.182297,-.500856,-.2665,-.461592,0.0*
1,1,0.0,-.2665,-.461592*
20,1,0.0,-.2665,-.461592,-.342606,-.408302,0.0*
1,1,0.0,-.342606,-.408302*
20,1,0.0,-.342606,-.408302,-.408302,-.342606,0.0*
1,1,0.0,-.408302,-.342606*
20,1,0.0,-.408302,-.342606,-.461592,-.2665,0.0*
1,1,0.0,-.461592,-.2665*
20,1,0.0,-.461592,-.2665,-.500856,-.182297,0.0*
1,1,0.0,-.500856,-.182297*
20,1,0.0,-.500856,-.182297,-.524903,-.092554,0.0*
1,1,0.0,-.524903,-.092554*
20,1,0.0,-.524903,-.092554,-.533,0.0,0.0*
1,1,0.0,-.533,0.0*
20,1,0.0,-.533,0.0,-.524903,.092554,0.0*
1,1,0.0,-.524903,.092554*
20,1,0.0,-.524903,.092554,-.500856,.182297,0.0*
1,1,0.0,-.500856,.182297*
20,1,0.0,-.500856,.182297,-.461592,.2665,0.0*
1,1,0.0,-.461592,.2665*
20,1,0.0,-.461592,.2665,-.408302,.342606,0.0*
1,1,0.0,-.408302,.342606*
20,1,0.0,-.408302,.342606,-.342606,.408302,0.0*
1,1,0.0,-.342606,.408302*
20,1,0.0,-.342606,.408302,-.2665,.461592,0.0*
1,1,0.0,-.2665,.461592*
20,1,0.0,-.2665,.461592,-.182297,.500856,0.0*
1,1,0.0,-.182297,.500856*
20,1,0.0,-.182297,.500856,-.092554,.524903,0.0*
1,1,0.0,-.092554,.524903*
20,1,0.0,-.092554,.524903,0.0,.533,0.0*
1,1,0.0,0.0,.533*
20,1,0.0,0.0,.533,.092554,.524903,0.0*
1,1,0.0,.092554,.524903*
20,1,0.0,.092554,.524903,.182297,.500856,0.0*
1,1,0.0,.182297,.500856*
20,1,0.0,.182297,.500856,.2665,.461592,0.0*
1,1,0.0,.2665,.461592*
20,1,0.0,.2665,.461592,.342606,.408302,0.0*
1,1,0.0,.342606,.408302*
20,1,0.0,.342606,.408302,.408302,.342606,0.0*
1,1,0.0,.408302,.342606*
20,1,0.0,.408302,.342606,.461592,.2665,0.0*
1,1,0.0,.461592,.2665*
20,1,0.0,.461592,.2665,.500856,.182297,0.0*
1,1,0.0,.500856,.182297*
20,1,0.0,.500856,.182297,.524903,.092554,0.0*
1,1,0.0,.524903,.092554*
20,1,0.0,.524903,.092554,.533,0.0,0.0*
1,1,0.0,.533,0.0*
1,1,0.0,-.2221,-.2665*
20,1,0.0,-.2221,-.2665,0.0,.2665,0.0*
1,1,0.0,0.0,.2665*
20,1,0.0,0.0,.2665,.2221,-.2665,0.0*
1,1,0.0,.2221,-.2665*
1,1,0.0,.1421,-.08*
20,1,0.0,.1421,-.08,-.1421,-.08,0.0*
1,1,0.0,-.1421,-.08*
%
%ADD14MACRO14*%
%AMMACRO10*
1,1,0.0,-.6668,-.9525*
20,1,0.0,-.6668,-.9525,.6668,.9525,0.0*
1,1,0.0,.6668,.9525*
1,1,0.0,-.6668,.9525*
20,1,0.0,-.6668,.9525,.6668,-.9525,0.0*
1,1,0.0,.6668,-.9525*
%
%ADD10MACRO10*%
%AMMACRO11*
1,1,0.0,.39345,0.0*
20,1,0.0,.39345,0.0,.387473,-.068322,0.0*
1,1,0.0,.387473,-.068322*
20,1,0.0,.387473,-.068322,.369722,-.134568,0.0*
1,1,0.0,.369722,-.134568*
20,1,0.0,.369722,-.134568,.340738,-.196725,0.0*
1,1,0.0,.340738,-.196725*
20,1,0.0,.340738,-.196725,.3014,-.252905,0.0*
1,1,0.0,.3014,-.252905*
20,1,0.0,.3014,-.252905,.252905,-.3014,0.0*
1,1,0.0,.252905,-.3014*
20,1,0.0,.252905,-.3014,.196725,-.340738,0.0*
1,1,0.0,.196725,-.340738*
20,1,0.0,.196725,-.340738,.134568,-.369722,0.0*
1,1,0.0,.134568,-.369722*
20,1,0.0,.134568,-.369722,.068322,-.387473,0.0*
1,1,0.0,.068322,-.387473*
20,1,0.0,.068322,-.387473,0.0,-.39345,0.0*
1,1,0.0,0.0,-.39345*
20,1,0.0,0.0,-.39345,-.068322,-.387473,0.0*
1,1,0.0,-.068322,-.387473*
20,1,0.0,-.068322,-.387473,-.134568,-.369722,0.0*
1,1,0.0,-.134568,-.369722*
20,1,0.0,-.134568,-.369722,-.196725,-.340738,0.0*
1,1,0.0,-.196725,-.340738*
20,1,0.0,-.196725,-.340738,-.252905,-.3014,0.0*
1,1,0.0,-.252905,-.3014*
20,1,0.0,-.252905,-.3014,-.3014,-.252905,0.0*
1,1,0.0,-.3014,-.252905*
20,1,0.0,-.3014,-.252905,-.340738,-.196725,0.0*
1,1,0.0,-.340738,-.196725*
20,1,0.0,-.340738,-.196725,-.369722,-.134568,0.0*
1,1,0.0,-.369722,-.134568*
20,1,0.0,-.369722,-.134568,-.387473,-.068322,0.0*
1,1,0.0,-.387473,-.068322*
20,1,0.0,-.387473,-.068322,-.39345,0.0,0.0*
1,1,0.0,-.39345,0.0*
20,1,0.0,-.39345,0.0,-.387473,.068322,0.0*
1,1,0.0,-.387473,.068322*
20,1,0.0,-.387473,.068322,-.369722,.134568,0.0*
1,1,0.0,-.369722,.134568*
20,1,0.0,-.369722,.134568,-.340738,.196725,0.0*
1,1,0.0,-.340738,.196725*
20,1,0.0,-.340738,.196725,-.3014,.252905,0.0*
1,1,0.0,-.3014,.252905*
20,1,0.0,-.3014,.252905,-.252905,.3014,0.0*
1,1,0.0,-.252905,.3014*
20,1,0.0,-.252905,.3014,-.196725,.340738,0.0*
1,1,0.0,-.196725,.340738*
20,1,0.0,-.196725,.340738,-.134568,.369722,0.0*
1,1,0.0,-.134568,.369722*
20,1,0.0,-.134568,.369722,-.068322,.387473,0.0*
1,1,0.0,-.068322,.387473*
20,1,0.0,-.068322,.387473,0.0,.39345,0.0*
1,1,0.0,0.0,.39345*
20,1,0.0,0.0,.39345,.068322,.387473,0.0*
1,1,0.0,.068322,.387473*
20,1,0.0,.068322,.387473,.134568,.369722,0.0*
1,1,0.0,.134568,.369722*
20,1,0.0,.134568,.369722,.196725,.340738,0.0*
1,1,0.0,.196725,.340738*
20,1,0.0,.196725,.340738,.252905,.3014,0.0*
1,1,0.0,.252905,.3014*
20,1,0.0,.252905,.3014,.3014,.252905,0.0*
1,1,0.0,.3014,.252905*
20,1,0.0,.3014,.252905,.340738,.196725,0.0*
1,1,0.0,.340738,.196725*
20,1,0.0,.340738,.196725,.369722,.134568,0.0*
1,1,0.0,.369722,.134568*
20,1,0.0,.369722,.134568,.387473,.068322,0.0*
1,1,0.0,.387473,.068322*
20,1,0.0,.387473,.068322,.39345,0.0,0.0*
1,1,0.0,.39345,0.0*
1,1,0.0,-.1639,-.1967*
20,1,0.0,-.1639,-.1967,0.0,.1967,0.0*
1,1,0.0,0.0,.1967*
20,1,0.0,0.0,.1967,.1639,-.1967,0.0*
1,1,0.0,.1639,-.1967*
1,1,0.0,.1049,-.059*
20,1,0.0,.1049,-.059,-.1049,-.059,0.0*
1,1,0.0,-.1049,-.059*
%
%ADD11MACRO11*%
%LPD*%
G75*
G54D10*
X44450000Y25971500D03*
Y29273500D03*
X54229000Y25971500D03*
X54240000Y29280000D03*
X56563200Y26035880D03*
G54D11*
X44958000Y26733500D03*
Y26987500D03*
X45340000Y26160000D03*
Y26414000D03*
X45538000Y27200000D03*
X46120000Y26220000D03*
Y26474000D03*
X46300000Y27200000D03*
X47240000Y27360000D03*
X47557500D03*
X51540000Y29240000D03*
X52302000D03*
X56563200Y26607380D03*
G54D12*
X45656500Y28194000D03*
X45538000Y27931500D03*
X46072000Y28800000D03*
X45980000Y28880000D03*
X45783500Y29210000D03*
X46672500Y28321000D03*
X46660760Y28448000D03*
X47752000Y26860500D03*
X48069500Y28130500D03*
X49911000Y27622500D03*
X49720500D03*
X51689000Y27178000D03*
X51181000Y26860500D03*
Y27114500D03*
X51562000Y27495500D03*
X56563200Y26893130D03*
G54D13*
X48140000Y26507500D03*
X48510000D03*
X48140000Y27532500D03*
X48510000D03*
X56563200Y25750120D03*
G54D14*
X49440000Y28120000D03*
Y28882000D03*
Y28628000D03*
Y28374000D03*
Y29136000D03*
X50000000Y28808000D03*
Y28554000D03*
Y28300000D03*
Y29316000D03*
Y29062000D03*
X54380000Y26694000D03*
Y26440000D03*
Y27456000D03*
Y27202000D03*
Y26948000D03*
X56563200Y26321630D03*
M02*
