G04 ================== begin FILE IDENTIFICATION RECORD ==================*
G04 Layout Name:  C:/Users/user/Desktop/ex/EXXX/allegro/AVRUSB500_2.brd*
G04 Film Name:    MetalT*
G04 File Format:  Gerber RS274X*
G04 File Origin:  Cadence Allegro 17.2-P019*
G04 Origin Date:  Mon Jul 29 16:41:02 2019*
G04 *
G04 Layer:  PIN/PASTEMASK_TOP*
G04 Layer:  PACKAGE GEOMETRY/PASTEMASK_TOP*
G04 *
G04 Offset:    (0.0000 0.0000)*
G04 Mirror:    No*
G04 Mode:      Positive*
G04 Rotation:  0*
G04 FullContactRelief:  No*
G04 UndefLineWidth:     0.0000*
G04 ================== end FILE IDENTIFICATION RECORD ====================*
%FSLAX55Y55*MOMM*%
%IR0*IPPOS*OFA0.00000B0.00000*MIA0B0*SFA1.00000B1.00000*%
%ADD17R,1.7201X.4*%
%ADD11O,.4569X1.778*%
%ADD14O,1.778X.4569*%
%ADD12R,.4569X1.778*%
%ADD13R,1.778X.4569*%
%ADD16R,1.7201X1.1001*%
%ADD10R,1.4986X2.8448*%
%ADD15R,2.8448X1.4986*%
%LPD*%
G75*
G54D10*
X44323000Y27432000D03*
X44749720D03*
X44386500Y28321000D03*
X44813220D03*
X44894500Y29146500D03*
X45321220D03*
X47752000Y27940000D03*
X47625000Y28892500D03*
X48051720D03*
X47688500Y28448000D03*
X47625000Y29337000D03*
X48051720D03*
X48323500Y25971500D03*
X48750220D03*
X48178720Y27940000D03*
X48115220Y28448000D03*
X49149000Y26733500D03*
X49575720D03*
X49403000Y26098500D03*
X49149000Y27178000D03*
X49575720D03*
X49149000Y27622500D03*
X49575720D03*
X49829720Y26098500D03*
X50546000Y28575000D03*
X50972720D03*
X50482500Y29337000D03*
X50909220D03*
X52895500Y26352500D03*
X53322220D03*
X52895500Y27305000D03*
X53322220D03*
X52895500Y26860500D03*
X53322220D03*
X52895500Y27749500D03*
X53322220D03*
X53040280Y28448000D03*
X53467000D03*
G54D11*
X46124800Y28175200D03*
X46284800D03*
X46364800D03*
X46444800D03*
Y29024800D03*
X46364800D03*
X46204800D03*
X46124800D03*
X46524800Y28175200D03*
X46604800D03*
X46684800D03*
Y29024800D03*
X46604800D03*
X46524800D03*
X51008300Y26473200D03*
Y27322800D03*
X51168300Y26473200D03*
X51248300D03*
X51328300D03*
X51408300D03*
X51488300D03*
X51568300D03*
Y27322800D03*
X51488300D03*
X51408300D03*
X51328300D03*
X51248300D03*
X51088300D03*
G54D12*
X46204800Y28175200D03*
X46284800Y29024800D03*
X51088300Y26473200D03*
X51168300Y27322800D03*
G54D13*
X45980000Y28880000D03*
X46829600Y28560000D03*
X50863500Y27178000D03*
X51713100Y26858000D03*
G54D14*
X45980000Y28800000D03*
Y28720000D03*
Y28640000D03*
Y28560000D03*
Y28480000D03*
Y28399900D03*
Y28319900D03*
X46829600D03*
Y28399900D03*
Y28480000D03*
Y28640000D03*
Y28720000D03*
Y28800000D03*
Y28880000D03*
X50863500Y26617900D03*
Y27098000D03*
Y27018000D03*
Y26938000D03*
Y26858000D03*
Y26778000D03*
Y26697900D03*
X51713100Y26617900D03*
Y26697900D03*
Y26778000D03*
Y26938000D03*
Y27018000D03*
Y27098000D03*
Y27178000D03*
G54D15*
X47371000Y26416000D03*
X46736000Y26733500D03*
Y26306780D03*
X47371000Y26842720D03*
X52832000Y28829000D03*
Y29255720D03*
G54D16*
X48510000Y26790000D03*
Y27250000D03*
G54D17*
Y27085000D03*
Y27150000D03*
Y26890000D03*
Y26955000D03*
Y27020000D03*
M02*
