G04 ================== begin FILE IDENTIFICATION RECORD ==================*
G04 Layout Name:  C:/Users/user/Desktop/ex/EXXX/allegro/AVRUSB500_2.brd*
G04 Film Name:    Silkt*
G04 File Format:  Gerber RS274X*
G04 File Origin:  Cadence Allegro 16.6-S034*
G04 Origin Date:  Fri Jul 19 14:13:19 2019*
G04 *
G04 Layer:  REF DES/SILKSCREEN_TOP*
G04 Layer:  PACKAGE GEOMETRY/SILKSCREEN_TOP*
G04 Layer:  BOARD GEOMETRY/SILKSCREEN_TOP*
G04 *
G04 Offset:    (0.0000 0.0000)*
G04 Mirror:    No*
G04 Mode:      Positive*
G04 Rotation:  0*
G04 FullContactRelief:  No*
G04 UndefLineWidth:     0.2000*
G04 ================== end FILE IDENTIFICATION RECORD ====================*
%FSLAX55Y55*MOMM*%
%IR0*IPPOS*OFA0.00000B0.00000*MIA0B0*SFA1.00000B1.00000*%
%ADD10C,.203*%
%ADD11C,.254*%
%ADD12C,.2*%
G75*
%LPD*%
G75*
G54D10*
G01X44945700Y26287000D02*
G02I-285700J0D01*
G01X44925700Y27313000D02*
G02I-285700J0D01*
G01X44892700Y28140000D02*
G02I-285700J0D01*
G01X44640500Y29337000D02*
X44577000D01*
G01X44640500Y29210000D02*
Y29337000D01*
G01D02*
Y29464000D01*
G01D02*
X45275500D01*
G01Y29210000D02*
X44640500D01*
G01X45625700Y26287000D02*
G02I-285700J0D01*
G01X45347500Y26946000D02*
Y27454000D01*
G01X46490500Y26946000D02*
X45347500D01*
G01Y27454000D02*
X46490500D01*
G01X45275500Y29337000D02*
X45339000D01*
G01X45275500Y29464000D02*
Y29337000D01*
G01D02*
Y29210000D01*
G01X46405700Y26347000D02*
G02I-285700J0D01*
G01X46490500Y27454000D02*
Y26946000D01*
G01X46740000Y26194500D02*
Y26131000D01*
G01X46867000Y26829500D02*
Y26194500D01*
G01D02*
X46740000D01*
G01D02*
X46613000D01*
G01D02*
Y26829500D01*
G01X47081300Y27360000D02*
G02X47398700Y27677500I317400J100D01*
G02Y27042500I0J-317500D01*
G02X47081300Y27360000I0J317400D01*
G01X46740000Y26829500D02*
Y26893000D01*
G01X46613000Y26829500D02*
X46740000D01*
G01D02*
X46867000D01*
G01X47845700Y26553000D02*
G02I-285700J0D01*
G01X47530500Y28160000D02*
X47467000D01*
G01X47530500Y28033000D02*
Y28160000D01*
G01D02*
Y28287000D01*
G01X48165500Y28033000D02*
X47530500D01*
G01X47470500Y28840000D02*
X47407000D01*
G01X47470500Y28713000D02*
Y28840000D01*
G01D02*
Y28967000D01*
G01X48105500Y28713000D02*
X47470500D01*
G01Y28520000D02*
X47407000D01*
G01X47470500Y28393000D02*
Y28520000D01*
G01D02*
Y28647000D01*
G01D02*
X48105500D01*
G01Y28393000D02*
X47470500D01*
G01X47530500Y28287000D02*
X48165500D01*
G01X47470500Y29180000D02*
X47407000D01*
G01X47470500Y29053000D02*
Y29180000D01*
G01D02*
Y29307000D01*
G01D02*
X48105500D01*
G01Y29053000D02*
X47470500D01*
G01Y28967000D02*
X48105500D01*
G01X48165500Y28160000D02*
X48229000D01*
G01X48165500Y28287000D02*
Y28160000D01*
G01D02*
Y28033000D01*
G01X48105500Y28840000D02*
X48169000D01*
G01X48105500Y28967000D02*
Y28840000D01*
G01D02*
Y28713000D01*
G01Y28520000D02*
X48169000D01*
G01X48105500Y28647000D02*
Y28520000D01*
G01D02*
Y28393000D01*
G01Y29180000D02*
X48169000D01*
G01X48105500Y29307000D02*
Y29180000D01*
G01D02*
Y29053000D01*
G01X49130500Y25833000D02*
Y25960000D01*
G01X49765500Y25833000D02*
X49130500D01*
G01Y25960000D02*
X49067000D01*
G01X49130500D02*
Y26087000D01*
G01D02*
X49765500D01*
G01X49130500Y26440000D02*
X49067000D01*
G01X49130500Y26313000D02*
Y26440000D01*
G01D02*
Y26567000D01*
G01D02*
X49765500D01*
G01Y26313000D02*
X49130500D01*
G01Y26633000D02*
Y26760000D01*
G01X49765500Y26633000D02*
X49130500D01*
G01X49110500Y27440000D02*
X49047000D01*
G01X49110500Y27313000D02*
Y27440000D01*
G01D02*
Y27567000D01*
G01X49745500Y27313000D02*
X49110500D01*
G01X49130500Y26760000D02*
X49067000D01*
G01X49130500D02*
Y26887000D01*
G01D02*
X49765500D01*
G01X49130500Y27080000D02*
X49067000D01*
G01X49130500Y26953000D02*
Y27080000D01*
G01D02*
Y27207000D01*
G01D02*
X49765500D01*
G01Y26953000D02*
X49130500D01*
G01X49313000Y27980300D02*
Y29275700D01*
G01X49567000Y27980300D02*
X49313000D01*
G01X49110500Y27567000D02*
X49745500D01*
G01X49313000Y29275700D02*
X49567000D01*
G01X49765500Y25960000D02*
Y25833000D01*
G01Y25960000D02*
X49829000D01*
G01X49765500Y26087000D02*
Y25960000D01*
G01Y26440000D02*
X49829000D01*
G01X49765500Y26567000D02*
Y26440000D01*
G01D02*
Y26313000D01*
G01Y26760000D02*
Y26633000D01*
G01X49745500Y27440000D02*
X49809000D01*
G01X49745500Y27567000D02*
Y27440000D01*
G01D02*
Y27313000D01*
G01X49765500Y26760000D02*
X49829000D01*
G01X49765500Y26887000D02*
Y26760000D01*
G01Y27080000D02*
X49829000D01*
G01X49765500Y27207000D02*
Y27080000D01*
G01D02*
Y26953000D01*
G01X49873000Y28160300D02*
Y29455700D01*
G01X50127000Y28160300D02*
X49873000D01*
G01X50127000Y28300000D02*
Y28160300D01*
G01X49567000Y28120000D02*
Y27980300D01*
G01Y28374000D02*
Y28120000D01*
G01X50127000Y28554000D02*
Y28300000D01*
G01Y28808000D02*
Y28554000D01*
G01Y29062000D02*
Y28808000D01*
G01X49567000Y28628000D02*
Y28374000D01*
G01Y28882000D02*
Y28628000D01*
G01Y29136000D02*
Y28882000D01*
G01X49873000Y29455700D02*
X50127000D01*
G01Y29316000D02*
Y29062000D01*
G01Y29455700D02*
Y29316000D01*
G01X49567000Y29275700D02*
Y29136000D01*
G01X51565700Y28393000D02*
G02I-285700J0D01*
G01X51078700Y29220000D02*
G02I-285700J0D01*
G01X51349500Y29494000D02*
X52492500D01*
G01X51349500Y28986000D02*
Y29494000D01*
G01X52492500Y28986000D02*
X51349500D01*
G01X52492500Y29494000D02*
Y28986000D01*
G01X52790500Y26420000D02*
X52727000D01*
G01X52790500Y26293000D02*
Y26420000D01*
G01D02*
Y26547000D01*
G01D02*
X53425500D01*
G01Y26293000D02*
X52790500D01*
G01Y27180000D02*
X52727000D01*
G01X52790500Y27053000D02*
Y27180000D01*
G01D02*
Y27307000D01*
G01D02*
X53425500D01*
G01Y27053000D02*
X52790500D01*
G01X52810500Y27393000D02*
Y27520000D01*
G01X53445500Y27393000D02*
X52810500D01*
G01X52790500Y26820000D02*
X52727000D01*
G01X52790500Y26693000D02*
Y26820000D01*
G01D02*
Y26947000D01*
G01D02*
X53425500D01*
G01Y26693000D02*
X52790500D01*
G01X52810500Y27520000D02*
X52747000D01*
G01X52810500D02*
Y27647000D01*
G01D02*
X53445500D01*
G01X53332700Y29260000D02*
G02I-285700J0D01*
G01X53425500Y26420000D02*
X53489000D01*
G01X53425500Y26547000D02*
Y26420000D01*
G01D02*
Y26293000D01*
G01Y27180000D02*
X53489000D01*
G01X53425500Y27307000D02*
Y27180000D01*
G01D02*
Y27053000D01*
G01X53445500Y27520000D02*
Y27393000D01*
G01X53425500Y26820000D02*
X53489000D01*
G01X53425500Y26947000D02*
Y26820000D01*
G01D02*
Y26693000D01*
G01X54038700Y28100000D02*
G02I-285700J0D01*
G01X53445500Y27520000D02*
X53509000D01*
G01X53445500Y27647000D02*
Y27520000D01*
G01X54253000Y26300300D02*
Y27595700D01*
G01X54507000Y26300300D02*
X54253000D01*
G01X54507000Y26440000D02*
Y26300300D01*
G01Y26694000D02*
Y26440000D01*
G01Y26948000D02*
Y26694000D01*
G01Y27202000D02*
Y26948000D01*
G01Y27456000D02*
Y27202000D01*
G01X54253000Y27595700D02*
X54507000D01*
G01D02*
Y27456000D01*
G54D11*
G01X45912700Y28949300D02*
X46055400D01*
G01X50796200Y27247300D02*
X50938900D01*
G54D12*
G01X44246680Y26111430D02*
X44240330Y26101780D01*
X44236100Y26090530D01*
Y26077660D01*
X44242450Y26063180D01*
X44253030Y26051930D01*
X44265730Y26043880D01*
X44286900Y26037450D01*
X44305950Y26035840D01*
X44325000Y26039060D01*
X44337700Y26043880D01*
X44350400Y26053530D01*
X44358870Y26064790D01*
X44363100Y26076050D01*
Y26087310D01*
X44358870Y26098570D01*
X44352520Y26108220D01*
X44344050Y26116260D01*
G01X44310190Y26174990D02*
X44295370Y26186250D01*
X44286900Y26195900D01*
X44282670Y26208770D01*
X44286900Y26220030D01*
X44295370Y26228070D01*
X44308070Y26234500D01*
X44322880Y26236110D01*
X44335590Y26234500D01*
X44348290Y26228070D01*
X44358870Y26218420D01*
X44363100Y26207160D01*
X44358870Y26194290D01*
X44346170Y26183030D01*
X44327120Y26176600D01*
X44305950Y26174990D01*
X44278440Y26178210D01*
X44263610Y26183030D01*
X44248800Y26191070D01*
X44238220Y26202330D01*
X44236100Y26213590D01*
X44240330Y26224850D01*
X44250920Y26232890D01*
G01X44926680Y26111430D02*
X44920330Y26101780D01*
X44916100Y26090530D01*
Y26077660D01*
X44922450Y26063180D01*
X44933030Y26051930D01*
X44945730Y26043880D01*
X44966900Y26037450D01*
X44985950Y26035840D01*
X45005000Y26039060D01*
X45017700Y26043880D01*
X45030400Y26053530D01*
X45038870Y26064790D01*
X45043100Y26076050D01*
Y26087310D01*
X45038870Y26098570D01*
X45032520Y26108220D01*
X45024050Y26116260D01*
G01Y26170170D02*
X45034640Y26179810D01*
X45040980Y26191070D01*
X45043100Y26205550D01*
X45038870Y26220030D01*
X45030400Y26231280D01*
X45015590Y26239330D01*
X44998650Y26240930D01*
X44981720Y26237720D01*
X44971130Y26229670D01*
X44962670Y26218420D01*
X44960550Y26207160D01*
X44962670Y26195900D01*
X44971130Y26181430D01*
X44916100Y26186250D01*
Y26229670D01*
G01X45053320Y27488570D02*
X45059670Y27498220D01*
X45063900Y27509470D01*
Y27522340D01*
X45057550Y27536820D01*
X45046970Y27548070D01*
X45034270Y27556120D01*
X45013100Y27562550D01*
X44994050Y27564160D01*
X44975000Y27560940D01*
X44962300Y27556120D01*
X44949600Y27546470D01*
X44941130Y27535210D01*
X44936900Y27523950D01*
Y27512690D01*
X44941130Y27501430D01*
X44947480Y27491780D01*
X44955950Y27483740D01*
G01X44936900Y27397670D02*
X44964410Y27394450D01*
X44987700Y27389620D01*
X45008870Y27383190D01*
X45032150Y27375150D01*
X45063900Y27362280D01*
Y27426620D01*
G01X44431430Y28553320D02*
X44421780Y28559670D01*
X44410530Y28563900D01*
X44397660D01*
X44383180Y28557550D01*
X44371930Y28546970D01*
X44363880Y28534270D01*
X44357450Y28513100D01*
X44355840Y28494050D01*
X44359060Y28475000D01*
X44363880Y28462300D01*
X44373530Y28449600D01*
X44384790Y28441130D01*
X44396050Y28436900D01*
X44407310D01*
X44418570Y28441130D01*
X44428220Y28447480D01*
X44436260Y28455950D01*
G01X44525550Y28436900D02*
X44536810Y28439020D01*
X44549670Y28445360D01*
X44557720Y28455950D01*
X44560930Y28470770D01*
X44557720Y28485580D01*
X44548070Y28498280D01*
X44533590Y28504630D01*
X44517510D01*
X44507860Y28508870D01*
X44499810Y28519450D01*
X44496600Y28534270D01*
X44501430Y28549080D01*
X44512680Y28559670D01*
X44525550Y28563900D01*
X44538420Y28559670D01*
X44549670Y28549080D01*
X44554500Y28534270D01*
X44551280Y28519450D01*
X44543240Y28508870D01*
X44533590Y28504630D01*
X44517510D01*
X44503030Y28498280D01*
X44493380Y28485580D01*
X44490170Y28470770D01*
X44493380Y28455950D01*
X44501430Y28445360D01*
X44514290Y28439020D01*
X44525550Y28436900D01*
G01X44746580Y29475100D02*
Y29602100D01*
X44786790D01*
X44799660Y29595750D01*
X44807700Y29587280D01*
X44810920Y29570350D01*
X44807700Y29553420D01*
X44798050Y29542830D01*
X44786790Y29536480D01*
X44746580D01*
G01X44786790D02*
X44810920Y29475100D01*
G01X44880910Y29489910D02*
X44892170Y29479330D01*
X44905030Y29475100D01*
X44917900Y29479330D01*
X44929160Y29492030D01*
X44937200Y29511080D01*
X44940420Y29530130D01*
Y29553420D01*
X44937200Y29572470D01*
X44929160Y29589400D01*
X44919510Y29597870D01*
X44908250Y29602100D01*
X44895380Y29597870D01*
X44885730Y29589400D01*
X44879300Y29576700D01*
X44876080Y29559760D01*
X44879300Y29544950D01*
X44887340Y29530130D01*
X44896990Y29521660D01*
X44908250Y29519550D01*
X44921120Y29523780D01*
X44930770Y29534370D01*
X44940420Y29553420D01*
G01X45706680Y26171430D02*
X45700330Y26161780D01*
X45696100Y26150530D01*
Y26137660D01*
X45702450Y26123180D01*
X45713030Y26111930D01*
X45725730Y26103880D01*
X45746900Y26097450D01*
X45765950Y26095840D01*
X45785000Y26099060D01*
X45797700Y26103880D01*
X45810400Y26113530D01*
X45818870Y26124790D01*
X45823100Y26136050D01*
Y26147310D01*
X45818870Y26158570D01*
X45812520Y26168220D01*
X45804050Y26176260D01*
G01X45808290Y26238210D02*
X45818870Y26249470D01*
X45823100Y26262330D01*
X45818870Y26275200D01*
X45806170Y26286460D01*
X45787120Y26294500D01*
X45768070Y26297720D01*
X45744780D01*
X45725730Y26294500D01*
X45708800Y26286460D01*
X45700330Y26276810D01*
X45696100Y26265550D01*
X45700330Y26252680D01*
X45708800Y26243030D01*
X45721500Y26236600D01*
X45738440Y26233380D01*
X45753250Y26236600D01*
X45768070Y26244640D01*
X45776540Y26254290D01*
X45778650Y26265550D01*
X45774420Y26278420D01*
X45763830Y26288070D01*
X45744780Y26297720D01*
G01X46129950Y26934900D02*
Y26877750D01*
X46162120Y26807900D01*
G01X46097780D02*
X46129950Y26877750D01*
G01X46000450Y26934900D02*
Y26807900D01*
X46019750Y26833300D01*
G01Y26934900D02*
X45981150D01*
G01X46066600Y29497050D02*
Y29458450D01*
G01Y29477750D02*
X45939600D01*
G01Y29497050D02*
Y29458450D01*
G01X46056020Y29312870D02*
X46062370Y29322520D01*
X46066600Y29333770D01*
Y29346640D01*
X46060250Y29361120D01*
X46049670Y29372370D01*
X46036970Y29380420D01*
X46015800Y29386850D01*
X45996750Y29388460D01*
X45977700Y29385240D01*
X45965000Y29380420D01*
X45952300Y29370770D01*
X45943830Y29359510D01*
X45939600Y29348250D01*
Y29336990D01*
X45943830Y29325730D01*
X45950180Y29316080D01*
X45958650Y29308040D01*
G01X45939600Y29218750D02*
X46066600D01*
X46041200Y29238050D01*
G01X45939600D02*
Y29199450D01*
G01X46878100Y26723420D02*
X47005100D01*
Y26683210D01*
X46998750Y26670340D01*
X46990280Y26662300D01*
X46973350Y26659080D01*
X46956420Y26662300D01*
X46945830Y26671950D01*
X46939480Y26683210D01*
Y26723420D01*
G01Y26683210D02*
X46878100Y26659080D01*
G01Y26561750D02*
X47005100D01*
X46979700Y26581050D01*
G01X46878100D02*
Y26542450D01*
G01X47005100Y26432250D02*
X47000870Y26445120D01*
X46990280Y26454770D01*
X46977590Y26461200D01*
X46960650Y26466030D01*
X46941600Y26467630D01*
X46922550Y26466030D01*
X46905610Y26461200D01*
X46892910Y26454770D01*
X46882330Y26445120D01*
X46878100Y26432250D01*
X46882330Y26419380D01*
X46892910Y26409730D01*
X46905610Y26403300D01*
X46922550Y26398470D01*
X46941600Y26396870D01*
X46960650Y26398470D01*
X46977590Y26403300D01*
X46990280Y26409730D01*
X47000870Y26419380D01*
X47005100Y26432250D01*
G01X47215870Y27656900D02*
Y27783900D01*
X47248030D01*
X47260900Y27777550D01*
X47270550Y27769080D01*
X47278590Y27756390D01*
X47285030Y27741560D01*
X47286630Y27720400D01*
X47285030Y27699230D01*
X47278590Y27684410D01*
X47270550Y27671710D01*
X47260900Y27663250D01*
X47248030Y27656900D01*
X47215870D01*
G01X47380750D02*
Y27783900D01*
X47361450Y27758500D01*
G01Y27656900D02*
X47400050D01*
G01X47973320Y26728570D02*
X47979670Y26738220D01*
X47983900Y26749470D01*
Y26762340D01*
X47977550Y26776820D01*
X47966970Y26788070D01*
X47954270Y26796120D01*
X47933100Y26802550D01*
X47914050Y26804160D01*
X47895000Y26800940D01*
X47882300Y26796120D01*
X47869600Y26786470D01*
X47861130Y26775210D01*
X47856900Y26763950D01*
Y26752690D01*
X47861130Y26741430D01*
X47867480Y26731780D01*
X47875950Y26723740D01*
G01X47856900Y26634450D02*
X47983900D01*
X47958500Y26653750D01*
G01X47856900D02*
Y26615150D01*
G01X47576580Y28978100D02*
Y29105100D01*
X47616790D01*
X47629660Y29098750D01*
X47637700Y29090280D01*
X47640920Y29073350D01*
X47637700Y29056420D01*
X47628050Y29045830D01*
X47616790Y29039480D01*
X47576580D01*
G01X47616790D02*
X47640920Y28978100D01*
G01X47738250D02*
Y29105100D01*
X47718950Y29079700D01*
G01Y28978100D02*
X47757550D01*
G01X47837190Y29083930D02*
X47846840Y29096630D01*
X47858100Y29102980D01*
X47870970Y29105100D01*
X47887050Y29100870D01*
X47898310Y29090280D01*
X47901530Y29077590D01*
X47899920Y29064880D01*
X47893480Y29054300D01*
X47861320Y29033130D01*
X47846840Y29018320D01*
X47837190Y28997150D01*
X47833970Y28978100D01*
X47901530D01*
G01X47576580Y28658100D02*
Y28785100D01*
X47616790D01*
X47629660Y28778750D01*
X47637700Y28770280D01*
X47640920Y28753350D01*
X47637700Y28736420D01*
X47628050Y28725830D01*
X47616790Y28719480D01*
X47576580D01*
G01X47616790D02*
X47640920Y28658100D01*
G01X47738250D02*
Y28785100D01*
X47718950Y28759700D01*
G01Y28658100D02*
X47757550D01*
G01X47832370Y28683500D02*
X47842010Y28668680D01*
X47854880Y28660220D01*
X47869360Y28658100D01*
X47882230Y28660220D01*
X47895090Y28670800D01*
X47903130Y28683500D01*
X47904740Y28696200D01*
X47901530Y28711010D01*
X47890270Y28721600D01*
X47879010Y28725830D01*
X47864530D01*
G01X47879010D02*
X47888660Y28732180D01*
X47896700Y28742760D01*
X47899920Y28755470D01*
X47896700Y28768170D01*
X47888660Y28778750D01*
X47874180Y28785100D01*
X47859710Y28782980D01*
X47845230Y28774520D01*
G01X47636580Y28298100D02*
Y28425100D01*
X47676790D01*
X47689660Y28418750D01*
X47697700Y28410280D01*
X47700920Y28393350D01*
X47697700Y28376420D01*
X47688050Y28365830D01*
X47676790Y28359480D01*
X47636580D01*
G01X47676790D02*
X47700920Y28298100D01*
G01X47798250D02*
Y28425100D01*
X47778950Y28399700D01*
G01Y28298100D02*
X47817550D01*
G01X47892370Y28317150D02*
X47902010Y28306560D01*
X47913270Y28300220D01*
X47927750Y28298100D01*
X47942230Y28302330D01*
X47953480Y28310800D01*
X47961530Y28325610D01*
X47963130Y28342550D01*
X47959920Y28359480D01*
X47951870Y28370070D01*
X47940620Y28378530D01*
X47929360Y28380650D01*
X47918100Y28378530D01*
X47903630Y28370070D01*
X47908450Y28425100D01*
X47951870D01*
G01X47576580Y29318100D02*
Y29445100D01*
X47616790D01*
X47629660Y29438750D01*
X47637700Y29430280D01*
X47640920Y29413350D01*
X47637700Y29396420D01*
X47628050Y29385830D01*
X47616790Y29379480D01*
X47576580D01*
G01X47616790D02*
X47640920Y29318100D01*
G01X47738250D02*
Y29445100D01*
X47718950Y29419700D01*
G01Y29318100D02*
X47757550D01*
G01X47867750D02*
Y29445100D01*
X47848450Y29419700D01*
G01Y29318100D02*
X47887050D01*
G01X48712700Y27543230D02*
X48706350Y27539850D01*
X48702120Y27535790D01*
X48700000Y27531050D01*
X48702120Y27525640D01*
X48706350Y27521580D01*
X48712700Y27517520D01*
X48721170Y27516170D01*
X48763500D01*
G01X48752920Y27486760D02*
X48759270Y27482700D01*
X48762440Y27477960D01*
X48763500Y27472550D01*
X48761380Y27465780D01*
X48756090Y27461040D01*
X48749740Y27459690D01*
X48743390Y27460370D01*
X48738100Y27463070D01*
X48727520Y27476610D01*
X48720110Y27482700D01*
X48709520Y27486760D01*
X48700000Y27488110D01*
Y27459690D01*
G01X49236580Y26098100D02*
Y26225100D01*
X49276790D01*
X49289660Y26218750D01*
X49297700Y26210280D01*
X49300920Y26193350D01*
X49297700Y26176420D01*
X49288050Y26165830D01*
X49276790Y26159480D01*
X49236580D01*
G01X49276790D02*
X49300920Y26098100D01*
G01X49398250D02*
Y26225100D01*
X49378950Y26199700D01*
G01Y26098100D02*
X49417550D01*
G01X49236580Y26578100D02*
Y26705100D01*
X49276790D01*
X49289660Y26698750D01*
X49297700Y26690280D01*
X49300920Y26673350D01*
X49297700Y26656420D01*
X49288050Y26645830D01*
X49276790Y26639480D01*
X49236580D01*
G01X49276790D02*
X49300920Y26578100D01*
G01X49398250D02*
X49409510Y26580220D01*
X49422370Y26586560D01*
X49430420Y26597150D01*
X49433630Y26611970D01*
X49430420Y26626780D01*
X49420770Y26639480D01*
X49406290Y26645830D01*
X49390210D01*
X49380560Y26650070D01*
X49372510Y26660650D01*
X49369300Y26675470D01*
X49374130Y26690280D01*
X49385380Y26700870D01*
X49398250Y26705100D01*
X49411120Y26700870D01*
X49422370Y26690280D01*
X49427200Y26675470D01*
X49423980Y26660650D01*
X49415940Y26650070D01*
X49406290Y26645830D01*
X49390210D01*
X49375730Y26639480D01*
X49366080Y26626780D01*
X49362870Y26611970D01*
X49366080Y26597150D01*
X49374130Y26586560D01*
X49386990Y26580220D01*
X49398250Y26578100D01*
G01X49236580Y26898100D02*
Y27025100D01*
X49276790D01*
X49289660Y27018750D01*
X49297700Y27010280D01*
X49300920Y26993350D01*
X49297700Y26976420D01*
X49288050Y26965830D01*
X49276790Y26959480D01*
X49236580D01*
G01X49276790D02*
X49300920Y26898100D01*
G01X49362870Y26917150D02*
X49372510Y26906560D01*
X49383770Y26900220D01*
X49398250Y26898100D01*
X49412730Y26902330D01*
X49423980Y26910800D01*
X49432030Y26925610D01*
X49433630Y26942550D01*
X49430420Y26959480D01*
X49422370Y26970070D01*
X49411120Y26978530D01*
X49399860Y26980650D01*
X49388600Y26978530D01*
X49374130Y26970070D01*
X49378950Y27025100D01*
X49422370D01*
G01X49236580Y27218100D02*
Y27345100D01*
X49276790D01*
X49289660Y27338750D01*
X49297700Y27330280D01*
X49300920Y27313350D01*
X49297700Y27296420D01*
X49288050Y27285830D01*
X49276790Y27279480D01*
X49236580D01*
G01X49276790D02*
X49300920Y27218100D01*
G01X49367690Y27271010D02*
X49378950Y27285830D01*
X49388600Y27294300D01*
X49401470Y27298530D01*
X49412730Y27294300D01*
X49420770Y27285830D01*
X49427200Y27273130D01*
X49428810Y27258320D01*
X49427200Y27245610D01*
X49420770Y27232910D01*
X49411120Y27222330D01*
X49399860Y27218100D01*
X49386990Y27222330D01*
X49375730Y27235030D01*
X49369300Y27254080D01*
X49367690Y27275250D01*
X49370910Y27302760D01*
X49375730Y27317590D01*
X49383770Y27332400D01*
X49395030Y27342980D01*
X49406290Y27345100D01*
X49417550Y27340870D01*
X49425590Y27330280D01*
G01X49527120Y27930900D02*
X49519070Y27943600D01*
X49509430Y27952070D01*
X49498170Y27956300D01*
X49485300Y27952070D01*
X49475650Y27943600D01*
X49466000Y27930900D01*
X49462780Y27913970D01*
Y27829300D01*
G01X49346150Y27956300D02*
Y27829300D01*
X49405660Y27920320D01*
X49325240D01*
G01X49216580Y27578100D02*
Y27705100D01*
X49256790D01*
X49269660Y27698750D01*
X49277700Y27690280D01*
X49280920Y27673350D01*
X49277700Y27656420D01*
X49268050Y27645830D01*
X49256790Y27639480D01*
X49216580D01*
G01X49256790D02*
X49280920Y27578100D01*
G01X49375030D02*
X49378250Y27605610D01*
X49383080Y27628900D01*
X49389510Y27650070D01*
X49397550Y27673350D01*
X49410420Y27705100D01*
X49346080D01*
G01X50087120Y28110900D02*
X50079070Y28123600D01*
X50069430Y28132070D01*
X50058170Y28136300D01*
X50045300Y28132070D01*
X50035650Y28123600D01*
X50026000Y28110900D01*
X50022780Y28093970D01*
Y28009300D01*
G01X49960830Y28110900D02*
X49951190Y28125720D01*
X49938320Y28134180D01*
X49923840Y28136300D01*
X49910970Y28134180D01*
X49898110Y28123600D01*
X49890070Y28110900D01*
X49888460Y28098200D01*
X49891670Y28083390D01*
X49902930Y28072800D01*
X49914190Y28068570D01*
X49928670D01*
G01X49914190D02*
X49904540Y28062220D01*
X49896500Y28051640D01*
X49893280Y28038930D01*
X49896500Y28026230D01*
X49904540Y28015650D01*
X49919020Y28009300D01*
X49933490Y28011420D01*
X49947970Y28019880D01*
G01X50950100Y27811130D02*
X50859080D01*
X50840030Y27804700D01*
X50827330Y27791830D01*
X50823100Y27775750D01*
X50827330Y27759670D01*
X50840030Y27746800D01*
X50859080Y27740370D01*
X50950100D01*
G01X50823100Y27646250D02*
X50950100D01*
X50924700Y27665550D01*
G01X50823100D02*
Y27626950D01*
G01X50968570Y28806680D02*
X50978220Y28800330D01*
X50989470Y28796100D01*
X51002340D01*
X51016820Y28802450D01*
X51028070Y28813030D01*
X51036120Y28825730D01*
X51042550Y28846900D01*
X51044160Y28865950D01*
X51040940Y28885000D01*
X51036120Y28897700D01*
X51026470Y28910400D01*
X51015210Y28918870D01*
X51003950Y28923100D01*
X50992690D01*
X50981430Y28918870D01*
X50971780Y28912520D01*
X50963740Y28904050D01*
G01X50905010Y28817270D02*
X50895360Y28804570D01*
X50884100Y28798220D01*
X50871230Y28796100D01*
X50855150Y28800330D01*
X50843890Y28810920D01*
X50840670Y28823610D01*
X50842280Y28836320D01*
X50848720Y28846900D01*
X50880880Y28868070D01*
X50895360Y28882880D01*
X50905010Y28904050D01*
X50908230Y28923100D01*
X50840670D01*
G01X51693320Y28568570D02*
X51699670Y28578220D01*
X51703900Y28589470D01*
Y28602340D01*
X51697550Y28616820D01*
X51686970Y28628070D01*
X51674270Y28636120D01*
X51653100Y28642550D01*
X51634050Y28644160D01*
X51615000Y28640940D01*
X51602300Y28636120D01*
X51589600Y28626470D01*
X51581130Y28615210D01*
X51576900Y28603950D01*
Y28592690D01*
X51581130Y28581430D01*
X51587480Y28571780D01*
X51595950Y28563740D01*
G01X51576900Y28455150D02*
X51703900D01*
X51612880Y28514660D01*
Y28434240D01*
G01X51710050Y29505100D02*
Y29562250D01*
X51677880Y29632100D01*
G01X51742220D02*
X51710050Y29562250D01*
G01X51808990Y29610930D02*
X51818640Y29623630D01*
X51829900Y29629980D01*
X51842770Y29632100D01*
X51858850Y29627870D01*
X51870110Y29617280D01*
X51873330Y29604590D01*
X51871720Y29591880D01*
X51865280Y29581300D01*
X51833120Y29560130D01*
X51818640Y29545320D01*
X51808990Y29524150D01*
X51805770Y29505100D01*
X51873330D01*
G01X52896580Y26558100D02*
Y26685100D01*
X52936790D01*
X52949660Y26678750D01*
X52957700Y26670280D01*
X52960920Y26653350D01*
X52957700Y26636420D01*
X52948050Y26625830D01*
X52936790Y26619480D01*
X52896580D01*
G01X52936790D02*
X52960920Y26558100D01*
G01X53058250D02*
Y26685100D01*
X53038950Y26659700D01*
G01Y26558100D02*
X53077550D01*
G01X53207050D02*
Y26685100D01*
X53147540Y26594080D01*
X53227960D01*
G01X52896580Y27318100D02*
Y27445100D01*
X52936790D01*
X52949660Y27438750D01*
X52957700Y27430280D01*
X52960920Y27413350D01*
X52957700Y27396420D01*
X52948050Y27385830D01*
X52936790Y27379480D01*
X52896580D01*
G01X52936790D02*
X52960920Y27318100D01*
G01X53022870Y27343500D02*
X53032510Y27328680D01*
X53045380Y27320220D01*
X53059860Y27318100D01*
X53072730Y27320220D01*
X53085590Y27330800D01*
X53093630Y27343500D01*
X53095240Y27356200D01*
X53092030Y27371010D01*
X53080770Y27381600D01*
X53069510Y27385830D01*
X53055030D01*
G01X53069510D02*
X53079160Y27392180D01*
X53087200Y27402760D01*
X53090420Y27415470D01*
X53087200Y27428170D01*
X53079160Y27438750D01*
X53064680Y27445100D01*
X53050210Y27442980D01*
X53035730Y27434520D01*
G01X52896580Y26958100D02*
Y27085100D01*
X52936790D01*
X52949660Y27078750D01*
X52957700Y27070280D01*
X52960920Y27053350D01*
X52957700Y27036420D01*
X52948050Y27025830D01*
X52936790Y27019480D01*
X52896580D01*
G01X52936790D02*
X52960920Y26958100D01*
G01X53077550D02*
Y27085100D01*
X53018040Y26994080D01*
X53098460D01*
G01X52916580Y27658100D02*
Y27785100D01*
X52956790D01*
X52969660Y27778750D01*
X52977700Y27770280D01*
X52980920Y27753350D01*
X52977700Y27736420D01*
X52968050Y27725830D01*
X52956790Y27719480D01*
X52916580D01*
G01X52956790D02*
X52980920Y27658100D01*
G01X53047690Y27763930D02*
X53057340Y27776630D01*
X53068600Y27782980D01*
X53081470Y27785100D01*
X53097550Y27780870D01*
X53108810Y27770280D01*
X53112030Y27757590D01*
X53110420Y27744880D01*
X53103980Y27734300D01*
X53071820Y27713130D01*
X53057340Y27698320D01*
X53047690Y27677150D01*
X53044470Y27658100D01*
X53112030D01*
G01X52871430Y29673320D02*
X52861780Y29679670D01*
X52850530Y29683900D01*
X52837660D01*
X52823180Y29677550D01*
X52811930Y29666970D01*
X52803880Y29654270D01*
X52797450Y29633100D01*
X52795840Y29614050D01*
X52799060Y29595000D01*
X52803880Y29582300D01*
X52813530Y29569600D01*
X52824790Y29561130D01*
X52836050Y29556900D01*
X52847310D01*
X52858570Y29561130D01*
X52868220Y29567480D01*
X52876260Y29575950D01*
G01X52930170Y29582300D02*
X52939810Y29567480D01*
X52952680Y29559020D01*
X52967160Y29556900D01*
X52980030Y29559020D01*
X52992890Y29569600D01*
X53000930Y29582300D01*
X53002540Y29595000D01*
X52999330Y29609810D01*
X52988070Y29620400D01*
X52976810Y29624630D01*
X52962330D01*
G01X52976810D02*
X52986460Y29630980D01*
X52994500Y29641560D01*
X52997720Y29654270D01*
X52994500Y29666970D01*
X52986460Y29677550D01*
X52971980Y29683900D01*
X52957510Y29681780D01*
X52943030Y29673320D01*
G01X53928570Y27686680D02*
X53938220Y27680330D01*
X53949470Y27676100D01*
X53962340D01*
X53976820Y27682450D01*
X53988070Y27693030D01*
X53996120Y27705730D01*
X54002550Y27726900D01*
X54004160Y27745950D01*
X54000940Y27765000D01*
X53996120Y27777700D01*
X53986470Y27790400D01*
X53975210Y27798870D01*
X53963950Y27803100D01*
X53952690D01*
X53941430Y27798870D01*
X53931780Y27792520D01*
X53923740Y27784050D01*
G01X53834450Y27803100D02*
Y27676100D01*
X53853750Y27701500D01*
G01Y27803100D02*
X53815150D01*
G01X53704950Y27676100D02*
X53717820Y27680330D01*
X53727470Y27690920D01*
X53733900Y27703610D01*
X53738730Y27720550D01*
X53740330Y27739600D01*
X53738730Y27758650D01*
X53733900Y27775590D01*
X53727470Y27788290D01*
X53717820Y27798870D01*
X53704950Y27803100D01*
X53692080Y27798870D01*
X53682430Y27788290D01*
X53676000Y27775590D01*
X53671170Y27758650D01*
X53669570Y27739600D01*
X53671170Y27720550D01*
X53676000Y27703610D01*
X53682430Y27690920D01*
X53692080Y27680330D01*
X53704950Y27676100D01*
G01X54467120Y26250900D02*
X54459070Y26263600D01*
X54449430Y26272070D01*
X54438170Y26276300D01*
X54425300Y26272070D01*
X54415650Y26263600D01*
X54406000Y26250900D01*
X54402780Y26233970D01*
Y26149300D01*
G01X54305450Y26276300D02*
Y26149300D01*
X54324750Y26174700D01*
G01Y26276300D02*
X54286150D01*
M02*
