G04 ================== begin FILE IDENTIFICATION RECORD ==================*
G04 Layout Name:  C:/Users/user/Desktop/ex/EXXX/allegro/AVRUSB500_2.brd*
G04 Film Name:    silktop*
G04 File Format:  Gerber RS274X*
G04 File Origin:  Cadence Allegro 16.6-S034*
G04 Origin Date:  Fri Jul 19 14:13:19 2019*
G04 *
G04 Layer:  MANUFACTURING/AUTOSILK_TOP*
G04 *
G04 Offset:    (0.0000 0.0000)*
G04 Mirror:    No*
G04 Mode:      Positive*
G04 Rotation:  0*
G04 FullContactRelief:  No*
G04 UndefLineWidth:     0.0000*
G04 ================== end FILE IDENTIFICATION RECORD ====================*
%FSLAX55Y55*MOMM*%
%IR0*IPPOS*OFA0.00000B0.00000*MIA0B0*SFA1.00000B1.00000*%
%ADD10C,.2*%
%ADD11C,.203*%
%ADD12C,.254*%
G75*
%LPD*%
G75*
G54D10*
G01X44392330Y26526000D02*
X44384330Y26532000D01*
X44375000Y26536000D01*
X44364330D01*
X44352330Y26530000D01*
X44343000Y26520000D01*
X44336330Y26508000D01*
X44331000Y26488000D01*
X44329670Y26470000D01*
X44332330Y26452000D01*
X44336330Y26440000D01*
X44344330Y26428000D01*
X44353670Y26420000D01*
X44363000Y26416000D01*
X44372330D01*
X44381670Y26420000D01*
X44389670Y26426000D01*
X44396330Y26434000D01*
G01X44432910Y26466000D02*
X44442240Y26480000D01*
X44450240Y26488000D01*
X44460910Y26492000D01*
X44470240Y26488000D01*
X44476910Y26480000D01*
X44482240Y26468000D01*
X44483570Y26454000D01*
X44482240Y26442000D01*
X44476910Y26430000D01*
X44468910Y26420000D01*
X44459570Y26416000D01*
X44448910Y26420000D01*
X44439570Y26432000D01*
X44434240Y26450000D01*
X44432910Y26470000D01*
X44435570Y26496000D01*
X44439570Y26510000D01*
X44446240Y26524000D01*
X44455570Y26534000D01*
X44464910Y26536000D01*
X44474240Y26532000D01*
X44480910Y26522000D01*
G01X44328830Y27669000D02*
X44320830Y27675000D01*
X44311500Y27679000D01*
X44300830D01*
X44288830Y27673000D01*
X44279500Y27663000D01*
X44272830Y27651000D01*
X44267500Y27631000D01*
X44266170Y27613000D01*
X44268830Y27595000D01*
X44272830Y27583000D01*
X44280830Y27571000D01*
X44290170Y27563000D01*
X44299500Y27559000D01*
X44308830D01*
X44318170Y27563000D01*
X44326170Y27569000D01*
X44332830Y27577000D01*
G01X44392070Y27559000D02*
X44394740Y27585000D01*
X44398740Y27607000D01*
X44404070Y27627000D01*
X44410740Y27649000D01*
X44421410Y27679000D01*
X44368070D01*
G01X44417130Y28546900D02*
X44409130Y28552900D01*
X44399800Y28556900D01*
X44389130D01*
X44377130Y28550900D01*
X44367800Y28540900D01*
X44361130Y28528900D01*
X44355800Y28508900D01*
X44354470Y28490900D01*
X44357130Y28472900D01*
X44361130Y28460900D01*
X44369130Y28448900D01*
X44378470Y28440900D01*
X44387800Y28436900D01*
X44397130D01*
X44406470Y28440900D01*
X44414470Y28446900D01*
X44421130Y28454900D01*
G01X44483040Y28436900D02*
X44492370Y28438900D01*
X44503040Y28444900D01*
X44509710Y28454900D01*
X44512370Y28468900D01*
X44509710Y28482900D01*
X44501710Y28494900D01*
X44489710Y28500900D01*
X44476370D01*
X44468370Y28504900D01*
X44461710Y28514900D01*
X44459040Y28528900D01*
X44463040Y28542900D01*
X44472370Y28552900D01*
X44483040Y28556900D01*
X44493710Y28552900D01*
X44503040Y28542900D01*
X44507040Y28528900D01*
X44504370Y28514900D01*
X44497710Y28504900D01*
X44489710Y28500900D01*
X44476370D01*
X44464370Y28494900D01*
X44456370Y28482900D01*
X44453710Y28468900D01*
X44456370Y28454900D01*
X44463040Y28444900D01*
X44473710Y28438900D01*
X44483040Y28436900D01*
G01X44907830Y29273500D02*
Y29393500D01*
X44941170D01*
X44951830Y29387500D01*
X44958500Y29379500D01*
X44961170Y29363500D01*
X44958500Y29347500D01*
X44950500Y29337500D01*
X44941170Y29331500D01*
X44907830D01*
G01X44941170D02*
X44961170Y29273500D01*
G01X45007070Y29287500D02*
X45016410Y29277500D01*
X45027070Y29273500D01*
X45037740Y29277500D01*
X45047070Y29289500D01*
X45053740Y29307500D01*
X45056410Y29325500D01*
Y29347500D01*
X45053740Y29365500D01*
X45047070Y29381500D01*
X45039070Y29389500D01*
X45029740Y29393500D01*
X45019070Y29389500D01*
X45011070Y29381500D01*
X45005740Y29369500D01*
X45003070Y29353500D01*
X45005740Y29339500D01*
X45012410Y29325500D01*
X45020410Y29317500D01*
X45029740Y29315500D01*
X45040410Y29319500D01*
X45048410Y29329500D01*
X45056410Y29347500D01*
G01X45090830Y26526000D02*
X45082830Y26532000D01*
X45073500Y26536000D01*
X45062830D01*
X45050830Y26530000D01*
X45041500Y26520000D01*
X45034830Y26508000D01*
X45029500Y26488000D01*
X45028170Y26470000D01*
X45030830Y26452000D01*
X45034830Y26440000D01*
X45042830Y26428000D01*
X45052170Y26420000D01*
X45061500Y26416000D01*
X45070830D01*
X45080170Y26420000D01*
X45088170Y26426000D01*
X45094830Y26434000D01*
G01X45127410D02*
X45135410Y26424000D01*
X45144740Y26418000D01*
X45156740Y26416000D01*
X45168740Y26420000D01*
X45178070Y26428000D01*
X45184740Y26442000D01*
X45186070Y26458000D01*
X45183410Y26474000D01*
X45176740Y26484000D01*
X45167410Y26492000D01*
X45158070Y26494000D01*
X45148740Y26492000D01*
X45136740Y26484000D01*
X45140740Y26536000D01*
X45176740D01*
G01X45379000Y27368500D02*
Y27422500D01*
X45352330Y27488500D01*
G01X45405670D02*
X45379000Y27422500D01*
G01X45474240Y27368500D02*
Y27488500D01*
X45458240Y27464500D01*
G01Y27368500D02*
X45490240D01*
G01X45852830Y26589500D02*
X45844830Y26595500D01*
X45835500Y26599500D01*
X45824830D01*
X45812830Y26593500D01*
X45803500Y26583500D01*
X45796830Y26571500D01*
X45791500Y26551500D01*
X45790170Y26533500D01*
X45792830Y26515500D01*
X45796830Y26503500D01*
X45804830Y26491500D01*
X45814170Y26483500D01*
X45823500Y26479500D01*
X45832830D01*
X45842170Y26483500D01*
X45850170Y26489500D01*
X45856830Y26497500D01*
G01X45896070Y26493500D02*
X45905410Y26483500D01*
X45916070Y26479500D01*
X45926740Y26483500D01*
X45936070Y26495500D01*
X45942740Y26513500D01*
X45945410Y26531500D01*
Y26553500D01*
X45942740Y26571500D01*
X45936070Y26587500D01*
X45928070Y26595500D01*
X45918740Y26599500D01*
X45908070Y26595500D01*
X45900070Y26587500D01*
X45894740Y26575500D01*
X45892070Y26559500D01*
X45894740Y26545500D01*
X45901410Y26531500D01*
X45909410Y26523500D01*
X45918740Y26521500D01*
X45929410Y26525500D01*
X45937410Y26535500D01*
X45945410Y26553500D01*
G01X46061500Y29330000D02*
X46093500D01*
G01X46077500D02*
Y29210000D01*
G01X46061500D02*
X46093500D01*
G01X46202070Y29320000D02*
X46194070Y29326000D01*
X46184740Y29330000D01*
X46174070D01*
X46162070Y29324000D01*
X46152740Y29314000D01*
X46146070Y29302000D01*
X46140740Y29282000D01*
X46139410Y29264000D01*
X46142070Y29246000D01*
X46146070Y29234000D01*
X46154070Y29222000D01*
X46163410Y29214000D01*
X46172740Y29210000D01*
X46182070D01*
X46191410Y29214000D01*
X46199410Y29220000D01*
X46206070Y29228000D01*
G01X46267980Y29210000D02*
Y29330000D01*
X46251980Y29306000D01*
G01Y29210000D02*
X46283980D01*
G01X46622330Y26543000D02*
Y26663000D01*
X46655670D01*
X46666330Y26657000D01*
X46673000Y26649000D01*
X46675670Y26633000D01*
X46673000Y26617000D01*
X46665000Y26607000D01*
X46655670Y26601000D01*
X46622330D01*
G01X46655670D02*
X46675670Y26543000D01*
G01X46744240D02*
Y26663000D01*
X46728240Y26639000D01*
G01Y26543000D02*
X46760240D01*
G01X46839480Y26663000D02*
X46828810Y26659000D01*
X46820810Y26649000D01*
X46815480Y26637000D01*
X46811480Y26621000D01*
X46810150Y26603000D01*
X46811480Y26585000D01*
X46815480Y26569000D01*
X46820810Y26557000D01*
X46828810Y26547000D01*
X46839480Y26543000D01*
X46850150Y26547000D01*
X46858150Y26557000D01*
X46863480Y26569000D01*
X46867480Y26585000D01*
X46868810Y26603000D01*
X46867480Y26621000D01*
X46863480Y26637000D01*
X46858150Y26649000D01*
X46850150Y26659000D01*
X46839480Y26663000D01*
G01X47249830Y26843500D02*
X47241830Y26849500D01*
X47232500Y26853500D01*
X47221830D01*
X47209830Y26847500D01*
X47200500Y26837500D01*
X47193830Y26825500D01*
X47188500Y26805500D01*
X47187170Y26787500D01*
X47189830Y26769500D01*
X47193830Y26757500D01*
X47201830Y26745500D01*
X47211170Y26737500D01*
X47220500Y26733500D01*
X47229830D01*
X47239170Y26737500D01*
X47247170Y26743500D01*
X47253830Y26751500D01*
G01X47315740Y26733500D02*
Y26853500D01*
X47299740Y26829500D01*
G01Y26733500D02*
X47331740D01*
G01X47064170Y27622500D02*
Y27742500D01*
X47090830D01*
X47101500Y27736500D01*
X47109500Y27728500D01*
X47116170Y27716500D01*
X47121500Y27702500D01*
X47122830Y27682500D01*
X47121500Y27662500D01*
X47116170Y27648500D01*
X47109500Y27636500D01*
X47101500Y27628500D01*
X47090830Y27622500D01*
X47064170D01*
G01X47188740D02*
Y27742500D01*
X47172740Y27718500D01*
G01Y27622500D02*
X47204740D01*
G01X47701830Y28130500D02*
Y28250500D01*
X47735170D01*
X47745830Y28244500D01*
X47752500Y28236500D01*
X47755170Y28220500D01*
X47752500Y28204500D01*
X47744500Y28194500D01*
X47735170Y28188500D01*
X47701830D01*
G01X47735170D02*
X47755170Y28130500D01*
G01X47823740D02*
Y28250500D01*
X47807740Y28226500D01*
G01Y28130500D02*
X47839740D01*
G01X47889650Y28148500D02*
X47897650Y28138500D01*
X47906980Y28132500D01*
X47918980Y28130500D01*
X47930980Y28134500D01*
X47940310Y28142500D01*
X47946980Y28156500D01*
X47948310Y28172500D01*
X47945650Y28188500D01*
X47938980Y28198500D01*
X47929650Y28206500D01*
X47920310Y28208500D01*
X47910980Y28206500D01*
X47898980Y28198500D01*
X47902980Y28250500D01*
X47938980D01*
G01X47638330Y28448000D02*
Y28568000D01*
X47671670D01*
X47682330Y28562000D01*
X47689000Y28554000D01*
X47691670Y28538000D01*
X47689000Y28522000D01*
X47681000Y28512000D01*
X47671670Y28506000D01*
X47638330D01*
G01X47671670D02*
X47691670Y28448000D01*
G01X47760240D02*
Y28568000D01*
X47744240Y28544000D01*
G01Y28448000D02*
X47776240D01*
G01X47826150Y28472000D02*
X47834150Y28458000D01*
X47844810Y28450000D01*
X47856810Y28448000D01*
X47867480Y28450000D01*
X47878150Y28460000D01*
X47884810Y28472000D01*
X47886150Y28484000D01*
X47883480Y28498000D01*
X47874150Y28508000D01*
X47864810Y28512000D01*
X47852810D01*
G01X47864810D02*
X47872810Y28518000D01*
X47879480Y28528000D01*
X47882150Y28540000D01*
X47879480Y28552000D01*
X47872810Y28562000D01*
X47860810Y28568000D01*
X47848810Y28566000D01*
X47836810Y28558000D01*
G01X47638330Y28829000D02*
Y28949000D01*
X47671670D01*
X47682330Y28943000D01*
X47689000Y28935000D01*
X47691670Y28919000D01*
X47689000Y28903000D01*
X47681000Y28893000D01*
X47671670Y28887000D01*
X47638330D01*
G01X47671670D02*
X47691670Y28829000D01*
G01X47760240D02*
Y28949000D01*
X47744240Y28925000D01*
G01Y28829000D02*
X47776240D01*
G01X47830150Y28929000D02*
X47838150Y28941000D01*
X47847480Y28947000D01*
X47858150Y28949000D01*
X47871480Y28945000D01*
X47880810Y28935000D01*
X47883480Y28923000D01*
X47882150Y28911000D01*
X47876810Y28901000D01*
X47850150Y28881000D01*
X47838150Y28867000D01*
X47830150Y28847000D01*
X47827480Y28829000D01*
X47883480D01*
G01X47638330Y29146500D02*
Y29266500D01*
X47671670D01*
X47682330Y29260500D01*
X47689000Y29252500D01*
X47691670Y29236500D01*
X47689000Y29220500D01*
X47681000Y29210500D01*
X47671670Y29204500D01*
X47638330D01*
G01X47671670D02*
X47691670Y29146500D01*
G01X47760240D02*
Y29266500D01*
X47744240Y29242500D01*
G01Y29146500D02*
X47776240D01*
G01X47855480D02*
Y29266500D01*
X47839480Y29242500D01*
G01Y29146500D02*
X47871480D01*
G01X48209830Y27202000D02*
X48216500Y27190000D01*
X48224500Y27182000D01*
X48233830Y27178000D01*
X48244500Y27182000D01*
X48252500Y27190000D01*
X48260500Y27202000D01*
X48263170Y27218000D01*
Y27298000D01*
G01X48306410Y27278000D02*
X48314410Y27290000D01*
X48323740Y27296000D01*
X48334410Y27298000D01*
X48347740Y27294000D01*
X48357070Y27284000D01*
X48359740Y27272000D01*
X48358410Y27260000D01*
X48353070Y27250000D01*
X48326410Y27230000D01*
X48314410Y27216000D01*
X48306410Y27196000D01*
X48303740Y27178000D01*
X48359740D01*
G01X49352830Y25908000D02*
Y26028000D01*
X49386170D01*
X49396830Y26022000D01*
X49403500Y26014000D01*
X49406170Y25998000D01*
X49403500Y25982000D01*
X49395500Y25972000D01*
X49386170Y25966000D01*
X49352830D01*
G01X49386170D02*
X49406170Y25908000D01*
G01X49474740D02*
Y26028000D01*
X49458740Y26004000D01*
G01Y25908000D02*
X49490740D01*
G01X49416330Y26416000D02*
Y26536000D01*
X49449670D01*
X49460330Y26530000D01*
X49467000Y26522000D01*
X49469670Y26506000D01*
X49467000Y26490000D01*
X49459000Y26480000D01*
X49449670Y26474000D01*
X49416330D01*
G01X49449670D02*
X49469670Y26416000D01*
G01X49538240D02*
X49547570Y26418000D01*
X49558240Y26424000D01*
X49564910Y26434000D01*
X49567570Y26448000D01*
X49564910Y26462000D01*
X49556910Y26474000D01*
X49544910Y26480000D01*
X49531570D01*
X49523570Y26484000D01*
X49516910Y26494000D01*
X49514240Y26508000D01*
X49518240Y26522000D01*
X49527570Y26532000D01*
X49538240Y26536000D01*
X49548910Y26532000D01*
X49558240Y26522000D01*
X49562240Y26508000D01*
X49559570Y26494000D01*
X49552910Y26484000D01*
X49544910Y26480000D01*
X49531570D01*
X49519570Y26474000D01*
X49511570Y26462000D01*
X49508910Y26448000D01*
X49511570Y26434000D01*
X49518240Y26424000D01*
X49528910Y26418000D01*
X49538240Y26416000D01*
G01X49352830Y26733500D02*
Y26853500D01*
X49386170D01*
X49396830Y26847500D01*
X49403500Y26839500D01*
X49406170Y26823500D01*
X49403500Y26807500D01*
X49395500Y26797500D01*
X49386170Y26791500D01*
X49352830D01*
G01X49386170D02*
X49406170Y26733500D01*
G01X49445410Y26751500D02*
X49453410Y26741500D01*
X49462740Y26735500D01*
X49474740Y26733500D01*
X49486740Y26737500D01*
X49496070Y26745500D01*
X49502740Y26759500D01*
X49504070Y26775500D01*
X49501410Y26791500D01*
X49494740Y26801500D01*
X49485410Y26809500D01*
X49476070Y26811500D01*
X49466740Y26809500D01*
X49454740Y26801500D01*
X49458740Y26853500D01*
X49494740D01*
G01X49352830Y27368500D02*
Y27488500D01*
X49386170D01*
X49396830Y27482500D01*
X49403500Y27474500D01*
X49406170Y27458500D01*
X49403500Y27442500D01*
X49395500Y27432500D01*
X49386170Y27426500D01*
X49352830D01*
G01X49386170D02*
X49406170Y27368500D01*
G01X49472070D02*
X49474740Y27394500D01*
X49478740Y27416500D01*
X49484070Y27436500D01*
X49490740Y27458500D01*
X49501410Y27488500D01*
X49448070D01*
G01X49416330Y27051000D02*
Y27171000D01*
X49449670D01*
X49460330Y27165000D01*
X49467000Y27157000D01*
X49469670Y27141000D01*
X49467000Y27125000D01*
X49459000Y27115000D01*
X49449670Y27109000D01*
X49416330D01*
G01X49449670D02*
X49469670Y27051000D01*
G01X49512910Y27101000D02*
X49522240Y27115000D01*
X49530240Y27123000D01*
X49540910Y27127000D01*
X49550240Y27123000D01*
X49556910Y27115000D01*
X49562240Y27103000D01*
X49563570Y27089000D01*
X49562240Y27077000D01*
X49556910Y27065000D01*
X49548910Y27055000D01*
X49539570Y27051000D01*
X49528910Y27055000D01*
X49519570Y27067000D01*
X49514240Y27085000D01*
X49512910Y27105000D01*
X49515570Y27131000D01*
X49519570Y27145000D01*
X49526240Y27159000D01*
X49535570Y27169000D01*
X49544910Y27171000D01*
X49554240Y27167000D01*
X49560910Y27157000D01*
G01X49225830Y29234000D02*
X49232500Y29222000D01*
X49240500Y29214000D01*
X49249830Y29210000D01*
X49260500Y29214000D01*
X49268500Y29222000D01*
X49276500Y29234000D01*
X49279170Y29250000D01*
Y29330000D01*
G01X49363740Y29210000D02*
Y29330000D01*
X49314410Y29244000D01*
X49381070D01*
G01X49797330Y29424500D02*
X49804000Y29412500D01*
X49812000Y29404500D01*
X49821330Y29400500D01*
X49832000Y29404500D01*
X49840000Y29412500D01*
X49848000Y29424500D01*
X49850670Y29440500D01*
Y29520500D01*
G01X49889910Y29424500D02*
X49897910Y29410500D01*
X49908570Y29402500D01*
X49920570Y29400500D01*
X49931240Y29402500D01*
X49941910Y29412500D01*
X49948570Y29424500D01*
X49949910Y29436500D01*
X49947240Y29450500D01*
X49937910Y29460500D01*
X49928570Y29464500D01*
X49916570D01*
G01X49928570D02*
X49936570Y29470500D01*
X49943240Y29480500D01*
X49945910Y29492500D01*
X49943240Y29504500D01*
X49936570Y29514500D01*
X49924570Y29520500D01*
X49912570Y29518500D01*
X49900570Y29510500D01*
G01X50810670Y27552000D02*
Y27466000D01*
X50816000Y27448000D01*
X50826670Y27436000D01*
X50840000Y27432000D01*
X50853330Y27436000D01*
X50864000Y27448000D01*
X50869330Y27466000D01*
Y27552000D01*
G01X50935240Y27432000D02*
Y27552000D01*
X50919240Y27528000D01*
G01Y27432000D02*
X50951240D01*
G01X51059830Y28558000D02*
X51051830Y28564000D01*
X51042500Y28568000D01*
X51031830D01*
X51019830Y28562000D01*
X51010500Y28552000D01*
X51003830Y28540000D01*
X50998500Y28520000D01*
X50997170Y28502000D01*
X50999830Y28484000D01*
X51003830Y28472000D01*
X51011830Y28460000D01*
X51021170Y28452000D01*
X51030500Y28448000D01*
X51039830D01*
X51049170Y28452000D01*
X51057170Y28458000D01*
X51063830Y28466000D01*
G01X51141740Y28448000D02*
Y28568000D01*
X51092410Y28482000D01*
X51159070D01*
G01X50615330Y29510500D02*
X50607330Y29516500D01*
X50598000Y29520500D01*
X50587330D01*
X50575330Y29514500D01*
X50566000Y29504500D01*
X50559330Y29492500D01*
X50554000Y29472500D01*
X50552670Y29454500D01*
X50555330Y29436500D01*
X50559330Y29424500D01*
X50567330Y29412500D01*
X50576670Y29404500D01*
X50586000Y29400500D01*
X50595330D01*
X50604670Y29404500D01*
X50612670Y29410500D01*
X50619330Y29418500D01*
G01X50655910Y29500500D02*
X50663910Y29512500D01*
X50673240Y29518500D01*
X50683910Y29520500D01*
X50697240Y29516500D01*
X50706570Y29506500D01*
X50709240Y29494500D01*
X50707910Y29482500D01*
X50702570Y29472500D01*
X50675910Y29452500D01*
X50663910Y29438500D01*
X50655910Y29418500D01*
X50653240Y29400500D01*
X50709240D01*
G01X51475000Y29464000D02*
Y29518000D01*
X51448330Y29584000D01*
G01X51501670D02*
X51475000Y29518000D01*
G01X51544910Y29564000D02*
X51552910Y29576000D01*
X51562240Y29582000D01*
X51572910Y29584000D01*
X51586240Y29580000D01*
X51595570Y29570000D01*
X51598240Y29558000D01*
X51596910Y29546000D01*
X51591570Y29536000D01*
X51564910Y29516000D01*
X51552910Y29502000D01*
X51544910Y29482000D01*
X51542240Y29464000D01*
X51598240D01*
G01X53035830Y26352500D02*
Y26472500D01*
X53069170D01*
X53079830Y26466500D01*
X53086500Y26458500D01*
X53089170Y26442500D01*
X53086500Y26426500D01*
X53078500Y26416500D01*
X53069170Y26410500D01*
X53035830D01*
G01X53069170D02*
X53089170Y26352500D01*
G01X53157740D02*
Y26472500D01*
X53141740Y26448500D01*
G01Y26352500D02*
X53173740D01*
G01X53268980D02*
Y26472500D01*
X53219650Y26386500D01*
X53286310D01*
G01X53099330Y26797000D02*
Y26917000D01*
X53132670D01*
X53143330Y26911000D01*
X53150000Y26903000D01*
X53152670Y26887000D01*
X53150000Y26871000D01*
X53142000Y26861000D01*
X53132670Y26855000D01*
X53099330D01*
G01X53132670D02*
X53152670Y26797000D01*
G01X53237240D02*
Y26917000D01*
X53187910Y26831000D01*
X53254570D01*
G01X53035830Y27114500D02*
Y27234500D01*
X53069170D01*
X53079830Y27228500D01*
X53086500Y27220500D01*
X53089170Y27204500D01*
X53086500Y27188500D01*
X53078500Y27178500D01*
X53069170Y27172500D01*
X53035830D01*
G01X53069170D02*
X53089170Y27114500D01*
G01X53128410Y27138500D02*
X53136410Y27124500D01*
X53147070Y27116500D01*
X53159070Y27114500D01*
X53169740Y27116500D01*
X53180410Y27126500D01*
X53187070Y27138500D01*
X53188410Y27150500D01*
X53185740Y27164500D01*
X53176410Y27174500D01*
X53167070Y27178500D01*
X53155070D01*
G01X53167070D02*
X53175070Y27184500D01*
X53181740Y27194500D01*
X53184410Y27206500D01*
X53181740Y27218500D01*
X53175070Y27228500D01*
X53163070Y27234500D01*
X53151070Y27232500D01*
X53139070Y27224500D01*
G01X53035830Y27495500D02*
Y27615500D01*
X53069170D01*
X53079830Y27609500D01*
X53086500Y27601500D01*
X53089170Y27585500D01*
X53086500Y27569500D01*
X53078500Y27559500D01*
X53069170Y27553500D01*
X53035830D01*
G01X53069170D02*
X53089170Y27495500D01*
G01X53132410Y27595500D02*
X53140410Y27607500D01*
X53149740Y27613500D01*
X53160410Y27615500D01*
X53173740Y27611500D01*
X53183070Y27601500D01*
X53185740Y27589500D01*
X53184410Y27577500D01*
X53179070Y27567500D01*
X53152410Y27547500D01*
X53140410Y27533500D01*
X53132410Y27513500D01*
X53129740Y27495500D01*
X53185740D01*
G01X52837830Y29574000D02*
X52829830Y29580000D01*
X52820500Y29584000D01*
X52809830D01*
X52797830Y29578000D01*
X52788500Y29568000D01*
X52781830Y29556000D01*
X52776500Y29536000D01*
X52775170Y29518000D01*
X52777830Y29500000D01*
X52781830Y29488000D01*
X52789830Y29476000D01*
X52799170Y29468000D01*
X52808500Y29464000D01*
X52817830D01*
X52827170Y29468000D01*
X52835170Y29474000D01*
X52841830Y29482000D01*
G01X52874410Y29488000D02*
X52882410Y29474000D01*
X52893070Y29466000D01*
X52905070Y29464000D01*
X52915740Y29466000D01*
X52926410Y29476000D01*
X52933070Y29488000D01*
X52934410Y29500000D01*
X52931740Y29514000D01*
X52922410Y29524000D01*
X52913070Y29528000D01*
X52901070D01*
G01X52913070D02*
X52921070Y29534000D01*
X52927740Y29544000D01*
X52930410Y29556000D01*
X52927740Y29568000D01*
X52921070Y29578000D01*
X52909070Y29584000D01*
X52897070Y29582000D01*
X52885070Y29574000D01*
G01X53472830Y28367500D02*
X53464830Y28373500D01*
X53455500Y28377500D01*
X53444830D01*
X53432830Y28371500D01*
X53423500Y28361500D01*
X53416830Y28349500D01*
X53411500Y28329500D01*
X53410170Y28311500D01*
X53412830Y28293500D01*
X53416830Y28281500D01*
X53424830Y28269500D01*
X53434170Y28261500D01*
X53443500Y28257500D01*
X53452830D01*
X53462170Y28261500D01*
X53470170Y28267500D01*
X53476830Y28275500D01*
G01X53538740Y28257500D02*
Y28377500D01*
X53522740Y28353500D01*
G01Y28257500D02*
X53554740D01*
G01X53633980Y28377500D02*
X53623310Y28373500D01*
X53615310Y28363500D01*
X53609980Y28351500D01*
X53605980Y28335500D01*
X53604650Y28317500D01*
X53605980Y28299500D01*
X53609980Y28283500D01*
X53615310Y28271500D01*
X53623310Y28261500D01*
X53633980Y28257500D01*
X53644650Y28261500D01*
X53652650Y28271500D01*
X53657980Y28283500D01*
X53661980Y28299500D01*
X53663310Y28317500D01*
X53661980Y28335500D01*
X53657980Y28351500D01*
X53652650Y28363500D01*
X53644650Y28373500D01*
X53633980Y28377500D01*
G01X54242330Y27646500D02*
X54249000Y27634500D01*
X54257000Y27626500D01*
X54266330Y27622500D01*
X54277000Y27626500D01*
X54285000Y27634500D01*
X54293000Y27646500D01*
X54295670Y27662500D01*
Y27742500D01*
G01X54364240Y27622500D02*
Y27742500D01*
X54348240Y27718500D01*
G01Y27622500D02*
X54380240D01*
G54D11*
G01X44660000Y26001300D02*
G03X44945700Y26287000I0J285700D01*
G01X44374300D02*
G03X44660000Y26001300I285700J0D01*
G01Y26572700D02*
G03X44374300Y26287000I0J-285700D01*
G01X44945700D02*
G03X44660000Y26572700I-285700J0D01*
G01X44640000Y27027300D02*
G03X44925700Y27313000I0J285700D01*
G01X44354300D02*
G03X44640000Y27027300I285700J0D01*
G01Y27598700D02*
G03X44354300Y27313000I0J-285700D01*
G01X44925700D02*
G03X44640000Y27598700I-285700J0D01*
G01X44607000Y27854300D02*
G03X44892700Y28140000I0J285700D01*
G01X44321300D02*
G03X44607000Y27854300I285700J0D01*
G01Y28425700D02*
G03X44321300Y28140000I0J-285700D01*
G01X44892700D02*
G03X44607000Y28425700I-285700J0D01*
G01X44640500Y29337000D02*
X44577000D01*
G01X44640500Y29210000D02*
Y29337000D01*
G01D02*
Y29464000D01*
G01D02*
X45275500D01*
G01Y29210000D02*
X44640500D01*
G01X45340000Y26001300D02*
G03X45625700Y26287000I0J285700D01*
G01X45054300D02*
G03X45340000Y26001300I285700J0D01*
G01Y26572700D02*
G03X45054300Y26287000I0J-285700D01*
G01X45625700D02*
G03X45340000Y26572700I-285700J0D01*
G01X46490500Y26946000D02*
X45347500D01*
G01D02*
Y27454000D01*
G01D02*
X46490500D01*
G01X45275500Y29337000D02*
X45339000D01*
G01X45275500Y29464000D02*
Y29337000D01*
G01D02*
Y29210000D01*
G01X46120000Y26061300D02*
G03X46405700Y26347000I0J285700D01*
G01X45834300D02*
G03X46120000Y26061300I285700J0D01*
G01Y26632700D02*
G03X45834300Y26347000I0J-285700D01*
G01X46405700D02*
G03X46120000Y26632700I-285700J0D01*
G01X46490500Y27454000D02*
Y26946000D01*
G01X46740000Y26194500D02*
Y26131000D01*
G01X46867000Y26829500D02*
Y26194500D01*
G01D02*
X46740000D01*
G01D02*
X46613000D01*
G01D02*
Y26829500D01*
G01X47081300Y27360000D02*
G03X47398700Y27042500I317400J-100D01*
G01Y27677500D02*
G03X47081300Y27360000I0J-317400D01*
G01X46740000Y26829500D02*
Y26893000D01*
G01X46613000Y26829500D02*
X46740000D01*
G01D02*
X46867000D01*
G01X47560000Y26267300D02*
G03X47845700Y26553000I0J285700D01*
G01X47274300D02*
G03X47560000Y26267300I285700J0D01*
G01Y26838700D02*
G03X47274300Y26553000I0J-285700D01*
G01X47845700D02*
G03X47560000Y26838700I-285700J0D01*
G01X47398700Y27042500D02*
G03Y27677500I0J317500D01*
G01X47530500Y28160000D02*
X47467000D01*
G01X47530500Y28033000D02*
Y28160000D01*
G01D02*
Y28287000D01*
G01X48165500Y28033000D02*
X47530500D01*
G01X47470500Y28520000D02*
X47407000D01*
G01X47470500Y28393000D02*
Y28520000D01*
G01D02*
Y28647000D01*
G01D02*
X48105500D01*
G01Y28393000D02*
X47470500D01*
G01Y28840000D02*
X47407000D01*
G01X47470500Y28713000D02*
Y28840000D01*
G01D02*
Y28967000D01*
G01X48105500Y28713000D02*
X47470500D01*
G01X47530500Y28287000D02*
X48165500D01*
G01X47470500Y29180000D02*
X47407000D01*
G01X47470500Y29053000D02*
Y29180000D01*
G01D02*
Y29307000D01*
G01D02*
X48105500D01*
G01Y29053000D02*
X47470500D01*
G01Y28967000D02*
X48105500D01*
G01X48165500Y28160000D02*
X48229000D01*
G01X48165500Y28287000D02*
Y28160000D01*
G01D02*
Y28033000D01*
G01X48105500Y28520000D02*
X48169000D01*
G01X48105500Y28647000D02*
Y28520000D01*
G01D02*
Y28393000D01*
G01Y28840000D02*
X48169000D01*
G01X48105500Y28967000D02*
Y28840000D01*
G01D02*
Y28713000D01*
G01Y29180000D02*
X48169000D01*
G01X48105500Y29307000D02*
Y29180000D01*
G01D02*
Y29053000D01*
G01X49130500Y25833000D02*
Y25960000D01*
G01X49765500Y25833000D02*
X49130500D01*
G01Y25960000D02*
X49067000D01*
G01X49130500D02*
Y26087000D01*
G01D02*
X49765500D01*
G01X49130500Y26633000D02*
Y26760000D01*
G01X49765500Y26633000D02*
X49130500D01*
G01Y26440000D02*
X49067000D01*
G01X49130500Y26313000D02*
Y26440000D01*
G01D02*
Y26567000D01*
G01D02*
X49765500D01*
G01Y26313000D02*
X49130500D01*
G01Y26760000D02*
X49067000D01*
G01X49130500D02*
Y26887000D01*
G01D02*
X49765500D01*
G01X49130500Y27080000D02*
X49067000D01*
G01X49130500Y26953000D02*
Y27080000D01*
G01D02*
Y27207000D01*
G01D02*
X49765500D01*
G01Y26953000D02*
X49130500D01*
G01X49110500Y27440000D02*
X49047000D01*
G01X49110500Y27313000D02*
Y27440000D01*
G01D02*
Y27567000D01*
G01X49745500Y27313000D02*
X49110500D01*
G01X49313000Y27980300D02*
Y29275700D01*
G01X49567000Y27980300D02*
X49313000D01*
G01X49110500Y27567000D02*
X49745500D01*
G01X49313000Y29275700D02*
X49567000D01*
G01X49765500Y25960000D02*
Y25833000D01*
G01Y25960000D02*
X49829000D01*
G01X49765500Y26087000D02*
Y25960000D01*
G01Y26760000D02*
Y26633000D01*
G01Y26440000D02*
X49829000D01*
G01X49765500Y26567000D02*
Y26440000D01*
G01D02*
Y26313000D01*
G01Y26760000D02*
X49829000D01*
G01X49765500Y26887000D02*
Y26760000D01*
G01Y27080000D02*
X49829000D01*
G01X49765500Y27207000D02*
Y27080000D01*
G01D02*
Y26953000D01*
G01X49745500Y27440000D02*
X49809000D01*
G01X49745500Y27567000D02*
Y27440000D01*
G01D02*
Y27313000D01*
G01X49567000Y28120000D02*
Y27980300D01*
G01Y28374000D02*
Y28120000D01*
G01X49873000Y28160300D02*
Y29455700D01*
G01X50127000Y28160300D02*
X49873000D01*
G01X50127000Y28300000D02*
Y28160300D01*
G01X49567000Y28628000D02*
Y28374000D01*
G01Y28882000D02*
Y28628000D01*
G01Y29136000D02*
Y28882000D01*
G01X50127000Y28554000D02*
Y28300000D01*
G01Y28808000D02*
Y28554000D01*
G01Y29062000D02*
Y28808000D01*
G01X49567000Y29275700D02*
Y29136000D01*
G01X49873000Y29455700D02*
X50127000D01*
G01Y29316000D02*
Y29062000D01*
G01Y29455700D02*
Y29316000D01*
G01X50994300Y28393000D02*
G03X51280000Y28107300I285700J0D01*
G01Y28678700D02*
G03X50994300Y28393000I0J-285700D01*
G01X50793000Y28934300D02*
G03X51078700Y29220000I0J285700D01*
G01X50507300D02*
G03X50793000Y28934300I285700J0D01*
G01Y29505700D02*
G03X50507300Y29220000I0J-285700D01*
G01X51078700D02*
G03X50793000Y29505700I-285700J0D01*
G01X51280000Y28107300D02*
G03X51565700Y28393000I0J285700D01*
G01D02*
G03X51280000Y28678700I-285700J0D01*
G01X52492500Y28986000D02*
X51349500D01*
G01D02*
Y29494000D01*
G01D02*
X52492500D01*
G01D02*
Y28986000D01*
G01X52790500Y26420000D02*
X52727000D01*
G01X52790500Y26293000D02*
Y26420000D01*
G01D02*
Y26547000D01*
G01D02*
X53425500D01*
G01Y26293000D02*
X52790500D01*
G01X52810500Y27393000D02*
Y27520000D01*
G01X53445500Y27393000D02*
X52810500D01*
G01X52790500Y27180000D02*
X52727000D01*
G01X52790500Y27053000D02*
Y27180000D01*
G01D02*
Y27307000D01*
G01D02*
X53425500D01*
G01Y27053000D02*
X52790500D01*
G01Y26820000D02*
X52727000D01*
G01X52790500Y26693000D02*
Y26820000D01*
G01D02*
Y26947000D01*
G01D02*
X53425500D01*
G01Y26693000D02*
X52790500D01*
G01X52810500Y27520000D02*
X52747000D01*
G01X52810500D02*
Y27647000D01*
G01D02*
X53445500D01*
G01X53047000Y28974300D02*
G03X53332700Y29260000I0J285700D01*
G01X52761300D02*
G03X53047000Y28974300I285700J0D01*
G01Y29545700D02*
G03X52761300Y29260000I0J-285700D01*
G01X53332700D02*
G03X53047000Y29545700I-285700J0D01*
G01X53425500Y26420000D02*
X53489000D01*
G01X53425500Y26547000D02*
Y26420000D01*
G01D02*
Y26293000D01*
G01X53445500Y27520000D02*
Y27393000D01*
G01X53425500Y27180000D02*
X53489000D01*
G01X53425500Y27307000D02*
Y27180000D01*
G01D02*
Y27053000D01*
G01Y26820000D02*
X53489000D01*
G01X53425500Y26947000D02*
Y26820000D01*
G01D02*
Y26693000D01*
G01X53753000Y27814300D02*
G03X54038700Y28100000I0J285700D01*
G01X53467300D02*
G03X53753000Y27814300I285700J0D01*
G01Y28385700D02*
G03X53467300Y28100000I0J-285700D01*
G01X54038700D02*
G03X53753000Y28385700I-285700J0D01*
G01X53445500Y27520000D02*
X53509000D01*
G01X53445500Y27647000D02*
Y27520000D01*
G01X54253000Y26300300D02*
Y27595700D01*
G01X54507000Y26300300D02*
X54253000D01*
G01X54507000Y26440000D02*
Y26300300D01*
G01Y26694000D02*
Y26440000D01*
G01Y26948000D02*
Y26694000D01*
G01Y27202000D02*
Y26948000D01*
G01Y27456000D02*
Y27202000D01*
G01X54253000Y27595700D02*
X54507000D01*
G01D02*
Y27456000D01*
G54D12*
G01X45912700Y28949300D02*
X46055400D01*
G01X50796200Y27247300D02*
X50938900D01*
M02*
