G04 ================== begin FILE IDENTIFICATION RECORD ==================*
G04 Layout Name:  C:/Users/user/Desktop/ex/EXXX/allegro/AVRUSB500_2.brd*
G04 Film Name:    silktop*
G04 File Format:  Gerber RS274X*
G04 File Origin:  Cadence Allegro 17.2-P019*
G04 Origin Date:  Mon Jul 29 16:41:02 2019*
G04 *
G04 Layer:  MANUFACTURING/AUTOSILK_TOP*
G04 *
G04 Offset:    (0.0000 0.0000)*
G04 Mirror:    No*
G04 Mode:      Positive*
G04 Rotation:  0*
G04 FullContactRelief:  No*
G04 UndefLineWidth:     0.0000*
G04 ================== end FILE IDENTIFICATION RECORD ====================*
%FSLAX55Y55*MOMM*%
%IR0*IPPOS*OFA0.00000B0.00000*MIA0B0*SFA1.00000B1.00000*%
%ADD10C,.203*%
%ADD11C,.254*%
%ADD12C,.1524*%
G75*
%LPD*%
G75*
G54D10*
G01X44672300Y26860500D02*
G03X44958000Y26574800I285700J0D01*
G01D02*
G03X45243700Y26860500I0J285700D01*
G01D02*
G03X44958000Y27146200I-285700J0D01*
G01D02*
G03X44672300Y26860500I0J-285700D01*
G01X45625700Y26287000D02*
G03X45340000Y26572700I-285700J0D01*
G01D02*
G03X45054300Y26287000I0J-285700D01*
G01D02*
G03X45340000Y26001300I285700J0D01*
G01D02*
G03X45625700Y26287000I0J285700D01*
G01X45347500Y26946000D02*
Y27454000D01*
G01X46490500Y26946000D02*
X45347500D01*
G01Y27454000D02*
X46490500D01*
G01X46405700Y26347000D02*
G03X46120000Y26632700I-285700J0D01*
G01D02*
G03X45834300Y26347000I0J-285700D01*
G01D02*
G03X46120000Y26061300I285700J0D01*
G01D02*
G03X46405700Y26347000I0J285700D01*
G01X46490500Y27454000D02*
Y26946000D01*
G01X47398700Y27677500D02*
G03X47081300Y27360000I0J-317400D01*
G01D02*
G03X47398700Y27042500I317400J-100D01*
G01D02*
G03Y27677500I0J317500D01*
G01X49567000Y27980300D02*
X49313000D01*
G01D02*
Y29275700D01*
G01D02*
X49567000D01*
G01Y28374000D02*
Y28120000D01*
G01D02*
Y27980300D01*
G01X50127000Y28300000D02*
Y28160300D01*
G01D02*
X49873000D01*
G01D02*
Y29455700D01*
G01X49567000Y29136000D02*
Y28882000D01*
G01D02*
Y28628000D01*
G01D02*
Y28374000D01*
G01X50127000Y29062000D02*
Y28808000D01*
G01D02*
Y28554000D01*
G01D02*
Y28300000D01*
G01X49567000Y29275700D02*
Y29136000D01*
G01X50127000Y29455700D02*
Y29316000D01*
G01D02*
Y29062000D01*
G01X49873000Y29455700D02*
X50127000D01*
G01X51349500Y29494000D02*
X52492500D01*
G01X51349500Y28986000D02*
Y29494000D01*
G01X52492500Y28986000D02*
X51349500D01*
G01X52492500Y29494000D02*
Y28986000D01*
G01X54507000Y26694000D02*
Y26440000D01*
G01D02*
Y26300300D01*
G01D02*
X54253000D01*
G01D02*
Y27595700D01*
G01X54507000Y27456000D02*
Y27202000D01*
G01D02*
Y26948000D01*
G01D02*
Y26694000D01*
G01Y27595700D02*
Y27456000D01*
G01X54253000Y27595700D02*
X54507000D01*
G54D11*
G01X45912700Y28949300D02*
X46055400D01*
G01X50796200Y27247300D02*
X50938900D01*
G54D12*
G01X44884340Y27228800D02*
X44188380D01*
G01D02*
Y27635200D01*
G01D02*
X44884340D01*
G01D02*
Y27228800D01*
G01X44947840Y28117800D02*
X44251880D01*
G01X44947840Y28524200D02*
Y28117800D01*
G01X44251880D02*
Y28524200D01*
G01D02*
X44947840D01*
G01X45455840Y28943300D02*
X44759880D01*
G01D02*
Y29349700D01*
G01D02*
X45455840D01*
G01D02*
Y28943300D01*
G01X47167800Y26281380D02*
Y26977340D01*
G01X47574200Y26281380D02*
X47167800D01*
G01X46532800Y26172160D02*
Y26868120D01*
G01X46939200Y26172160D02*
X46532800D01*
G01X46939200Y26868120D02*
Y26172160D01*
G01X47167800Y26977340D02*
X47574200D01*
G01X46532800Y26868120D02*
X46939200D01*
G01X47574200Y26977340D02*
Y26281380D01*
G01X48313340Y27736800D02*
X47617380D01*
G01Y28143200D02*
X48033560D01*
G01X47617380Y27736800D02*
Y28143200D01*
G01X48186340Y28689300D02*
X47490380D01*
G01D02*
Y29095700D01*
G01X48249840Y28244800D02*
X47553880D01*
G01Y28651200D02*
X48249840D01*
G01X47553880Y28244800D02*
Y28651200D01*
G01X48186340Y29133800D02*
X47490380D01*
G01Y29540200D02*
X48186340D01*
G01X47490380Y29133800D02*
Y29540200D01*
G01Y29095700D02*
X48186340D01*
G01X48884840Y25768300D02*
X48188880D01*
G01D02*
Y26174700D01*
G01D02*
X48884840D01*
G01X48313340Y28143200D02*
Y27736800D01*
G01X48105440Y28143200D02*
X48313340D01*
G01X48186340Y29095700D02*
Y28689300D01*
G01X48249840Y28651200D02*
Y28244800D01*
G01X48186340Y29540200D02*
Y29133800D01*
G01X49964340Y25895300D02*
X49268380D01*
G01D02*
Y26301700D01*
G01X48884840Y26174700D02*
Y25768300D01*
G01X49710340Y26530300D02*
X49014380D01*
G01D02*
Y26936700D01*
G01X49268380Y26301700D02*
X49964340D01*
G01X49710340Y27419300D02*
X49014380D01*
G01D02*
Y27825700D01*
G01X49710340Y26974800D02*
X49014380D01*
G01Y27381200D02*
X49710340D01*
G01X49014380Y26974800D02*
Y27381200D01*
G01Y26936700D02*
X49710340D01*
G01X49014380Y27825700D02*
X49710340D01*
G01X49964340Y26301700D02*
Y25895300D01*
G01X49710340Y26936700D02*
Y26530300D01*
G01Y27585760D02*
Y27419300D01*
G01Y27381200D02*
Y26974800D01*
G01Y27825700D02*
Y27659240D01*
G01X51107340Y28371800D02*
X50411380D01*
G01Y28778200D02*
X51107340D01*
G01X50411380Y28371800D02*
Y28778200D01*
G01X51043840Y29133800D02*
X50347880D01*
G01X51043840Y29540200D02*
Y29133800D01*
G01X50347880Y29540200D02*
X51043840D01*
G01X50347880Y29133800D02*
Y29540200D01*
G01X51107340Y28778200D02*
Y28371800D01*
G01X53456840Y26149300D02*
X52760880D01*
G01Y26555700D02*
X53456840D01*
G01X52760880Y26149300D02*
Y26555700D01*
G01X53456840Y26657300D02*
X52760880D01*
G01D02*
Y27063700D01*
G01X53456840Y27101800D02*
X52760880D01*
G01D02*
Y27508200D01*
G01Y27063700D02*
X53456840D01*
G01Y27546300D02*
X52760880D01*
G01Y27952700D02*
X53456840D01*
G01X52760880Y27546300D02*
Y27952700D01*
G01Y27508200D02*
X53456840D01*
G01X53035200Y29390340D02*
Y28694380D01*
G01X52628800D02*
Y29390340D01*
G01X53035200Y28694380D02*
X52628800D01*
G01X52905660Y28651200D02*
X53601620D01*
G01X52905660Y28244800D02*
Y28651200D01*
G01X53601620Y28244800D02*
X52905660D01*
G01X52628800Y29390340D02*
X53035200D01*
G01X53456840Y26555700D02*
Y26149300D01*
G01Y27063700D02*
Y26657300D01*
G01Y27508200D02*
Y27101800D01*
G01Y27952700D02*
Y27546300D01*
G01X53601620Y28651200D02*
Y28244800D01*
M02*
