G04 ================== begin FILE IDENTIFICATION RECORD ==================*
G04 Layout Name:  C:/Users/user/Desktop/ex/EXXX/allegro/AVRUSB500_2.brd*
G04 Film Name:    SolderT*
G04 File Format:  Gerber RS274X*
G04 File Origin:  Cadence Allegro 16.6-S034*
G04 Origin Date:  Fri Jul 19 12:48:59 2019*
G04 *
G04 Layer:  VIA CLASS/SOLDERMASK_TOP*
G04 Layer:  PIN/SOLDERMASK_TOP*
G04 Layer:  PACKAGE GEOMETRY/SOLDERMASK_TOP*
G04 Layer:  BOARD GEOMETRY/SOLDERMASK_TOP*
G04 *
G04 Offset:    (0.0000 0.0000)*
G04 Mirror:    No*
G04 Mode:      Positive*
G04 Rotation:  0*
G04 FullContactRelief:  No*
G04 UndefLineWidth:     0.0000*
G04 ================== end FILE IDENTIFICATION RECORD ====================*
%FSLAX55Y55*MOMM*%
%IR0*IPPOS*OFA0.00000B0.00000*MIA0B0*SFA1.00000B1.00000*%
%ADD17O,1.8999X1.1999*%
%ADD19R,1.7201X.4*%
%ADD13O,.4569X1.778*%
%ADD16O,1.778X.4569*%
%ADD14R,.4569X1.778*%
%ADD15R,1.778X.4569*%
%ADD18R,1.7201X1.1001*%
%ADD11C,1.3211*%
%ADD12C,1.118*%
%ADD10R,1.3211X1.3211*%
%ADD21C,1.5751*%
%ADD20R,1.5751X1.5751*%
%LPD*%
G75*
G54D10*
X44660000Y26160000D03*
X44640000Y27440000D03*
X44480000Y28140000D03*
X45340000Y26160000D03*
X46120000Y26220000D03*
X47240000Y27360000D03*
X47560000Y26680000D03*
X50920000Y29220000D03*
X51280000Y28520000D03*
X52920000Y29260000D03*
X53880000Y28100000D03*
G54D20*
X49440000Y28120000D03*
X50000000Y28300000D03*
X54380000Y26440000D03*
G54D11*
X44660000Y26414000D03*
X44640000Y27186000D03*
X44734000Y28140000D03*
X44450000Y29337000D03*
X45340000Y26414000D03*
X45538000Y27200000D03*
X45466000Y29337000D03*
X46120000Y26474000D03*
X46300000Y27200000D03*
X46740000Y26004000D03*
Y27020000D03*
X47280000Y28840000D03*
Y28520000D03*
Y29180000D03*
X47560000Y26426000D03*
X47557500Y27360000D03*
X47340000Y28160000D03*
X48356000D03*
X48296000Y28520000D03*
Y28840000D03*
Y29180000D03*
X48940000Y25960000D03*
Y26440000D03*
X48920000Y27440000D03*
X48940000Y26760000D03*
Y27080000D03*
X49956000Y25960000D03*
Y26440000D03*
X49936000Y27440000D03*
X49956000Y26760000D03*
Y27080000D03*
X50666000Y29220000D03*
X51280000Y28266000D03*
X51540000Y29240000D03*
X52600000Y26420000D03*
Y27180000D03*
Y26820000D03*
X52620000Y27520000D03*
X52302000Y29240000D03*
X53174000Y29260000D03*
X53616000Y26420000D03*
Y26820000D03*
Y27180000D03*
X53626000Y28100000D03*
X53636000Y27520000D03*
G54D21*
X49440000Y28882000D03*
Y28628000D03*
Y28374000D03*
Y29136000D03*
X50000000Y28808000D03*
Y28554000D03*
Y29316000D03*
Y29062000D03*
X54380000Y26694000D03*
Y27456000D03*
Y27202000D03*
Y26948000D03*
G54D12*
X45538000Y27931500D03*
X45656500Y28194000D03*
X46355000Y28511500D03*
X46072000Y28800000D03*
X45980000Y28880000D03*
X45783500Y29210000D03*
X46672500Y28511500D03*
Y28321000D03*
X50863500Y28575000D03*
X51181000Y27114500D03*
X51689000Y27178000D03*
X51562000Y27495500D03*
Y28702000D03*
G54D13*
X46124800Y28175200D03*
X46284800D03*
X46364800D03*
X46444800D03*
Y29024800D03*
X46364800D03*
X46204800D03*
X46124800D03*
X46524800Y28175200D03*
X46604800D03*
X46684800D03*
Y29024800D03*
X46604800D03*
X46524800D03*
X51008300Y26473200D03*
Y27322800D03*
X51168300Y26473200D03*
X51248300D03*
X51328300D03*
X51408300D03*
X51488300D03*
X51568300D03*
Y27322800D03*
X51488300D03*
X51408300D03*
X51328300D03*
X51248300D03*
X51088300D03*
G54D14*
X46204800Y28175200D03*
X46284800Y29024800D03*
X51088300Y26473200D03*
X51168300Y27322800D03*
G54D15*
X45980000Y28880000D03*
X46829600Y28560000D03*
X50863500Y27178000D03*
X51713100Y26858000D03*
G54D16*
X45980000Y28800000D03*
Y28720000D03*
Y28640000D03*
Y28560000D03*
Y28480000D03*
Y28399900D03*
Y28319900D03*
X46829600D03*
Y28399900D03*
Y28480000D03*
Y28640000D03*
Y28720000D03*
Y28800000D03*
Y28880000D03*
X50863500Y26617900D03*
Y27098000D03*
Y27018000D03*
Y26938000D03*
Y26858000D03*
Y26778000D03*
Y26697900D03*
X51713100Y26617900D03*
Y26697900D03*
Y26778000D03*
Y26938000D03*
Y27018000D03*
Y27098000D03*
Y27178000D03*
G54D17*
X48140000Y26507500D03*
X48510000D03*
X48140000Y27532500D03*
X48510000D03*
G54D18*
Y26790000D03*
Y27250000D03*
G54D19*
Y27085000D03*
Y27150000D03*
Y26890000D03*
Y26955000D03*
Y27020000D03*
M02*
