G04 ================== begin FILE IDENTIFICATION RECORD ==================*
G04 Layout Name:  C:/Users/user/Desktop/ex/EXXX/allegro/AVRUSB500_2.brd*
G04 Film Name:    SolderT*
G04 File Format:  Gerber RS274X*
G04 File Origin:  Cadence Allegro 17.2-P019*
G04 Origin Date:  Mon Jul 29 16:41:02 2019*
G04 *
G04 Layer:  VIA CLASS/SOLDERMASK_TOP*
G04 Layer:  PIN/SOLDERMASK_TOP*
G04 Layer:  PACKAGE GEOMETRY/SOLDERMASK_TOP*
G04 Layer:  BOARD GEOMETRY/SOLDERMASK_TOP*
G04 *
G04 Offset:    (0.0000 0.0000)*
G04 Mirror:    No*
G04 Mode:      Positive*
G04 Rotation:  0*
G04 FullContactRelief:  No*
G04 UndefLineWidth:     0.0000*
G04 ================== end FILE IDENTIFICATION RECORD ====================*
%FSLAX55Y55*MOMM*%
%IR0*IPPOS*OFA0.00000B0.00000*MIA0B0*SFA1.00000B1.00000*%
%ADD20O,1.8999X1.1999*%
%ADD22R,1.7201X.4*%
%ADD15O,.4569X1.778*%
%ADD18O,1.778X.4569*%
%ADD16R,.4569X1.778*%
%ADD17R,1.778X.4569*%
%ADD21R,1.7201X1.1001*%
%ADD12C,1.3211*%
%ADD14C,1.118*%
%ADD11R,1.3211X1.3211*%
%ADD24C,1.5751*%
%ADD10C,3.683*%
%ADD23R,1.5751X1.5751*%
%ADD13R,1.4986X2.8448*%
%ADD19R,2.8448X1.4986*%
%LPD*%
G75*
G54D10*
X44450000Y25971500D03*
Y29273500D03*
X54229000Y25971500D03*
X54240000Y29280000D03*
G54D11*
X44958000Y26733500D03*
X45340000Y26160000D03*
X46120000Y26220000D03*
X47240000Y27360000D03*
G54D20*
X48140000Y26507500D03*
X48510000D03*
X48140000Y27532500D03*
X48510000D03*
G54D12*
X44958000Y26987500D03*
X45340000Y26414000D03*
X45538000Y27200000D03*
X46120000Y26474000D03*
X46300000Y27200000D03*
X47557500Y27360000D03*
X51540000Y29240000D03*
X52302000D03*
G54D21*
X48510000Y26790000D03*
Y27250000D03*
G54D13*
X44323000Y27432000D03*
X44749720D03*
X44386500Y28321000D03*
X44813220D03*
X44894500Y29146500D03*
X45321220D03*
X47752000Y27940000D03*
X47625000Y28892500D03*
X48051720D03*
X47688500Y28448000D03*
X47625000Y29337000D03*
X48051720D03*
X48323500Y25971500D03*
X48750220D03*
X48178720Y27940000D03*
X48115220Y28448000D03*
X49149000Y26733500D03*
X49575720D03*
X49403000Y26098500D03*
X49149000Y27178000D03*
X49575720D03*
X49149000Y27622500D03*
X49575720D03*
X49829720Y26098500D03*
X50546000Y28575000D03*
X50972720D03*
X50482500Y29337000D03*
X50909220D03*
X52895500Y26352500D03*
X53322220D03*
X52895500Y27305000D03*
X53322220D03*
X52895500Y26860500D03*
X53322220D03*
X52895500Y27749500D03*
X53322220D03*
X53040280Y28448000D03*
X53467000D03*
G54D22*
X48510000Y27085000D03*
Y27150000D03*
Y26890000D03*
Y26955000D03*
Y27020000D03*
G54D23*
X49440000Y28120000D03*
X50000000Y28300000D03*
X54380000Y26440000D03*
G54D14*
X45656500Y28194000D03*
X45538000Y27931500D03*
X46072000Y28800000D03*
X46243400Y28575000D03*
X45980000Y28880000D03*
X45783500Y29210000D03*
X46672500Y28321000D03*
X46609000Y28765500D03*
X46660760Y28448000D03*
X47752000Y26860500D03*
X48704500Y26289000D03*
X48069500Y28130500D03*
X49022000Y25844500D03*
X50101500Y25908000D03*
X49911000Y27622500D03*
X49720500D03*
X51689000Y27178000D03*
X51181000Y26860500D03*
Y27114500D03*
X51562000Y27495500D03*
G54D24*
X49440000Y28882000D03*
Y28628000D03*
Y28374000D03*
Y29136000D03*
X50000000Y28808000D03*
Y28554000D03*
Y29316000D03*
Y29062000D03*
X54380000Y26694000D03*
Y27456000D03*
Y27202000D03*
Y26948000D03*
G54D15*
X46124800Y28175200D03*
X46284800D03*
X46364800D03*
X46444800D03*
Y29024800D03*
X46364800D03*
X46204800D03*
X46124800D03*
X46524800Y28175200D03*
X46604800D03*
X46684800D03*
Y29024800D03*
X46604800D03*
X46524800D03*
X51008300Y26473200D03*
Y27322800D03*
X51168300Y26473200D03*
X51248300D03*
X51328300D03*
X51408300D03*
X51488300D03*
X51568300D03*
Y27322800D03*
X51488300D03*
X51408300D03*
X51328300D03*
X51248300D03*
X51088300D03*
G54D16*
X46204800Y28175200D03*
X46284800Y29024800D03*
X51088300Y26473200D03*
X51168300Y27322800D03*
G54D17*
X45980000Y28880000D03*
X46829600Y28560000D03*
X50863500Y27178000D03*
X51713100Y26858000D03*
G54D18*
X45980000Y28800000D03*
Y28720000D03*
Y28640000D03*
Y28560000D03*
Y28480000D03*
Y28399900D03*
Y28319900D03*
X46829600D03*
Y28399900D03*
Y28480000D03*
Y28640000D03*
Y28720000D03*
Y28800000D03*
Y28880000D03*
X50863500Y26617900D03*
Y27098000D03*
Y27018000D03*
Y26938000D03*
Y26858000D03*
Y26778000D03*
Y26697900D03*
X51713100Y26617900D03*
Y26697900D03*
Y26778000D03*
Y26938000D03*
Y27018000D03*
Y27098000D03*
Y27178000D03*
G54D19*
X47371000Y26416000D03*
X46736000Y26733500D03*
Y26306780D03*
X47371000Y26842720D03*
X52832000Y28829000D03*
Y29255720D03*
M02*
